<svg width="672" height="454" viewBox="0 0 672 454" fill="none" xmlns="http://www.w3.org/2000/svg">
<path d="M21 77V3.5L484.5 2L492 272.5L438.5 357L378.5 373H267.5H217.5L28.5 374V371L25.5 320.5L21 194V77Z" fill="white"/>
<path d="M357.164 314.53C415.023 311.595 468.031 310.266 476.578 315.057C480.98 317.532 487.829 350.063 490.976 371.82C508.748 369.699 531.081 367.747 553.393 366.226C550.08 349.487 548.036 338.999 540.519 322.825C539.38 320.375 542.499 319.385 543.768 321.623C551.301 335.413 556.36 350.415 558.715 365.95C588.923 363.967 618.728 362.768 637.409 362.768C635.287 344.487 623.537 302.359 602.473 280.758C586.236 264.107 554.737 249.287 526.859 245.78C526.425 249.643 524.935 253.313 522.552 256.385C520.169 259.457 516.986 261.813 513.352 263.195C498.458 269.047 471.274 270.585 447.024 257.265C421.441 264.563 374.557 292.405 357.164 314.53Z" fill="#2979D4"/>
<path d="M669.031 444.648C516.478 447.515 364.614 446.949 212.142 447.123C209.058 447.123 208.362 451.942 211.551 451.999C363.68 454.81 517.623 451.5 669.727 449.637C672.977 449.608 672.263 444.587 669.031 444.648Z" fill="#38A1FF"/>
<path d="M230.901 123.678C229.762 124.273 210.07 147.942 219.144 145.128C220.431 144.728 233.288 128.438 233.921 125.517C233.996 125.139 233.954 124.746 233.799 124.392C233.644 124.039 233.384 123.741 233.054 123.541C232.725 123.34 232.341 123.245 231.956 123.27C231.571 123.295 231.202 123.437 230.901 123.678Z" fill="#38A1FF"/>
<path d="M487.217 114.898C487.408 84.4394 488.823 46.4416 486.266 16.8878C486.196 16.444 485.964 16.042 485.615 15.7593C485.265 15.4766 484.824 15.3333 484.375 15.357C483.926 15.3808 483.502 15.5699 483.185 15.8878C482.867 16.2057 482.679 16.63 482.656 17.0787C481.825 31.2581 482.606 97.1406 482.656 115.238C482.663 118.212 487.2 117.876 487.217 114.898Z" fill="#38A1FF"/>
<path d="M220.374 256.013C224.756 260.813 229.415 265.353 234.327 269.609C236.448 271.607 239.716 268.421 237.58 266.426C233.001 261.82 228.188 257.453 223.16 253.343C221.629 252.364 219.193 254.369 220.374 256.013Z" fill="#38A1FF"/>
<path d="M24.3988 16.8878C24.3988 14.2287 20.2122 13.7443 20.1768 16.467C18.7836 129.11 20.6436 260.129 26.0253 372.188C26.1739 375.292 30.9757 374.532 30.8166 371.449C25.1307 252.912 24.2361 135.524 24.3988 16.8878Z" fill="#38A1FF"/>
<path d="M77.5895 268.237C76.4014 270.005 79.1559 272.254 80.5456 270.602C82.3383 268.481 92.7341 256.434 92.2144 253.842C90.7823 246.975 79.6192 265.235 77.5895 268.237Z" fill="#38A1FF"/>
<path d="M216.3 369.405C197.301 368.344 42.5912 369.175 36.5553 370.112C36.1089 370.256 35.7229 370.544 35.4575 370.931C35.1922 371.318 35.0625 371.782 35.0888 372.25C35.115 372.718 35.2958 373.165 35.6027 373.519C35.9096 373.874 36.3254 374.117 36.7851 374.21C95.281 374.377 157.362 373.913 215.961 373.977C218.811 373.977 219.299 369.582 216.3 369.405Z" fill="#38A1FF"/>
<path d="M85.0437 150.467C87.137 152.804 90.3477 149.877 88.608 147.893C84.386 143.102 75.3409 132.221 71.172 128.558C69.5207 127.105 67.2824 129.378 68.4493 131.111C71.4478 135.584 80.9101 145.856 85.0437 150.467Z" fill="#38A1FF"/>
<path d="M153.108 129.665C153.373 120.487 152.83 111.304 151.485 102.222C151.299 101.895 151.022 101.63 150.687 101.457C150.353 101.285 149.976 101.213 149.602 101.25C149.228 101.288 148.873 101.433 148.579 101.668C148.286 101.903 148.067 102.219 147.949 102.576C147.663 111.743 148.107 120.918 149.278 130.015C149.385 130.471 149.653 130.873 150.033 131.148C150.413 131.422 150.879 131.549 151.346 131.507C151.812 131.464 152.247 131.254 152.571 130.915C152.895 130.577 153.086 130.133 153.108 129.665Z" fill="#38A1FF"/>
<path d="M156.202 266.568C156.202 269.503 155.421 288.986 156.474 291.543C156.661 291.865 156.928 292.133 157.251 292.319C157.573 292.505 157.939 292.603 158.311 292.603C158.684 292.603 159.049 292.505 159.372 292.319C159.694 292.133 159.962 291.865 160.148 291.543C161.248 288.735 160 270.433 159.855 266.568C159.664 264.499 156.202 264.457 156.202 266.568Z" fill="#38A1FF"/>
<path fill-rule="evenodd" clip-rule="evenodd" d="M459.162 120.62C448.102 122.741 438.346 146.903 450.549 158.214C458.02 165.141 492.429 165.435 513.288 164.547C513.438 167.1 513.985 169.614 514.911 171.998C515.742 174.119 518.231 174.791 517.612 170.965C517.274 168.786 517.119 166.583 517.149 164.378C521.371 164.169 524.705 163.914 526.859 163.67C526.297 168.382 525.487 173.061 524.433 177.687C523.85 180.222 526.696 180.696 527.661 178.278C530.622 170.628 531.819 162.409 531.166 154.233C529.907 136.21 479.367 116.737 459.162 120.62ZM462.645 130.139C457.557 131.302 456.355 139.032 455.891 143.165C455.096 150.237 450.587 145.287 451.669 139.067C452.497 134.378 456.503 126.741 462.348 127.501C462.687 127.483 463.02 127.594 463.279 127.814C463.537 128.033 463.703 128.343 463.741 128.68C463.779 129.017 463.686 129.355 463.483 129.627C463.279 129.898 462.979 130.081 462.645 130.139Z" fill="#191919"/>
<path fill-rule="evenodd" clip-rule="evenodd" d="M500.516 193.383C503.335 188.61 505.273 183.369 506.238 177.91C510.987 178.77 515.517 180.574 519.558 183.214C521.962 184.25 522.874 181.092 521.679 180.113C517.339 176.576 512.035 174.428 506.457 173.95C503.883 169.073 484.314 167.938 481.295 173.083C480.556 172.669 479.737 172.415 478.893 172.339C478.049 172.262 477.199 172.366 476.397 172.641C474.859 168.419 457.505 167.362 453.18 172.238C448.198 171.69 446.129 176.29 452.713 176.248C452.957 180.818 453.802 185.336 455.227 189.685C456.932 193.171 469.187 193.118 471.627 191.354C474.53 189.257 475.849 180.102 476.673 176.577C477.869 176.201 479.161 176.277 480.305 176.789C480.279 181.515 480.817 186.228 481.906 190.827C483.78 194.554 497.797 196.594 500.516 193.383ZM470.287 187.301C469.711 188.691 469.191 189.023 464.545 188.84C456.695 188.532 458.339 190.233 455.935 174.423C461.464 172.546 467.459 172.546 472.989 174.423C472.913 178.849 471.996 183.219 470.287 187.301ZM485.064 188.903C484.188 184.557 483.875 180.116 484.134 175.689C490.198 173.524 496.855 173.728 502.776 176.259C502.444 179.736 501.552 183.137 500.134 186.329C498.126 190.724 497.794 191.301 491.461 190.784C488.42 190.537 485.492 189.862 485.064 188.907V188.903Z" fill="#191919"/>
<path fill-rule="evenodd" clip-rule="evenodd" d="M488.062 186.078C488.723 188.461 493.366 188.741 492.284 181.856C491.665 177.938 486.142 179.169 488.062 186.078Z" fill="#191919"/>
<path fill-rule="evenodd" clip-rule="evenodd" d="M528.168 183.228C516.053 184.243 510.074 206.435 503.638 208.56C499.141 210.048 489.052 203.578 478.858 202.881C468.664 202.184 462.858 206.491 460.955 205.583C459.053 204.674 460.365 196.718 460.365 194.861C460.365 193.005 459.354 191.99 457.557 196.085C455.761 200.18 438.244 239.486 445.864 250.062C456.755 265.175 501.199 268.375 514.996 257.979C532.294 244.945 517.574 203.086 521.835 192.181C522.636 190.622 523.913 189.36 525.482 188.578C527.05 187.795 528.827 187.534 530.554 187.832C536.382 190.357 534.78 207.633 525.466 204.928C523.125 204.253 522.595 207.195 524.759 208.33C531.085 211.657 537.294 206.47 538.121 197.775C538.74 191.191 536.505 182.531 528.168 183.228ZM479.933 222.477C471.153 222.477 469.378 218.995 468.639 213.284C476.239 214.917 484.113 214.781 491.651 212.884C490.849 218.103 489.735 222.492 479.933 222.492V222.477Z" fill="#191919"/>
<path fill-rule="evenodd" clip-rule="evenodd" d="M475.732 185.382C474.106 189.13 472.889 193.042 472.1 197.05C471.227 201.806 477.553 201.82 481.117 201.272C483.239 200.947 483.628 198.528 481.305 198.359C479.597 198.231 476.241 198.146 475.923 197.556C476.215 193.611 476.973 189.714 478.182 185.947C478.674 184.391 476.404 183.783 475.732 185.382Z" fill="#191919"/>
<path fill-rule="evenodd" clip-rule="evenodd" d="M465.69 186.241C467.656 185.491 467.812 180.198 466.132 179.211C461.892 176.694 461.302 187.896 465.69 186.241Z" fill="#191919"/>
<path fill-rule="evenodd" clip-rule="evenodd" d="M500.283 0C336.75 0.127296 163.147 -0.251051 2.10398 1.12091C-0.63995 1.14213 -0.703597 8.19289 1.93425 8.21057C164.961 9.23247 336.665 7.95952 500.113 7.83222C503.048 7.82869 503.112 0 500.283 0Z" fill="#191919"/>
<path fill-rule="evenodd" clip-rule="evenodd" d="M313.971 376.42C286.037 374.759 242.767 369.292 216.7 358.101C213.348 356.658 196.789 359.363 177.988 350.675C176.022 349.77 175.24 352.538 177.079 353.673C186.686 359.593 198.822 361.17 209.904 361.527C212.882 361.45 215.834 362.11 218.496 363.447C249.21 374.462 281.556 380.241 314.184 380.543C316.864 380.582 316.779 376.59 313.971 376.42Z" fill="#191919"/>
<path fill-rule="evenodd" clip-rule="evenodd" d="M631.563 368.401C631.019 365.424 627.005 366.474 627.507 369.434C629.235 380.058 628.55 390.934 625.502 401.257C618.285 426.409 597.048 422.374 575.79 421.395C553.478 420.369 522.75 418.23 503.472 417.343C503.046 417.286 502.615 417.398 502.271 417.655C501.926 417.911 501.696 418.292 501.628 418.716C501.56 419.14 501.661 419.574 501.908 419.925C502.155 420.276 502.53 420.517 502.952 420.596C521.498 423.541 561.116 425.285 576.55 426.016C597.66 427.021 621.21 429.835 629.07 405.395C632.938 393.457 633.794 380.749 631.563 368.401Z" fill="#191919"/>
<path fill-rule="evenodd" clip-rule="evenodd" d="M493.19 381.003C520.509 376.658 548.029 373.693 575.646 372.117C576.092 372.077 576.506 371.865 576.8 371.527C577.094 371.189 577.246 370.75 577.224 370.303C577.202 369.855 577.008 369.433 576.682 369.126C576.357 368.818 575.924 368.648 575.476 368.652C547.671 369.793 519.959 372.613 492.494 377.096C491.975 377.189 491.516 377.485 491.216 377.918C490.916 378.351 490.8 378.885 490.894 379.403C490.987 379.921 491.283 380.381 491.716 380.681C492.148 380.981 492.683 381.097 493.201 381.003H493.19Z" fill="#191919"/>
<path fill-rule="evenodd" clip-rule="evenodd" d="M202.348 350.417C202.642 350.415 202.932 350.353 203.202 350.236C203.472 350.119 203.716 349.949 203.918 349.736C204.121 349.523 204.279 349.271 204.382 348.995C204.485 348.72 204.531 348.426 204.518 348.133C204.506 347.839 204.434 347.55 204.307 347.285C204.18 347.02 204.001 346.782 203.781 346.588C203.56 346.393 203.303 346.245 203.024 346.152C202.745 346.059 202.45 346.023 202.157 346.046C189.031 346.467 182.408 342.74 173.745 336.588C172.373 335.615 170.916 337.33 171.977 338.709C178.144 346.86 192.532 350.799 202.348 350.417Z" fill="#191919"/>
<path fill-rule="evenodd" clip-rule="evenodd" d="M224.182 328.034C225.78 330.806 229.133 331.181 232.117 331.856C249.744 335.862 290.079 334.526 308.788 334.307C311.447 334.275 310.909 330.838 308.176 330.863C294.517 331 253.29 331.389 232.835 327.613C229.058 326.906 229.253 327.464 227.326 324.431C223.684 318.681 218.252 311.648 211.665 311.531C209.699 311.496 209.543 313.391 211.219 314.233C217.039 317.152 221.633 322.043 224.182 328.034Z" fill="#191919"/>
<path fill-rule="evenodd" clip-rule="evenodd" d="M212.513 328.819C203.383 326.139 190.48 321.839 183.384 312.67C181.262 309.919 179.459 312.058 180.512 314.275C184.932 323.582 201.113 331.955 210.402 332.309C215.54 332.525 214.111 329.286 212.513 328.819Z" fill="#191919"/>
<path fill-rule="evenodd" clip-rule="evenodd" d="M175.538 321.602C175.246 321.247 174.83 321.018 174.374 320.96C173.919 320.903 173.458 321.023 173.088 321.294C172.718 321.566 172.465 321.969 172.383 322.421C172.301 322.873 172.395 323.339 172.646 323.724C176.016 328.559 180.393 332.608 185.476 335.592C190.559 338.576 196.228 340.425 202.093 341.011C202.555 341.027 203.01 340.892 203.388 340.626C203.766 340.36 204.047 339.978 204.188 339.537C204.329 339.097 204.322 338.623 204.169 338.187C204.015 337.751 203.723 337.377 203.338 337.121C200.237 335.785 187.055 334.926 175.538 321.602Z" fill="#191919"/>
<path fill-rule="evenodd" clip-rule="evenodd" d="M582.611 429.786C576.278 428.962 502.818 430.588 499.416 429.195C496.014 427.802 478.419 327.595 473.823 321.011C469.226 314.427 324.43 318.603 317.846 322.405C311.262 326.206 333.005 440.666 338.638 442.982C343.663 445.043 575.062 442.179 582.622 441.78C590.181 441.38 588.944 430.61 582.611 429.786ZM400.182 396.855C380.426 398.499 374.235 366.092 393.976 362.871C403.347 361.339 411.603 369.649 413.354 379.882C413.718 381.877 413.657 383.925 413.175 385.895C412.694 387.864 411.803 389.71 410.56 391.311C409.317 392.913 407.75 394.235 405.962 395.19C404.174 396.145 402.204 396.712 400.182 396.855Z" fill="#191919"/>
<path fill-rule="evenodd" clip-rule="evenodd" d="M118.5 140.189L190.454 139.606L191.396 254.434L119.456 255.021L118.5 140.189Z" fill="#DFDFDF"/>
<path d="M129.557 187.484L179.034 187.257" stroke="#797979" stroke-width="3.11" stroke-linecap="round" stroke-linejoin="round"/>
<path d="M129 173.655L178.477 173.428" stroke="#797979" stroke-width="3.11" stroke-linecap="round" stroke-linejoin="round"/>
<path d="M129.871 203.005L179.348 202.778" stroke="#797979" stroke-width="3.11" stroke-linecap="round" stroke-linejoin="round"/>
<path d="M129.947 219.497L180.395 219.508" stroke="#797979" stroke-width="3.11" stroke-linecap="round" stroke-linejoin="round"/>
<path d="M130.993 236.227L149.428 236.628" stroke="#797979" stroke-width="3.11" stroke-linecap="round" stroke-linejoin="round"/>
<path d="M171.986 237.01L180.47 236.001" stroke="#2E6C73" stroke-width="3.11" stroke-linecap="round" stroke-linejoin="round"/>
<path d="M164.75 253.993V263.875C164.75 264.118 164.814 264.357 164.937 264.567C165.059 264.778 165.235 264.952 165.447 265.072C165.659 265.191 165.898 265.253 166.142 265.25C166.385 265.247 166.623 265.18 166.832 265.055L173 261.353L179.167 265.055C179.376 265.18 179.614 265.248 179.857 265.251C180.101 265.254 180.341 265.193 180.553 265.073C180.764 264.953 180.941 264.778 181.063 264.568C181.186 264.358 181.25 264.118 181.25 263.875V253.993C178.768 255.514 175.912 256.317 173 256.312C169.976 256.312 167.152 255.464 164.75 253.993ZM181.25 251.5C178.872 253.289 175.976 254.254 173 254.25C169.808 254.255 166.715 253.144 164.255 251.109C162.688 249.821 161.427 248.201 160.562 246.367C159.696 244.532 159.248 242.528 159.25 240.5C159.25 232.906 165.406 226.75 173 226.75C180.594 226.75 186.75 232.906 186.75 240.5C186.752 242.635 186.255 244.741 185.301 246.65C184.346 248.56 182.959 250.22 181.25 251.5Z" fill="#2979D4"/>
<rect x="128" y="154" width="26" height="3" fill="#797979"/>
<rect x="171" y="149" width="9" height="8" fill="#797979"/>
<rect x="319" y="80" width="55.7143" height="26" rx="3" fill="#D0D0D0"/>
<path d="M319 98.5715C321.735 98.5715 323.952 96.3543 323.952 93.6191C323.952 90.884 321.735 88.6667 319 88.6667V98.5715Z" fill="white"/>
<path d="M374.714 98.5715C371.979 98.5715 369.762 96.3543 369.762 93.6191C369.762 90.884 371.979 88.6667 374.714 88.6667V98.5715Z" fill="white"/>
<g clip-path="url(#clip0_29_2)">
<path d="M180.313 104.725C181.677 90.7406 195.479 81.9858 207.909 78.332C215.528 76.0934 223.555 75.3408 231.466 76.0999C235.375 76.473 239.422 77.142 243.13 78.4671C246.553 79.6893 249.852 81.7349 251.515 85.0541C254.827 91.6669 248.91 98.8844 242.818 101.239C239.785 102.409 236.22 102.577 233.174 101.348C230.128 100.119 228.017 97.482 227.413 94.2336C226.198 87.6851 230.069 81.2203 234.648 76.8268C239.863 71.8157 246.585 68.7409 253.619 67.152C261.88 65.2866 270.512 65.3444 278.929 65.8205C287.794 66.3222 296.594 67.5058 305.382 68.7731C307.557 69.0883 309.727 69.4099 311.902 69.7315C312.519 69.8216 313.305 69.6801 313.766 69.2362C314.137 68.876 314.098 68.4064 313.52 68.3163C304.031 66.8497 294.523 65.4216 284.949 64.6304C275.805 63.8778 266.433 63.5562 257.34 65.0164C249.3 66.3093 241.454 69.114 235.025 74.1701C229.53 78.4864 224.633 84.8933 224.51 92.1108C224.458 95.3657 225.458 98.6528 228.03 100.827C230.979 103.329 235.129 103.992 238.889 103.574C246.007 102.776 253.619 97.585 255.074 90.2775C255.821 86.5143 254.002 82.822 251.138 80.3905C248.079 77.7917 244.091 76.5952 240.227 75.7525C231.81 73.9256 222.984 73.8163 214.514 75.3665C206.584 76.8203 198.706 79.5799 192.017 84.1085C186.243 88.0196 181.106 93.3458 178.859 100.029C178.313 101.65 177.969 103.323 177.806 105.021C177.709 106.018 180.242 105.549 180.326 104.706L180.313 104.725Z" fill="#2979D4"/>
<path d="M178.943 108.829L176.741 101.933L175.683 98.6142L175.111 96.8259C174.994 96.4528 174.65 95.8674 174.793 95.4879C174.949 95.0505 174.247 94.9154 173.988 94.909C173.423 94.8897 172.851 95.0955 172.409 95.4364C171.968 95.7774 171.929 96.1569 172.078 96.6586C172.273 97.3019 172.487 97.9387 172.689 98.5756L173.832 102.152L176.196 109.556C176.501 110.502 179.235 109.749 178.943 108.829Z" fill="#2979D4"/>
<path d="M180.417 108.327C183.054 105.272 185.84 102.364 188.574 99.3989C188.932 99.0129 188.899 98.6013 188.321 98.4726C187.743 98.3439 186.886 98.5498 186.451 98.9679C183.418 101.901 180.605 105.085 177.852 108.27C177.417 108.771 178.222 109.061 178.599 109.067C179.268 109.087 179.975 108.829 180.411 108.321L180.417 108.327Z" fill="#2979D4"/>
</g>
<rect x="370" y="51" width="55.7143" height="26" rx="3" fill="#D0D0D0"/>
<path d="M370 69.5715C372.735 69.5715 374.952 67.3543 374.952 64.6191C374.952 61.884 372.735 59.6667 370 59.6667V69.5715Z" fill="white"/>
<path d="M425.714 69.5715C422.979 69.5715 420.762 67.3543 420.762 64.6191C420.762 61.884 422.979 59.6667 425.714 59.6667V69.5715Z" fill="white"/>
<rect x="365" y="113" width="55.7143" height="26" rx="3" fill="#D0D0D0"/>
<path d="M365 131.572C367.735 131.572 369.952 129.354 369.952 126.619C369.952 123.884 367.735 121.667 365 121.667V131.572Z" fill="white"/>
<path d="M420.714 131.572C417.979 131.572 415.762 129.354 415.762 126.619C415.762 123.884 417.979 121.667 420.714 121.667V131.572Z" fill="white"/>
<path d="M395.145 64.5C395.145 65.4753 394.964 66.298 394.601 66.9682C394.239 67.6355 393.749 68.1416 393.133 68.4867C392.517 68.8289 391.83 69 391.072 69C390.309 69 389.62 68.8275 389.004 68.4824C388.39 68.1345 387.902 67.6269 387.54 66.9596C387.18 66.2894 387 65.4696 387 64.5C387 63.5247 387.18 62.7034 387.54 62.0361C387.902 61.366 388.39 60.8598 389.004 60.5176C389.62 60.1725 390.309 60 391.072 60C391.83 60 392.517 60.1725 393.133 60.5176C393.749 60.8598 394.239 61.366 394.601 62.0361C394.964 62.7034 395.145 63.5247 395.145 64.5ZM392.806 64.5C392.806 63.9753 392.739 63.5333 392.606 63.174C392.475 62.8118 392.28 62.538 392.021 62.3527C391.765 62.1644 391.449 62.0703 391.072 62.0703C390.696 62.0703 390.379 62.1644 390.12 62.3527C389.864 62.538 389.669 62.8118 389.535 63.174C389.404 63.5333 389.339 63.9753 389.339 64.5C389.339 65.0247 389.404 65.4682 389.535 65.8303C389.669 66.1896 389.864 66.4634 390.12 66.6516C390.379 66.837 390.696 66.9297 391.072 66.9297C391.449 66.9297 391.765 66.837 392.021 66.6516C392.28 66.4634 392.475 66.1896 392.606 65.8303C392.739 65.4682 392.806 65.0247 392.806 64.5Z" fill="#474747"/>
<path d="M396.197 68.8802V60.1198H399.811C400.433 60.1198 400.977 60.2381 401.443 60.4748C401.909 60.7115 402.271 61.0523 402.53 61.4971C402.789 61.942 402.919 62.4753 402.919 63.097C402.919 63.7243 402.785 64.2533 402.518 64.6839C402.254 65.1145 401.882 65.4396 401.402 65.6592C400.925 65.8788 400.367 65.9886 399.729 65.9886H397.571V64.1407H399.272C399.539 64.1407 399.766 64.1065 399.954 64.038C400.145 63.9667 400.291 63.8541 400.392 63.7001C400.495 63.5461 400.547 63.3451 400.547 63.097C400.547 62.846 400.495 62.6421 400.392 62.4853C400.291 62.3256 400.145 62.2087 399.954 62.1345C399.766 62.0575 399.539 62.019 399.272 62.019H398.47V68.8802H396.197ZM401.103 64.8593L403.197 68.8802H400.727L398.683 64.8593H401.103Z" fill="#474747"/>
<path d="M412 64.5C412 65.4753 411.819 66.298 411.456 66.9682C411.094 67.6355 410.604 68.1416 409.988 68.4867C409.372 68.8289 408.685 69 407.928 69C407.164 69 406.475 68.8275 405.859 68.4824C405.245 68.1345 404.757 67.6269 404.395 66.9596C404.035 66.2894 403.855 65.4696 403.855 64.5C403.855 63.5247 404.035 62.7034 404.395 62.0361C404.757 61.366 405.245 60.8598 405.859 60.5176C406.475 60.1725 407.164 60 407.928 60C408.685 60 409.372 60.1725 409.988 60.5176C410.604 60.8598 411.094 61.366 411.456 62.0361C411.819 62.7034 412 63.5247 412 64.5ZM409.661 64.5C409.661 63.9753 409.594 63.5333 409.461 63.174C409.33 62.8118 409.135 62.538 408.876 62.3527C408.62 62.1644 408.304 62.0703 407.928 62.0703C407.551 62.0703 407.234 62.1644 406.975 62.3527C406.719 62.538 406.524 62.8118 406.39 63.174C406.259 63.5333 406.194 63.9753 406.194 64.5C406.194 65.0247 406.259 65.4682 406.39 65.8303C406.524 66.1896 406.719 66.4634 406.975 66.6516C407.234 66.837 407.551 66.9297 407.928 66.9297C408.304 66.9297 408.62 66.837 408.876 66.6516C409.135 66.4634 409.33 66.1896 409.461 65.8303C409.594 65.4682 409.661 65.0247 409.661 64.5Z" fill="#474747"/>
<path d="M329 97.8669V88.1331H335.829V90.2624H331.572V91.9354H335.477V94.0646H331.572V95.7376H335.81V97.8669H329Z" fill="#474747"/>
<path d="M337.105 97.8669V88.1331H341.195C341.898 88.1331 342.513 88.2646 343.041 88.5276C343.568 88.7906 343.978 89.1692 344.271 89.6635C344.564 90.1578 344.711 90.7503 344.711 91.4411C344.711 92.1381 344.56 92.7259 344.258 93.2044C343.958 93.6828 343.537 94.044 342.994 94.288C342.455 94.532 341.824 94.654 341.102 94.654H338.659V92.6008H340.584C340.886 92.6008 341.144 92.5627 341.357 92.4867C341.573 92.4075 341.738 92.2823 341.852 92.1112C341.969 91.9401 342.028 91.7167 342.028 91.4411C342.028 91.1622 341.969 90.9357 341.852 90.7614C341.738 90.584 341.573 90.4541 341.357 90.3717C341.144 90.2861 340.886 90.2433 340.584 90.2433H339.677V97.8669H337.105ZM342.657 93.3992L345.026 97.8669H342.231L339.918 93.3992H342.657Z" fill="#474747"/>
<path d="M354.654 91.7833H352.044C352.026 91.5615 351.976 91.3603 351.896 91.1797C351.819 90.999 351.711 90.8438 351.572 90.7139C351.437 90.5808 351.272 90.4794 351.077 90.4097C350.883 90.3368 350.662 90.3004 350.416 90.3004C349.984 90.3004 349.618 90.4081 349.319 90.6236C349.023 90.839 348.798 91.148 348.644 91.5504C348.492 91.9528 348.417 92.436 348.417 93C348.417 93.5957 348.494 94.0947 348.648 94.4971C348.806 94.8964 349.032 95.1974 349.328 95.4002C349.624 95.5998 349.981 95.6996 350.397 95.6996C350.635 95.6996 350.847 95.6695 351.036 95.6093C351.224 95.5459 351.387 95.4556 351.526 95.3384C351.665 95.2212 351.777 95.0802 351.864 94.9154C351.953 94.7475 352.013 94.5589 352.044 94.3498L354.654 94.3688C354.623 94.7807 354.51 95.2006 354.316 95.6283C354.122 96.0529 353.846 96.4458 353.488 96.807C353.133 97.1651 352.693 97.4534 352.169 97.6721C351.645 97.8907 351.036 98 350.342 98C349.472 98 348.691 97.8083 348.001 97.4249C347.313 97.0415 346.768 96.4775 346.367 95.7329C345.969 94.9883 345.77 94.0773 345.77 93C345.77 91.9163 345.974 91.0038 346.381 90.2624C346.788 89.5177 347.337 88.9553 348.028 88.5751C348.719 88.1917 349.49 88 350.342 88C350.94 88 351.491 88.084 351.993 88.2519C352.496 88.4198 352.937 88.6654 353.317 88.9886C353.696 89.3086 354.001 89.7031 354.233 90.1721C354.464 90.641 354.604 91.1781 354.654 91.7833Z" fill="#474747"/>
<path d="M365 93C365 94.0837 364.795 94.9978 364.385 95.7424C363.974 96.4838 363.421 97.0463 362.724 97.4297C362.027 97.8099 361.249 98 360.392 98C359.528 98 358.748 97.8083 358.051 97.4249C357.357 97.0383 356.805 96.4743 356.394 95.7329C355.987 94.9883 355.784 94.0773 355.784 93C355.784 91.9163 355.987 91.0038 356.394 90.2624C356.805 89.5177 357.357 88.9553 358.051 88.5751C358.748 88.1917 359.528 88 360.392 88C361.249 88 362.027 88.1917 362.724 88.5751C363.421 88.9553 363.974 89.5177 364.385 90.2624C364.795 91.0038 365 91.9163 365 93ZM362.354 93C362.354 92.417 362.278 91.9259 362.127 91.5266C361.979 91.1242 361.758 90.82 361.465 90.6141C361.175 90.4049 360.818 90.3004 360.392 90.3004C359.966 90.3004 359.607 90.4049 359.314 90.6141C359.024 90.82 358.803 91.1242 358.652 91.5266C358.504 91.9259 358.43 92.417 358.43 93C358.43 93.583 358.504 94.0757 358.652 94.4781C358.803 94.8774 359.024 95.1816 359.314 95.3907C359.607 95.5966 359.966 95.6996 360.392 95.6996C360.818 95.6996 361.175 95.5966 361.465 95.3907C361.758 95.1816 361.979 94.8774 362.127 94.4781C362.278 94.0757 362.354 93.583 362.354 93Z" fill="#474747"/>
<path d="M375.284 125C375.269 124.811 375.198 124.663 375.071 124.557C374.946 124.451 374.756 124.398 374.5 124.398C374.337 124.398 374.204 124.418 374.099 124.457C373.997 124.495 373.921 124.547 373.872 124.614C373.823 124.68 373.797 124.756 373.795 124.841C373.792 124.911 373.804 124.974 373.832 125.031C373.863 125.086 373.91 125.136 373.974 125.182C374.039 125.225 374.121 125.265 374.222 125.301C374.322 125.337 374.441 125.369 374.58 125.398L375.057 125.5C375.379 125.568 375.654 125.658 375.884 125.77C376.113 125.882 376.3 126.013 376.446 126.165C376.592 126.314 376.699 126.483 376.767 126.67C376.837 126.858 376.873 127.063 376.875 127.284C376.873 127.667 376.777 127.991 376.588 128.256C376.399 128.521 376.128 128.723 375.776 128.861C375.425 128.999 375.004 129.068 374.511 129.068C374.006 129.068 373.564 128.993 373.188 128.844C372.812 128.694 372.521 128.464 372.312 128.153C372.106 127.841 372.002 127.441 372 126.955H373.5C373.509 127.133 373.554 127.282 373.634 127.403C373.713 127.525 373.825 127.616 373.969 127.679C374.115 127.741 374.288 127.773 374.489 127.773C374.657 127.773 374.798 127.752 374.912 127.71C375.026 127.669 375.112 127.611 375.17 127.537C375.229 127.463 375.259 127.379 375.261 127.284C375.259 127.195 375.23 127.117 375.173 127.051C375.118 126.983 375.027 126.922 374.901 126.869C374.774 126.814 374.602 126.763 374.386 126.716L373.807 126.591C373.292 126.479 372.885 126.293 372.588 126.031C372.293 125.768 372.146 125.409 372.148 124.955C372.146 124.585 372.244 124.262 372.443 123.986C372.644 123.707 372.921 123.491 373.276 123.335C373.632 123.18 374.04 123.102 374.5 123.102C374.97 123.102 375.376 123.181 375.719 123.338C376.062 123.495 376.326 123.717 376.511 124.003C376.699 124.287 376.794 124.619 376.795 125H375.284Z" fill="#474747"/>
<path d="M380.919 123.182H382.499V126.909C382.499 127.352 382.393 127.736 382.18 128.06C381.97 128.382 381.677 128.631 381.3 128.807C380.923 128.981 380.485 129.068 379.987 129.068C379.485 129.068 379.046 128.981 378.669 128.807C378.292 128.631 377.999 128.382 377.788 128.06C377.58 127.736 377.476 127.352 377.476 126.909V123.182H379.055V126.773C379.055 126.953 379.095 127.114 379.175 127.256C379.254 127.396 379.364 127.506 379.504 127.585C379.646 127.665 379.807 127.705 379.987 127.705C380.169 127.705 380.33 127.665 380.47 127.585C380.61 127.506 380.72 127.396 380.8 127.256C380.879 127.114 380.919 126.953 380.919 126.773V123.182Z" fill="#474747"/>
<path d="M383.249 129V123.182H385.761C386.192 123.182 386.57 123.26 386.894 123.418C387.218 123.575 387.47 123.801 387.65 124.097C387.83 124.392 387.92 124.746 387.92 125.159C387.92 125.576 387.827 125.927 387.641 126.213C387.458 126.499 387.199 126.715 386.866 126.861C386.534 127.007 386.147 127.08 385.704 127.08H384.204V125.852H385.386C385.571 125.852 385.729 125.83 385.86 125.784C385.993 125.737 386.094 125.662 386.164 125.56C386.236 125.457 386.272 125.324 386.272 125.159C386.272 124.992 386.236 124.857 386.164 124.753C386.094 124.647 385.993 124.569 385.86 124.52C385.729 124.469 385.571 124.443 385.386 124.443H384.829V129H383.249ZM386.658 126.33L388.113 129H386.397L384.977 126.33H386.658Z" fill="#474747"/>
<path d="M390.173 123.182V129H388.593V123.182H390.173Z" fill="#474747"/>
<path d="M392.433 129H390.728L392.648 123.182H394.808L396.728 129H395.023L393.751 124.784H393.705L392.433 129ZM392.114 126.705H395.319V127.886H392.114V126.705Z" fill="#474747"/>
<path d="M402.322 123.182V129H401.004L398.902 125.943H398.868V129H397.288V123.182H398.629L400.697 126.227H400.743V123.182H402.322Z" fill="#474747"/>
<path d="M408.706 126.091C408.706 126.739 408.58 127.285 408.328 127.73C408.076 128.173 407.736 128.509 407.308 128.739C406.88 128.966 406.403 129.08 405.876 129.08C405.346 129.08 404.867 128.965 404.439 128.736C404.013 128.505 403.674 128.168 403.422 127.724C403.172 127.279 403.047 126.735 403.047 126.091C403.047 125.443 403.172 124.898 403.422 124.455C403.674 124.009 404.013 123.673 404.439 123.446C404.867 123.217 405.346 123.102 405.876 123.102C406.403 123.102 406.88 123.217 407.308 123.446C407.736 123.673 408.076 124.009 408.328 124.455C408.58 124.898 408.706 125.443 408.706 126.091ZM407.081 126.091C407.081 125.742 407.035 125.449 406.942 125.21C406.851 124.97 406.715 124.788 406.536 124.665C406.357 124.54 406.138 124.477 405.876 124.477C405.615 124.477 405.394 124.54 405.214 124.665C405.036 124.788 404.901 124.97 404.808 125.21C404.717 125.449 404.672 125.742 404.672 126.091C404.672 126.439 404.717 126.734 404.808 126.974C404.901 127.213 405.036 127.395 405.214 127.52C405.394 127.643 405.615 127.705 405.876 127.705C406.138 127.705 406.357 127.643 406.536 127.52C406.715 127.395 406.851 127.213 406.942 126.974C407.035 126.734 407.081 126.439 407.081 126.091Z" fill="#474747"/>
<path d="M412.573 125C412.558 124.811 412.487 124.663 412.36 124.557C412.235 124.451 412.045 124.398 411.789 124.398C411.626 124.398 411.493 124.418 411.388 124.457C411.286 124.495 411.21 124.547 411.161 124.614C411.112 124.68 411.086 124.756 411.085 124.841C411.081 124.911 411.093 124.974 411.121 125.031C411.152 125.086 411.199 125.136 411.263 125.182C411.328 125.225 411.41 125.265 411.511 125.301C411.611 125.337 411.73 125.369 411.869 125.398L412.346 125.5C412.668 125.568 412.943 125.658 413.173 125.77C413.402 125.882 413.589 126.013 413.735 126.165C413.881 126.314 413.988 126.483 414.056 126.67C414.126 126.858 414.162 127.063 414.164 127.284C414.162 127.667 414.067 127.991 413.877 128.256C413.688 128.521 413.417 128.723 413.065 128.861C412.714 128.999 412.293 129.068 411.8 129.068C411.295 129.068 410.853 128.993 410.477 128.844C410.102 128.694 409.81 128.464 409.602 128.153C409.395 127.841 409.291 127.441 409.289 126.955H410.789C410.799 127.133 410.843 127.282 410.923 127.403C411.002 127.525 411.114 127.616 411.258 127.679C411.404 127.741 411.577 127.773 411.778 127.773C411.946 127.773 412.087 127.752 412.201 127.71C412.315 127.669 412.401 127.611 412.46 127.537C412.518 127.463 412.549 127.379 412.55 127.284C412.549 127.195 412.519 127.117 412.462 127.051C412.407 126.983 412.317 126.922 412.19 126.869C412.063 126.814 411.891 126.763 411.675 126.716L411.096 126.591C410.581 126.479 410.174 126.293 409.877 126.031C409.582 125.768 409.435 125.409 409.437 124.955C409.435 124.585 409.533 124.262 409.732 123.986C409.933 123.707 410.21 123.491 410.565 123.335C410.921 123.18 411.329 123.102 411.789 123.102C412.259 123.102 412.665 123.181 413.008 123.338C413.351 123.495 413.615 123.717 413.8 124.003C413.988 124.287 414.083 124.619 414.085 125H412.573Z" fill="#474747"/>
<defs>
<clipPath id="clip0_29_2">
<rect width="142" height="46" fill="white" transform="translate(172 64)"/>
</clipPath>
</defs>
</svg>
