<svg width="437" height="343" viewBox="0 0 437 343" fill="none" xmlns="http://www.w3.org/2000/svg">
<path d="M332.855 215.928C332.685 215.928 332.515 215.919 332.345 215.908C332.845 212.969 333.365 210.019 334.055 207.059C334.715 209.908 335.225 212.739 335.705 215.579C334.771 215.8 333.815 215.918 332.855 215.928Z" fill="#113E71"/>
<path d="M336.075 217.749C336.055 219.449 336.055 221.149 336.055 222.849C336.055 224.708 336.065 226.579 336.055 228.439V281.869C335.445 285.439 334.855 288.999 334.055 292.559C333.255 288.999 332.665 285.439 332.055 281.869V223.099C332.055 221.319 332.055 219.529 332.035 217.749C332.105 217.349 332.165 216.959 332.235 216.559C333.439 216.7 334.657 216.677 335.855 216.489C335.935 216.908 336.005 217.329 336.075 217.749Z" fill="#113E71"/>
<path d="M268.205 127.388C268.205 127.388 268.415 127.759 268.825 128.339L268.805 128.359L265.865 131.509C264.665 132.359 263.465 133.209 262.175 133.969C262.855 132.638 263.625 131.388 264.385 130.129L266.615 127.759C267.585 127.559 268.205 127.388 268.205 127.388Z" fill="#113E71"/>
<path d="M285.775 108.789C285.085 110.109 284.315 111.369 283.555 112.619L280.605 115.769L280.065 116.339C279.346 116.098 278.611 115.908 277.865 115.769L279.145 114.399L282.095 111.249C283.295 110.408 284.495 109.569 285.775 108.789Z" fill="#113E71"/>
<path d="M318.463 133.015C318.618 132.668 318.857 132.366 319.158 132.134C319.383 131.964 319.647 131.854 319.927 131.813C320.206 131.775 320.49 131.809 320.751 131.914C321.102 132.054 321.411 132.281 321.65 132.574H321.653L321.665 132.593L321.653 132.611L321.655 132.611C321.5 132.956 321.261 133.256 320.959 133.483C320.733 133.651 320.468 133.759 320.189 133.794C319.909 133.828 319.625 133.79 319.363 133.685C319.012 133.539 318.703 133.309 318.463 133.015Z" fill="#113E71"/>
<path d="M277.728 138.426L255.847 141.13C248.553 142.026 241.256 142.897 233.957 143.744C219.356 145.422 204.766 147.198 190.154 148.78L146.333 153.64L102.487 158.27L102.481 158.27C102.36 158.282 102.238 158.27 102.122 158.233C95.8709 156.207 89.6128 154.202 83.379 152.122L64.6604 145.934C58.4168 143.884 52.1834 141.802 45.9603 139.689L27.29 133.35L46.1707 139.031C52.4639 140.926 58.7474 142.851 65.0212 144.807L83.8535 150.639C90.1365 152.566 96.3955 154.568 102.661 156.549L102.297 156.512L146.119 151.66L189.966 147.037C204.577 145.458 219.21 144.073 233.832 142.59C241.142 141.846 248.457 141.137 255.775 140.463L277.728 138.426Z" fill="#113E71"/>
<path d="M27.2871 142.668C33.4829 144.825 39.6397 147.084 45.8149 149.295L64.2783 156.09L73.5061 159.498L82.7041 162.983L101.1 169.952L100.631 169.896C109.397 168.712 118.182 167.665 126.96 166.565L153.299 163.314L179.662 160.242C188.457 159.278 197.247 158.275 206.052 157.388C197.307 158.745 188.548 159.987 179.793 161.268L153.506 164.93L127.197 168.415C118.425 169.56 109.659 170.758 100.876 171.818L100.865 171.82C100.71 171.838 100.552 171.818 100.406 171.762L82.0694 164.637L72.9009 161.075L63.762 157.436L45.4922 150.136C39.4231 147.648 33.3354 145.209 27.2871 142.668Z" fill="#113E71"/>
<path d="M100.008 260.413C99.8207 251.818 99.7603 243.227 99.8271 234.639C99.8662 226.049 100.022 217.463 100.201 208.877C100.417 200.292 100.658 191.708 101.016 183.126C101.345 174.543 101.803 165.964 102.391 157.388C102.581 165.982 102.643 174.573 102.576 183.162C102.536 191.751 102.38 200.337 102.199 208.923C101.98 217.508 101.739 226.093 101.381 234.675C101.051 243.257 100.594 251.836 100.008 260.413Z" fill="#113E71"/>
<path d="M368.237 64.8247C367.006 64.2747 365.877 63.5217 364.896 62.5971C363.924 61.645 363.084 60.5677 362.396 59.3937C361.721 58.2134 361.163 56.9703 360.729 55.6818C360.292 54.3797 359.976 53.0398 359.787 51.6794C359.778 51.6171 359.78 51.5539 359.791 51.4921L359.813 51.3798C360.121 49.982 360.28 48.5552 360.286 47.1237C360.296 45.6984 360.146 44.2764 359.837 42.8847C359.224 40.111 358.072 37.485 356.445 35.1562L356.554 35.2717C354.824 33.6177 352.897 32.1825 350.817 30.9985C348.706 29.8396 346.413 29.0472 344.037 28.6547C339.161 28.039 334.216 29.0102 329.936 31.4245C328.86 32.0003 327.822 32.6452 326.83 33.3552C326.335 33.7087 325.849 34.0747 325.382 34.4558C325.163 34.6369 324.887 34.862 324.741 35.0146C324.555 35.2151 324.364 35.4489 324.18 35.6758C322.749 37.5825 321.671 39.7305 320.998 42.0178C320.321 44.2935 319.965 46.6528 319.942 49.027C319.966 51.4092 320.252 53.7814 320.794 56.1012C320.829 56.267 320.832 56.438 320.803 56.6049C320.576 57.8554 320.332 59.0785 320.055 60.3144C319.791 61.5733 319.456 62.8163 319.052 64.0378C318.864 64.6096 318.415 65.6078 318.516 65.4001C318.474 65.3285 318.539 65.5161 318.892 65.7621C319.693 66.25 320.609 66.5201 321.547 66.5456L321.642 66.5419C321.852 66.5346 322.06 66.5788 322.249 66.6706C322.438 66.7624 322.601 66.899 322.725 67.0685C324.127 69.0085 325.608 70.9215 327.079 72.8163C328.512 74.6978 330.067 76.4832 331.733 78.1611C331.939 78.3483 332.145 78.5248 332.346 78.6784C332.441 78.7455 332.542 78.8176 332.625 78.8671L332.736 78.9291C332.769 78.9469 332.762 78.9345 332.774 78.9489C332.814 78.9709 332.687 78.9276 332.653 78.9628C332.622 78.9814 332.752 78.9423 332.794 78.9352C332.924 78.9077 333.054 78.8735 333.181 78.8327C333.444 78.7594 333.717 78.663 333.986 78.5719C335.081 78.1686 336.142 77.678 337.158 77.1049C339.239 76.0343 341.03 74.4759 342.378 72.5629L342.411 72.5126C342.438 72.4704 342.473 72.4339 342.515 72.4053C342.556 72.3767 342.602 72.3565 342.651 72.3458C342.7 72.3352 342.751 72.3343 342.8 72.3432C342.85 72.3522 342.897 72.3707 342.939 72.3979L342.981 72.4287C343.579 72.9349 344.136 73.4886 344.646 74.0842C344.904 74.382 345.136 74.7024 345.337 75.0415C345.555 75.3817 345.704 75.7611 345.777 76.1584C345.782 76.1892 345.774 76.2206 345.757 76.2463C345.739 76.2719 345.713 76.2901 345.682 76.2971C345.652 76.3042 345.62 76.2995 345.593 76.2842C345.566 76.2689 345.546 76.2439 345.536 76.2143L345.534 76.207C345.249 75.5314 344.805 74.9344 344.241 74.4667C343.697 73.9607 343.113 73.4989 342.495 73.0856L343.097 72.9514C341.89 75.1869 340.121 77.0687 337.964 78.4106C336.915 79.1116 335.812 79.7267 334.665 80.2502C334.368 80.3752 334.079 80.508 333.763 80.6152C333.611 80.6731 333.451 80.7268 333.279 80.7746C333.181 80.8079 333.081 80.8334 332.979 80.8508C332.789 80.8806 332.596 80.8781 332.407 80.8432C331.98 80.7439 331.576 80.5628 331.217 80.31C330.923 80.1132 330.657 79.9094 330.401 79.7031C328.538 78.0534 326.808 76.2595 325.226 74.3381C323.622 72.4814 322.125 70.5656 320.628 68.6162L321.806 69.1386C321.022 69.1879 320.235 69.1026 319.48 68.8864C318.736 68.6954 318.03 68.3798 317.392 67.9531C317 67.6939 316.659 67.3655 316.385 66.9841C316.029 66.4994 315.847 65.9088 315.869 65.3078C315.876 65.0142 315.935 64.7243 316.044 64.4516L316.185 64.0986L316.261 63.9289C316.364 63.7116 316.462 63.4348 316.556 63.1706C317.291 60.863 317.9 58.5172 318.38 56.1435L318.389 56.6467C317.873 54.1226 317.638 51.549 317.688 48.9731C317.792 46.3855 318.299 43.8301 319.191 41.3991C319.41 40.7924 319.688 40.2067 319.946 39.6174C320.256 39.05 320.515 38.4604 320.867 37.9177C321.517 36.8025 322.279 35.7566 323.141 34.7961C323.364 34.5561 323.579 34.3222 323.832 34.0846C324.087 33.8662 324.353 33.6613 324.63 33.4706C325.148 33.1017 325.677 32.7553 326.213 32.4233C327.285 31.7565 328.403 31.1777 329.53 30.624C334.054 28.348 339.102 27.3159 344.156 27.6335C346.708 27.8478 349.206 28.4879 351.546 29.5273C353.89 30.5843 356.063 31.987 357.991 33.6887C358.028 33.7206 358.062 33.7557 358.092 33.7934L358.101 33.8044C359.089 35.0686 359.91 36.4542 360.546 37.9272C361.188 39.3744 361.661 40.8911 361.954 42.447C362.276 43.9996 362.399 45.587 362.318 47.1706C362.248 48.7482 362.002 50.313 361.584 51.8359L361.61 51.5368C361.705 52.7865 361.914 54.0249 362.234 55.2368C362.543 56.4664 362.963 57.6656 363.488 58.8198C364.021 59.9725 364.693 61.0554 365.489 62.0442C366.312 63.0342 367.276 63.8969 368.352 64.6045L368.359 64.6099C368.385 64.6275 368.403 64.6541 368.41 64.6844C368.417 64.7147 368.412 64.7465 368.397 64.7736C368.381 64.8006 368.356 64.8208 368.327 64.8303C368.297 64.8397 368.265 64.8378 368.237 64.8247L368.237 64.8247Z" fill="#113E71"/>
<path d="M323.019 63.4241C322.803 63.4244 322.591 63.3683 322.403 63.2612C322.215 63.1541 322.059 62.9999 321.949 62.8137L318.524 57.0051C318.44 56.8647 318.385 56.7093 318.362 56.5477C318.339 56.3861 318.348 56.2215 318.388 56.0633C318.429 55.9052 318.5 55.7566 318.598 55.6261C318.696 55.4955 318.819 55.3856 318.96 55.3027C319.1 55.2197 319.256 55.1652 319.418 55.1425C319.579 55.1197 319.744 55.1291 319.902 55.17C320.06 55.211 320.208 55.2827 320.339 55.3811C320.469 55.4795 320.579 55.6026 320.661 55.7434L324.087 61.552C324.198 61.7404 324.258 61.9549 324.259 62.1737C324.261 62.3925 324.205 62.6079 324.096 62.7979C323.988 62.988 323.831 63.146 323.642 63.256C323.453 63.366 323.238 63.4239 323.019 63.4241Z" fill="#113E71"/>
<path d="M320.344 58.2698C320.212 58.2696 320.083 58.2274 319.977 58.1492C319.871 58.0711 319.792 57.961 319.752 57.8351C319.713 57.7091 319.714 57.5739 319.757 57.4488C319.799 57.3238 319.88 57.2156 319.989 57.1399C321.789 55.884 337.686 44.8948 341.067 45.0305C341.148 45.0343 341.228 45.054 341.302 45.0886C341.376 45.1232 341.442 45.172 341.497 45.2322C341.552 45.2924 341.594 45.3628 341.622 45.4395C341.65 45.5162 341.662 45.5975 341.658 45.679C341.649 45.8426 341.575 45.996 341.454 46.1065C341.333 46.217 341.174 46.276 341.01 46.2708C340.995 46.2698 340.979 46.2698 340.963 46.2698C338.62 46.2698 327.321 53.5393 320.698 58.1575C320.595 58.2303 320.471 58.2695 320.344 58.2698Z" fill="#113E71"/>
<path d="M339.252 48.6294C339.23 47.7027 339.528 46.7968 340.096 46.064C340.267 45.8648 340.477 45.702 340.712 45.5852C340.948 45.4684 341.204 45.3999 341.466 45.3838L341.866 45.3774C341.994 45.3921 342.113 45.429 342.238 45.4556C342.481 45.5026 342.717 45.5851 342.937 45.7004C343.368 45.8977 343.776 46.1431 344.152 46.4319C344.495 46.7349 344.857 47.0105 345.186 47.3418C345.843 48.0123 346.385 48.786 346.792 49.6321C347.569 51.3349 347.789 53.2395 347.421 55.0747C347.254 55.9876 346.9 56.856 346.382 57.6255C346.116 58.025 345.75 58.3478 345.32 58.562C345.106 58.6704 344.862 58.7045 344.626 58.6589C344.391 58.6133 344.177 58.4907 344.018 58.3103C344.189 58.4212 344.39 58.4761 344.593 58.4673C344.797 58.4586 344.992 58.3866 345.153 58.2615C345.462 58.007 345.705 57.6808 345.859 57.3113C346.195 56.5581 346.4 55.7529 346.464 54.9307C346.623 53.2973 346.349 51.6507 345.668 50.1572C345.33 49.423 344.881 48.7454 344.336 48.1482C344.071 47.8416 343.753 47.566 343.463 47.2698C343.161 47.0098 342.84 46.7732 342.502 46.562C342.224 46.334 341.879 46.2045 341.519 46.1936C341.16 46.1827 340.807 46.291 340.515 46.5017C339.905 47.0802 339.468 47.8168 339.252 48.6294Z" fill="#113E71"/>
<path d="M324.175 71.5571C325.126 71.4517 326.067 71.2742 326.991 71.0264C327.414 70.9084 327.825 70.7479 328.216 70.5471C328.638 70.3557 329.031 70.0864 329.545 69.8257C329.461 70.3872 329.203 70.9081 328.807 71.3147C328.411 71.742 327.906 72.0532 327.346 72.2148C326.796 72.3759 326.216 72.4034 325.654 72.2949C325.098 72.2008 324.584 71.944 324.175 71.5571Z" fill="#113E71"/>
<path d="M320.344 53.9556C320.3 53.105 320.578 52.269 321.123 51.6145C321.665 50.9402 322.379 50.4249 323.189 50.1233C323.975 49.8344 324.809 49.7009 325.645 49.7305C326.05 49.7607 326.453 49.8126 326.853 49.886C327.246 49.9869 327.631 50.1144 328.007 50.2676C327.622 50.3665 327.231 50.4426 326.837 50.4954C326.456 50.5649 326.085 50.6477 325.716 50.6963C325.008 50.8353 324.312 51.0307 323.635 51.2808C322.262 51.7659 321.1 52.711 320.344 53.9556Z" fill="#113E71"/>
<path d="M325.549 59.2597C325.911 59.2472 326.254 59.0946 326.506 58.8341C326.757 58.5737 326.898 58.2256 326.898 57.8634C326.898 57.5013 326.757 57.1532 326.506 56.8928C326.254 56.6323 325.911 56.4797 325.549 56.4672C325.187 56.4797 324.844 56.6323 324.592 56.8928C324.341 57.1532 324.2 57.5013 324.2 57.8634C324.2 58.2256 324.341 58.5737 324.592 58.8341C324.844 59.0946 325.187 59.2472 325.549 59.2597Z" fill="#113E71"/>
<path d="M353.699 94.6509C352.279 93.468 350.668 92.5358 348.935 91.8941C347.225 91.2531 345.451 90.7994 343.644 90.5408C341.826 90.2675 339.991 90.1165 338.153 90.0889L335.366 90.1019C334.435 90.1443 333.501 90.1907 332.55 90.1829C333.455 89.919 334.377 89.7093 335.302 89.4959C336.235 89.3543 337.175 89.2112 338.121 89.1209C340.027 88.9681 341.944 89.0333 343.835 89.3153C345.743 89.5945 347.595 90.1671 349.327 91.0128C351.073 91.8292 352.579 93.0823 353.699 94.6509Z" fill="#113E71"/>
<path d="M284.049 145.568C284.579 143.809 285.284 142.108 286.152 140.489C286.999 138.851 287.991 137.293 289.116 135.831C290.234 134.344 291.54 133.009 293.003 131.859C294.45 130.678 296.164 129.869 297.996 129.502C296.391 130.304 294.919 131.348 293.631 132.596C292.347 133.829 291.165 135.164 290.098 136.589C287.895 139.409 286.011 142.478 284.049 145.568Z" fill="#113E71"/>
<path d="M328.006 164.652C328.565 164.793 329.146 164.823 329.716 164.738C330.282 164.675 330.839 164.549 331.377 164.361L332.17 164.048C332.43 163.937 332.674 163.783 332.925 163.653C333.425 163.384 333.904 163.076 334.356 162.732C336.172 161.353 337.789 159.729 339.161 157.907C339.825 156.976 340.5 156.052 341.136 155.102C341.732 154.122 342.372 153.172 342.931 152.17L344.595 149.155L346.111 146.056C348.115 141.891 350.074 137.681 352.146 133.539L355.247 127.32C356.321 125.267 357.357 123.196 358.464 121.162C357.609 123.322 356.682 125.446 355.793 127.588L353.006 133.953C351.137 138.194 349.218 142.396 347.231 146.59C345.294 150.851 342.831 154.854 339.9 158.504C338.395 160.317 336.642 161.91 334.693 163.234C334.195 163.553 333.673 163.833 333.132 164.07C332.86 164.184 332.598 164.321 332.318 164.416L331.471 164.674C330.34 165.017 329.132 165.009 328.006 164.652Z" fill="#113E71"/>
<path d="M326.86 136.677C326.785 136.677 326.712 136.664 326.642 136.637L321.087 134.551C320.933 134.493 320.809 134.376 320.742 134.226C320.674 134.077 320.668 133.906 320.726 133.753C320.784 133.599 320.9 133.474 321.05 133.406C321.199 133.338 321.369 133.332 321.523 133.389L327.078 135.475C327.214 135.526 327.328 135.623 327.4 135.75C327.471 135.876 327.496 136.024 327.47 136.167C327.445 136.31 327.369 136.439 327.258 136.533C327.146 136.626 327.005 136.677 326.86 136.677V136.677Z" fill="#113E71"/>
<path d="M281.236 135.131C279.9 135.548 278.485 135.641 277.106 135.404C275.706 135.15 274.366 134.638 273.153 133.896C271.95 133.163 270.842 132.282 269.855 131.276C268.867 130.259 267.989 129.14 267.237 127.938L268.499 128.462C265.936 129.12 263.292 129.405 260.648 129.31C259.295 129.289 257.954 129.061 256.67 128.635C255.984 128.403 255.377 127.984 254.916 127.426C254.676 127.139 254.494 126.81 254.378 126.454C254.293 126.08 254.293 125.691 254.378 125.316C254.564 124.63 254.926 124.005 255.429 123.503C255.875 123.007 256.366 122.551 256.894 122.142C257.916 121.32 258.992 120.567 260.114 119.887C262.323 118.519 264.626 117.309 267.005 116.263C268.203 115.772 269.325 115.199 270.701 114.777C272.042 114.368 273.433 114.151 274.835 114.131C276.22 114.125 277.599 114.311 278.933 114.682C280.253 115.011 281.535 115.474 282.761 116.063C285.148 117.229 287.361 118.725 289.335 120.504C291.301 122.223 293.046 124.18 294.53 126.328C294.547 126.353 294.554 126.384 294.551 126.414C294.547 126.444 294.533 126.471 294.511 126.492C294.488 126.512 294.459 126.523 294.429 126.524C294.399 126.524 294.369 126.513 294.346 126.494L294.34 126.489C290.612 123.111 286.365 120.355 281.762 118.325C280.653 117.852 279.5 117.492 278.319 117.25C277.178 116.942 276.003 116.781 274.821 116.77C273.655 116.733 272.49 116.856 271.357 117.134C270.261 117.399 269.051 117.92 267.856 118.342C265.482 119.248 263.091 120.109 260.773 121.123C259.625 121.636 258.514 122.227 257.449 122.893C256.936 123.233 256.457 123.62 256.016 124.048C255.593 124.439 255.282 124.934 255.112 125.483C255.044 125.738 255.047 126.007 255.12 126.261C255.194 126.514 255.335 126.743 255.529 126.922C255.904 127.346 256.406 127.637 256.961 127.752C258.157 127.996 259.387 128.028 260.595 127.848C263.058 127.464 265.5 126.952 267.911 126.315C268.149 126.26 268.399 126.281 268.626 126.375C268.852 126.469 269.044 126.631 269.173 126.839C269.825 127.904 270.57 128.91 271.398 129.844C272.218 130.8 273.134 131.67 274.131 132.439C275.122 133.208 276.224 133.821 277.4 134.256C278.616 134.694 279.902 134.907 281.194 134.886C281.227 134.885 281.259 134.898 281.284 134.921C281.308 134.944 281.322 134.975 281.322 135.009C281.322 135.036 281.314 135.062 281.299 135.084C281.283 135.105 281.261 135.122 281.236 135.131Z" fill="#113E71"/>
<path d="M302.224 222.416L305.011 229.226C305.024 229.257 305.027 229.292 305.021 229.325C305.015 229.358 304.999 229.389 304.976 229.413C304.952 229.438 304.922 229.455 304.889 229.463C304.856 229.47 304.822 229.468 304.79 229.457L304.779 229.453C303.38 228.907 301.915 228.55 300.422 228.391C298.937 228.266 297.441 228.378 295.991 228.721C293.108 229.533 290.489 231.089 288.397 233.233C286.279 235.365 284.45 237.767 282.958 240.376C281.427 242.964 280.139 245.69 279.11 248.517L279.108 248.523C279.073 248.62 279.01 248.703 278.926 248.763C278.842 248.822 278.742 248.855 278.64 248.856C278.537 248.857 278.436 248.827 278.351 248.77C278.266 248.712 278.201 248.63 278.164 248.534L272.753 234.553L267.432 220.538L268.42 220.299L270.324 239.681C270.94 246.143 271.609 252.6 272.283 259.056C272.287 259.099 272.278 259.142 272.257 259.179C270.794 261.48 268.582 263.204 265.994 264.062C263.459 264.935 260.809 265.43 258.129 265.532C255.463 265.659 252.791 265.597 250.134 265.346C247.474 265.107 244.831 264.711 242.218 264.16C242.156 264.147 242.099 264.115 242.055 264.069C242.012 264.023 241.983 263.964 241.973 263.901L241.972 263.893C240.451 254.09 239.175 244.256 238.142 234.391C237.139 224.523 236.373 214.624 236.117 204.691C236.096 202.206 236.073 199.721 236.108 197.235L236.233 193.505L236.302 191.64L236.455 189.776L236.77 186.048L237.334 182.335C237.53 181.094 237.802 179.867 238.148 178.66C238.307 178.052 238.446 177.438 238.621 176.835L239.284 175.062L239.957 173.293C240.235 172.726 240.541 172.171 240.832 171.61C241.135 171.055 241.406 170.482 241.734 169.942L242.826 168.385C243.561 167.351 244.381 166.381 245.278 165.485C245.728 165.037 246.204 164.616 246.702 164.224C247.171 163.796 247.675 163.409 248.209 163.066L249.805 162.032L251.508 161.186C252.079 160.915 252.667 160.678 253.267 160.478C253.856 160.248 254.461 160.06 255.076 159.915C257.523 159.245 260.067 159.002 262.596 159.197L262.189 159.429C262.719 158.288 263.374 157.211 264.143 156.216C264.932 155.241 265.823 154.355 266.802 153.572C268.787 152.063 271.021 150.915 273.403 150.178C275.763 149.451 278.197 148.986 280.659 148.792C283.109 148.578 285.574 148.585 288.023 148.815C288.04 148.816 288.055 148.824 288.065 148.837C288.076 148.85 288.081 148.866 288.079 148.882C288.077 148.899 288.069 148.914 288.056 148.924C288.043 148.934 288.027 148.939 288.01 148.938C285.57 148.781 283.121 148.845 280.693 149.129C278.27 149.39 275.884 149.918 273.577 150.703C271.278 151.457 269.127 152.605 267.221 154.097C266.297 154.86 265.458 155.721 264.718 156.664C264.002 157.621 263.395 158.655 262.908 159.746C262.875 159.819 262.82 159.88 262.752 159.922C262.683 159.963 262.604 159.983 262.523 159.979L262.501 159.978C257.621 159.703 252.79 161.085 248.793 163.899C244.893 166.824 241.981 170.871 240.448 175.499L239.812 177.208C239.644 177.793 239.511 178.39 239.359 178.98C239.025 180.155 238.764 181.349 238.576 182.556L238.033 186.192L237.733 189.871L237.587 191.711L237.523 193.559L237.41 197.257C237.377 199.725 237.42 202.195 237.428 204.665C237.61 214.548 238.321 224.428 239.233 234.284C240.127 244.143 241.255 253.98 242.615 263.794L242.368 263.528C244.946 264.113 247.556 264.546 250.185 264.825C252.814 265.123 255.463 265.212 258.106 265.093C260.744 265.008 263.356 264.537 265.858 263.693C268.369 262.889 270.513 261.217 271.904 258.977L271.878 259.1C271.163 252.648 270.444 246.196 269.671 239.751L267.401 220.409C267.386 220.285 267.418 220.161 267.488 220.058C267.559 219.956 267.665 219.883 267.786 219.853C267.907 219.823 268.035 219.838 268.145 219.895C268.256 219.953 268.341 220.048 268.387 220.164L268.389 220.171L273.794 234.154L279.104 248.174L278.158 248.192C279.229 245.308 280.566 242.53 282.153 239.895C283.719 237.239 285.637 234.807 287.855 232.665C290.075 230.476 292.831 228.908 295.848 228.121C297.367 227.79 298.931 227.715 300.475 227.899C302.002 228.109 303.495 228.523 304.914 229.127L304.683 229.354L302.108 222.462C302.103 222.447 302.103 222.43 302.11 222.415C302.116 222.4 302.129 222.388 302.144 222.382C302.159 222.376 302.176 222.377 302.191 222.383C302.206 222.389 302.218 222.401 302.224 222.416H302.224Z" fill="#113E71"/>
<path d="M267.911 220.354L269.016 230.581L262.177 191.795L269.648 224.884L267.911 220.354Z" fill="#113E71"/>
<path d="M318.57 165.731C304.771 165.731 264.392 160.456 262.468 160.203C262.387 160.193 262.309 160.167 262.238 160.126C262.168 160.086 262.106 160.031 262.056 159.967C262.006 159.902 261.969 159.828 261.948 159.749C261.927 159.671 261.921 159.588 261.932 159.507C261.943 159.426 261.969 159.348 262.01 159.278C262.051 159.207 262.105 159.145 262.17 159.095C262.235 159.046 262.309 159.009 262.387 158.988C262.466 158.967 262.549 158.962 262.63 158.973C263.158 159.041 315.582 165.886 322.11 164.25C322.189 164.23 322.271 164.226 322.352 164.237C322.433 164.249 322.51 164.276 322.58 164.318C322.651 164.36 322.712 164.415 322.761 164.481C322.809 164.546 322.845 164.621 322.865 164.7C322.885 164.779 322.889 164.861 322.877 164.942C322.865 165.023 322.837 165.101 322.795 165.171C322.753 165.241 322.697 165.302 322.632 165.35C322.566 165.399 322.492 165.434 322.412 165.453C321.145 165.682 319.857 165.775 318.57 165.731Z" fill="#113E71"/>
<path d="M412.675 97.6287C412.675 97.6287 367.995 87.2085 356.975 140.529C345.955 193.839 343.145 189.969 343.145 189.969C323.035 219.119 283.815 201.239 274.915 196.649C273.904 196.101 272.751 195.874 271.608 195.997C270.465 196.12 269.386 196.588 268.515 197.339C266.125 199.529 266.495 203.069 266.495 203.069L266.665 207.079C266.696 207.725 266.865 208.357 267.162 208.931C267.459 209.506 267.876 210.01 268.385 210.408C282.885 221.928 308.695 224.319 332.055 223.099C333.395 223.029 334.735 222.949 336.055 222.849C356.245 221.439 373.955 217.479 379.915 214.698C393.315 208.439 397.185 211.119 418.035 156.009C438.895 100.908 412.675 97.6287 412.675 97.6287ZM421.565 112.319L421.555 112.309C415.696 109.116 408.951 107.935 402.355 108.949C395.875 110.039 390.205 113.829 385.865 118.699C383.677 121.161 381.728 123.827 380.045 126.659C378.324 129.5 376.794 132.453 375.465 135.499C372.845 141.649 370.656 147.974 368.915 154.429C368.065 157.669 367.175 160.919 366.415 164.199C366.015 165.839 365.545 167.459 365.125 169.089C364.705 170.719 364.255 172.339 363.795 173.959C362.097 180.501 359.989 186.93 357.485 193.209C356.855 194.779 356.095 196.299 355.365 197.829C354.545 199.329 353.795 200.849 352.865 202.279C351.11 205.229 349.012 207.962 346.615 210.419C344.211 212.931 341.247 214.84 337.965 215.989C337.277 216.212 336.571 216.379 335.855 216.489C334.658 216.677 333.44 216.7 332.235 216.559C330.72 216.373 329.262 215.868 327.955 215.079C327.944 215.072 327.934 215.063 327.926 215.052C327.918 215.041 327.913 215.028 327.91 215.015C327.907 215.002 327.907 214.989 327.91 214.975C327.912 214.962 327.918 214.95 327.925 214.939C327.937 214.919 327.956 214.904 327.978 214.896C328 214.889 328.024 214.89 328.045 214.899L328.055 214.909C329.403 215.528 330.862 215.868 332.345 215.909C332.515 215.919 332.685 215.929 332.856 215.929C333.815 215.918 334.771 215.8 335.705 215.579C336.357 215.425 336.998 215.231 337.626 214.999C340.643 213.727 343.336 211.792 345.505 209.339C347.727 206.895 349.685 204.224 351.345 201.369C352.225 199.959 352.975 198.469 353.775 197.019C354.485 195.509 355.305 194.059 355.965 192.529C358.82 186.463 361.226 180.196 363.165 173.779C364.165 170.569 364.935 167.299 365.725 164.039C366.485 160.759 367.115 157.469 367.856 154.169C369.231 147.536 371.199 141.04 373.735 134.759C376.239 128.374 379.806 122.461 384.285 117.269C386.607 114.687 389.32 112.487 392.325 110.749C395.349 109.018 398.675 107.881 402.126 107.399C408.994 106.621 415.916 108.3 421.665 112.138C421.677 112.146 421.686 112.155 421.694 112.166C421.702 112.177 421.707 112.189 421.71 112.202C421.713 112.215 421.713 112.229 421.71 112.242C421.708 112.255 421.703 112.267 421.695 112.279C421.681 112.299 421.661 112.314 421.637 112.321C421.614 112.329 421.588 112.328 421.565 112.319H421.565Z" fill="#113E71"/>
<path d="M377.652 291.896C377.631 292.923 377.307 293.921 376.719 294.763C376.141 295.593 375.444 296.332 374.649 296.957C373.068 298.198 371.344 299.245 369.514 300.074C365.859 301.74 362.048 303.039 358.137 303.95C350.324 305.804 342.303 306.637 334.275 306.43C326.275 306.222 318.312 305.268 310.489 303.581C306.564 302.787 302.719 301.644 298.998 300.164C297.111 299.409 295.324 298.428 293.674 297.241C292.821 296.622 292.069 295.873 291.446 295.022C290.776 294.112 290.392 293.024 290.343 291.896C290.343 290.752 290.682 289.635 291.316 288.683C291.91 287.784 292.64 286.982 293.479 286.306C295.09 285.004 296.871 283.929 298.774 283.112C302.487 281.489 306.363 280.265 310.335 279.461C318.208 277.821 326.233 277.019 334.275 277.071C342.312 277.034 350.325 277.952 358.145 279.805C362.055 280.728 365.866 282.033 369.522 283.699C371.353 284.531 373.078 285.58 374.658 286.825C375.452 287.451 376.149 288.193 376.725 289.025C377.311 289.869 377.634 290.868 377.652 291.896ZM377.404 291.896C377.369 289.916 375.963 288.271 374.428 287.112C372.839 285.949 371.095 285.013 369.247 284.332C365.548 282.965 361.717 281.985 357.817 281.405C350.025 280.232 342.154 279.668 334.275 279.719C326.406 279.683 318.55 280.362 310.804 281.749C306.964 282.449 303.199 283.51 299.558 284.918C297.78 285.616 296.094 286.527 294.536 287.631C293.046 288.722 291.763 290.2 291.702 291.896C291.65 293.598 292.88 295.213 294.34 296.406C295.859 297.627 297.539 298.631 299.334 299.39C302.967 300.943 306.763 302.084 310.651 302.793C314.54 303.523 318.475 303.989 322.428 304.187C326.375 304.428 330.33 304.451 334.275 304.364C342.159 304.246 350.027 303.597 357.824 302.424C361.725 301.833 365.555 300.846 369.255 299.479C371.104 298.796 372.848 297.858 374.437 296.691C375.971 295.529 377.374 293.876 377.404 291.896Z" fill="#113E71"/>
<path d="M269.826 261.715C270.479 262.908 270.962 264.187 271.26 265.514C271.605 266.824 271.869 268.151 272.096 269.483C272.539 272.148 272.9 274.826 273.151 277.513C273.268 278.87 273.4 280.171 273.465 281.574C273.498 282.992 273.257 284.403 272.755 285.729C272.502 286.398 272.17 287.033 271.766 287.624C271.358 288.194 270.911 288.736 270.429 289.245C269.469 290.262 268.36 291.127 267.141 291.812C264.715 293.139 262.034 293.929 259.277 294.131C257.913 294.25 256.54 294.218 255.184 294.034C254.502 293.952 253.828 293.812 253.169 293.616C252.515 293.414 251.887 293.186 251.25 292.955C246.154 291.104 241.52 288.286 236.508 286.363C231.529 284.379 226.391 282.707 221.457 280.459C218.938 279.38 216.546 278.027 214.322 276.425C213.2 275.585 212.187 274.608 211.309 273.516C210.805 272.901 210.48 272.16 210.368 271.373C210.311 270.969 210.32 270.557 210.396 270.156C210.484 269.768 210.622 269.393 210.806 269.04C211.571 267.764 212.702 266.747 214.051 266.119C215.319 265.488 216.683 265.073 218.088 264.89C218.783 264.797 219.484 264.752 220.185 264.754C220.881 264.783 221.601 264.835 222.237 264.887C223.548 264.998 224.886 264.997 226.22 264.979C231.57 264.871 236.935 264.353 242.284 263.783C242.301 263.781 242.317 263.785 242.33 263.795C242.343 263.805 242.351 263.82 242.353 263.837C242.355 263.852 242.351 263.868 242.342 263.881C242.332 263.893 242.319 263.902 242.303 263.905C237.001 264.922 231.64 265.604 226.252 265.949C224.897 266.005 223.54 266.045 222.165 265.968C221.46 265.93 220.835 265.905 220.187 265.894C219.543 265.91 218.9 265.97 218.264 266.073C217.001 266.275 215.777 266.672 214.636 267.25C213.535 267.772 212.611 268.606 211.981 269.649C211.723 270.135 211.621 270.688 211.687 271.233C211.753 271.779 211.985 272.291 212.351 272.701C213.166 273.705 214.093 274.611 215.114 275.402C217.239 276.98 219.531 278.32 221.947 279.399C226.785 281.684 231.845 283.517 236.775 285.738C239.245 286.829 241.644 288.073 244.044 289.292C246.406 290.566 248.864 291.656 251.395 292.55C252.631 293.039 253.924 293.368 255.243 293.528C256.563 293.646 257.892 293.618 259.206 293.444C261.826 293.133 264.351 292.274 266.616 290.922C267.727 290.254 268.74 289.435 269.625 288.488C270.523 287.577 271.242 286.505 271.742 285.328C272.215 284.137 272.453 282.866 272.444 281.585C272.407 280.299 272.295 278.918 272.202 277.593C271.994 274.917 271.797 272.239 271.452 269.579C271.236 266.912 270.653 264.286 269.719 261.778L269.717 261.772C269.71 261.757 269.709 261.741 269.715 261.726C269.72 261.711 269.731 261.699 269.745 261.692C269.758 261.685 269.775 261.683 269.79 261.687C269.805 261.691 269.818 261.701 269.826 261.715L269.826 261.715Z" fill="#113E71"/>
<path d="M247.18 264.725C247.302 266.159 247.512 267.584 247.808 268.993C248.078 270.381 248.485 271.74 249.025 273.047C249.502 274.302 250.326 275.397 251.401 276.202C251.921 276.551 252.519 276.767 253.142 276.833C253.788 276.882 254.437 276.814 255.059 276.633C256.377 276.242 257.622 275.635 258.742 274.837C259.904 274.076 260.942 273.141 261.82 272.064C263.615 269.85 264.643 267.114 264.749 264.266C265.12 267.233 264.349 270.23 262.591 272.649C260.796 275.098 258.27 276.913 255.376 277.832C254.606 278.043 253.804 278.112 253.009 278.037C252.192 277.945 251.41 277.647 250.739 277.17C249.508 276.207 248.598 274.894 248.129 273.403C247.225 270.605 246.902 267.652 247.18 264.725Z" fill="#113E71"/>
<path d="M225.761 272.557C225.422 271.771 225.307 270.907 225.429 270.06C225.532 269.188 225.845 268.354 226.34 267.629C226.834 266.905 227.493 266.309 228.263 265.891C228.635 265.684 229.028 265.519 229.435 265.398C229.843 265.295 230.258 265.229 230.677 265.201C230.355 265.489 230.017 265.698 229.707 265.943C229.41 266.207 229.084 266.409 228.82 266.684C228.685 266.816 228.546 266.941 228.405 267.06L228.035 267.471C227.787 267.735 227.563 268.021 227.367 268.326C226.538 269.607 225.991 271.049 225.761 272.557Z" fill="#113E71"/>
<path d="M232.464 272.557C232.119 271.785 232.011 270.928 232.154 270.095C232.279 269.258 232.562 268.451 232.989 267.72C233.42 267.004 233.965 266.363 234.602 265.823C234.92 265.562 235.254 265.322 235.603 265.105C235.964 264.906 236.338 264.734 236.724 264.59C236.502 264.927 236.262 265.251 236.005 265.563L235.306 266.489C234.858 267.087 234.442 267.707 234.059 268.348C233.279 269.644 232.738 271.069 232.464 272.557Z" fill="#113E71"/>
<path d="M244.143 295.915C241.819 295.159 239.577 294.169 237.453 292.961C233.829 290.888 227.499 287.326 225.711 286.631C220.077 284.422 213.388 282.139 210.979 278.44C206.872 272.135 210.977 268.879 210.977 268.879C212.277 275.815 220.4 279.706 232.017 284.174C243.634 288.642 245.073 290.752 253.017 293.333C257.236 294.711 266.806 293.892 271.311 287.301C271.632 286.833 271.907 286.334 272.13 285.812L272.955 279.335C279.052 303.515 253.078 298.807 244.143 295.915Z" fill="#113E71"/>
<path d="M280.691 277.346C279.45 276.941 278.368 276.156 277.598 275.102C276.827 274.048 276.408 272.779 276.398 271.473C276.287 269.602 276.776 267.745 277.795 266.171C278.813 264.598 280.307 263.391 282.06 262.727C288.35 260.078 291.329 252.386 292.45 248.578C293.388 245.341 294.84 242.276 296.749 239.499C299.881 234.985 304.795 230.47 310.791 233.695C312.87 234.88 314.447 236.779 315.231 239.039C316.732 243.067 319.139 247.044 312.624 255.906C311.567 257.323 310.425 258.674 309.205 259.953C307.316 261.992 305.837 264.375 304.847 266.972C303.942 269.503 295.081 281.924 280.691 277.346Z" fill="#113E71"/>
<path d="M281.879 241.304C282.507 244.517 282.503 247.821 281.866 251.032C281.265 254.265 280.149 257.38 278.561 260.259C277.768 261.676 276.897 263.047 275.951 264.367C275.531 265.009 275.199 265.704 274.963 266.433C274.756 267.176 274.671 267.946 274.711 268.716C274.708 270.3 274.991 271.872 275.546 273.356C275.79 274.114 276.227 274.795 276.815 275.332C277.402 275.869 278.12 276.243 278.896 276.418C278.074 276.351 277.294 276.026 276.668 275.489C276.05 274.936 275.552 274.263 275.202 273.511C274.51 272.011 274.112 270.392 274.03 268.742C273.956 267.899 274.004 267.05 274.173 266.221C274.367 265.394 274.676 264.598 275.092 263.857C275.943 262.409 276.785 261.135 277.501 259.696C278.975 256.884 280.092 253.9 280.829 250.812C281.603 247.704 281.956 244.506 281.879 241.304Z" fill="#113E71"/>
<path d="M302.191 228.436C302.782 228.474 303.361 228.618 303.901 228.859C304.435 229.084 304.939 229.373 305.402 229.719C305.875 230.071 306.293 230.49 306.643 230.964C307.023 231.443 307.257 232.022 307.317 232.63C306.828 232.258 306.391 231.963 305.956 231.647L304.656 230.71C303.745 230.055 302.917 229.291 302.191 228.436Z" fill="#113E71"/>
<path d="M286.165 147.249C286.167 147.268 286.165 147.287 286.16 147.305C286.155 147.324 286.146 147.341 286.134 147.355C286.121 147.37 286.107 147.383 286.09 147.392C286.073 147.401 286.054 147.407 286.035 147.408L246.125 153.009L207.125 158.309L207.385 201.208L207.505 223.119L207.565 245.029C207.567 245.392 207.437 245.744 207.2 246.019C206.963 246.295 206.635 246.476 206.275 246.529H206.265L153.255 254.289L100.215 261.859H100.205C99.9176 261.9 99.6241 261.851 99.3653 261.718L62.8953 243.529L26.4754 225.239H26.4654C26.2953 225.153 26.1526 225.021 26.0536 224.859C25.9546 224.696 25.9032 224.509 25.9053 224.319L26.4654 178.839C26.6754 163.669 26.6954 148.509 26.8253 133.349C26.8263 133.234 26.8697 133.123 26.9472 133.038C27.0248 132.953 27.131 132.9 27.2454 132.888L56.9153 129.749L58.1453 129.619L58.4153 129.589C58.2554 129.969 58.0953 130.349 57.9453 130.739L57.0752 130.829L27.7554 133.769C27.7654 148.799 27.6653 163.819 27.7554 178.839L27.9554 223.689L64.0455 241.208L100.235 258.908L152.806 251.158L204.535 243.719L204.595 223.119L204.725 201.209L204.995 157.388V157.379C204.996 157.123 205.089 156.876 205.259 156.685C205.428 156.493 205.662 156.37 205.915 156.339L245.945 151.649L286.005 147.119C286.024 147.117 286.044 147.119 286.062 147.124C286.08 147.129 286.097 147.138 286.112 147.151C286.127 147.163 286.139 147.177 286.148 147.194C286.158 147.211 286.163 147.23 286.165 147.249Z" fill="#113E71"/>
<path d="M59.5249 129.469C59.6648 129.829 59.8149 130.189 59.9548 130.539C59.4148 130.589 58.875 130.649 58.335 130.698C58.545 130.309 58.7549 129.919 58.9548 129.529L59.5249 129.469Z" fill="#113E71"/>
<path d="M60.2852 129.388C61.175 129.299 62.0652 129.208 62.9551 129.109C62.7952 129.499 62.635 129.899 62.4751 130.289C61.915 130.339 61.3552 130.399 60.7952 130.458C60.6253 130.099 60.4551 129.749 60.2852 129.388Z" fill="#113E71"/>
<path d="M63.8755 129.489L64.1353 130.119C63.9553 130.138 63.7754 130.158 63.6055 130.178C63.6953 129.948 63.7853 129.719 63.8755 129.489Z" fill="#113E71"/>
<path d="M67.3055 128.638H67.4053L66.9553 129.849C66.3355 129.908 65.7153 129.969 65.1055 130.029L64.6953 128.919C65.5655 128.829 66.4353 128.729 67.3055 128.638Z" fill="#113E71"/>
<path d="M67.9455 129.138L68.1555 129.729C68.0156 129.749 67.8655 129.759 67.7256 129.769L67.9455 129.138Z" fill="#113E71"/>
<path d="M71.7253 128.469L71.3154 129.429L68.7954 129.669L68.4453 128.619C69.5354 128.589 70.6352 128.539 71.7253 128.469Z" fill="#113E71"/>
<path d="M72.0251 128.569L72.3352 129.329C72.1252 129.349 71.9152 129.369 71.7051 129.388L72.0251 128.569Z" fill="#113E71"/>
<path d="M325.205 119.339C325.196 119.375 325.174 119.407 325.142 119.428C325.111 119.448 325.072 119.456 325.035 119.449L299.695 114.099C291.295 112.319 282.905 110.515 274.525 108.689L243.755 112.138L212.865 115.449L181.965 118.749L151.055 121.879C140.745 122.928 130.435 123.888 120.125 124.859L89.185 127.749C84.425 128.189 79.6684 128.635 74.915 129.089C74.145 129.158 73.3752 129.229 72.6052 129.309L72.2852 128.429C73.2051 128.359 74.1252 128.279 75.0551 128.159C74.5051 128.089 73.945 128.029 73.395 127.969C73.9751 127.909 74.5451 127.839 75.115 127.779C79.7551 127.259 84.3918 126.735 89.0251 126.209L119.905 122.739C130.195 121.569 140.485 120.408 150.785 119.349L181.695 116.099L212.615 113.029L243.535 109.969L274.465 107.059H274.485C274.566 107.055 274.646 107.062 274.725 107.079C283.135 109.039 291.535 111.035 299.925 113.069L325.095 119.158C325.114 119.162 325.133 119.17 325.149 119.182C325.165 119.193 325.179 119.208 325.189 119.225C325.199 119.242 325.206 119.26 325.209 119.28C325.212 119.3 325.21 119.32 325.205 119.339Z" fill="#113E71"/>
<path d="M115.055 215.579V250.638L193.695 240.509V206.549L115.055 215.579ZM159.735 230.559C153.935 230.559 153.945 221.559 159.735 221.559C165.535 221.559 165.525 230.559 159.735 230.559V230.559Z" fill="#113E71"/>
<path d="M115.055 174.229V209.289L193.695 199.158V165.198L115.055 174.229ZM159.735 189.209C153.935 189.209 153.945 180.209 159.735 180.209C165.535 180.209 165.525 189.209 159.735 189.209V189.209Z" fill="#113E71"/>
<path d="M289.085 121.398L289.097 121.397C290.748 120.975 292.411 120.628 294.067 120.242C295.729 119.883 297.391 119.531 299.057 119.203C299.146 119.185 299.237 119.195 299.32 119.232L299.343 119.242C302.836 120.781 306.296 122.391 309.742 124.031C313.182 125.681 316.608 127.361 320.001 129.111L320.029 129.125C320.13 129.177 320.206 129.267 320.24 129.375C320.275 129.483 320.265 129.601 320.213 129.702C320.18 129.765 320.131 129.82 320.071 129.86C320.012 129.9 319.943 129.925 319.871 129.932C318.447 130.061 317.025 130.207 315.597 130.307C314.17 130.411 312.746 130.537 311.314 130.607C312.716 130.309 314.125 130.066 315.532 129.802C316.938 129.534 318.35 129.312 319.76 129.073L319.63 129.893C316.13 128.367 312.664 126.771 309.212 125.144C305.765 123.508 302.333 121.84 298.934 120.103L299.219 120.142C297.538 120.389 295.854 120.612 294.168 120.828C292.478 121.017 290.794 121.246 289.098 121.398H289.097L289.085 121.398Z" fill="#113E71"/>
<path d="M281.849 134.455L281.837 134.455L273.5 135.791C270.723 136.244 267.935 136.622 265.153 137.041C262.369 137.442 259.589 137.879 256.8 138.25L248.438 139.385C248.349 139.396 248.258 139.387 248.173 139.358C244.812 138.201 241.438 137.084 238.093 135.881L228.04 132.326C227.973 132.303 227.91 132.266 227.857 132.218C227.803 132.171 227.76 132.113 227.728 132.049C227.697 131.984 227.679 131.914 227.675 131.843C227.671 131.771 227.681 131.7 227.704 131.632C227.737 131.54 227.793 131.458 227.867 131.395C227.942 131.332 228.032 131.29 228.128 131.273C232.629 130.505 237.15 129.851 241.662 129.145C246.175 128.442 250.699 127.807 255.227 127.194C250.752 128.119 246.274 129.023 241.784 129.86C237.294 130.693 232.812 131.578 228.311 132.348L228.399 131.296L238.489 134.74C241.859 135.871 245.199 137.088 248.553 138.264L248.288 138.237L256.663 137.192C259.453 136.836 262.252 136.546 265.046 136.22C267.843 135.912 270.634 135.564 273.435 135.29C276.235 135.005 279.032 134.701 281.837 134.454H281.837L281.849 134.455Z" fill="#113E71"/>
<path d="M249.368 116.709C246.359 117.583 243.333 118.38 240.314 119.211C239.557 119.411 238.807 119.638 238.044 119.808L235.749 120.288L231.166 121.279L228.875 121.775C228.042 122.001 227.173 122.053 226.319 121.928C225.414 121.789 224.572 121.38 223.904 120.754C223.566 120.413 223.306 120.002 223.143 119.551C222.979 119.1 222.915 118.618 222.956 118.14C223.147 116.421 223.931 114.822 225.173 113.618C225.768 113.025 226.442 112.518 227.175 112.109C227.536 111.908 227.908 111.727 228.289 111.568C228.638 111.42 228.982 111.261 229.322 111.091C232.067 109.82 234.379 107.771 235.97 105.198C236.718 103.908 237.213 102.487 237.43 101.012C237.626 99.563 237.628 97.9536 237.706 96.4023L238.471 77.6619L238.485 77.8196C238.41 77.6129 238.304 77.4185 238.172 77.2424C238.019 77.0327 237.845 76.8395 237.652 76.6658C237.229 76.3181 236.775 76.0112 236.294 75.7493C235.266 75.2072 234.166 74.8143 233.027 74.5825C231.852 74.3543 230.662 74.2104 229.466 74.1518C228.262 74.0847 227.052 74.0923 225.836 74.1125C227.038 73.9477 228.244 73.7661 229.466 73.7112C230.696 73.6414 231.928 73.6599 233.154 73.7666C234.417 73.8881 235.655 74.1904 236.832 74.6643C237.446 74.9229 238.01 75.2892 238.496 75.7458C239.051 76.2298 239.467 76.8545 239.697 77.5542C239.709 77.5927 239.715 77.633 239.713 77.6733L239.711 77.7124L238.946 96.4539C238.864 98.023 238.875 99.5491 238.657 101.2C238.417 102.828 237.87 104.395 237.045 105.819C235.332 108.604 232.837 110.824 229.872 112.204C229.512 112.383 229.147 112.552 228.777 112.709C228.437 112.851 228.105 113.012 227.782 113.191C227.149 113.544 226.566 113.983 226.052 114.494C225.027 115.485 224.372 116.797 224.195 118.212C224.163 118.514 224.199 118.82 224.299 119.107C224.4 119.394 224.563 119.655 224.777 119.871C225.263 120.315 225.871 120.605 226.522 120.704C227.221 120.803 227.933 120.755 228.612 120.562L230.904 120.066L235.487 119.075L237.775 118.564C238.54 118.404 239.318 118.301 240.089 118.17C243.181 117.679 246.266 117.156 249.368 116.709Z" fill="#113E71"/>
<path d="M230.385 60.7186C231.715 62.2286 232.945 63.8287 234.575 65.3787L217.145 86.9686C216.845 66.4187 202.555 65.3787 202.555 65.3787L226.045 56.4387C226.86 57.087 227.638 57.7814 228.375 58.5186C229.074 59.2286 229.725 59.9686 230.385 60.7186Z" fill="#113E71"/>
<path d="M242.025 65.3787H234.575C234.47 64.2709 234.169 63.1906 233.685 62.1887C233.221 61.183 232.618 60.2472 231.895 59.4084C231.163 58.551 230.29 57.824 229.315 57.2585C228.326 56.678 227.191 56.3934 226.045 56.4387L229.365 50.1785L242.025 65.3787Z" fill="#113E71"/>
<path d="M217.148 86.9709C214.923 86.2849 212.847 85.1845 211.03 83.7275C209.17 82.2894 207.549 80.5671 206.225 78.624C205.882 78.146 205.571 77.645 205.295 77.1248C205.019 76.6052 204.697 76.1096 204.46 75.571C203.967 74.5046 203.563 73.3992 203.253 72.2661C202.608 70.0296 202.371 67.6955 202.552 65.375C203.143 67.543 203.869 69.672 204.725 71.7495C205.566 73.7718 206.621 75.6977 207.874 77.4939C209.103 79.3137 210.504 81.0108 212.058 82.5618C213.646 84.1531 215.347 85.6267 217.148 86.9709Z" fill="#113E71"/>
<path d="M211.042 80.0452C218.229 80.0452 218.241 68.8749 211.042 68.8749C203.854 68.8749 203.842 80.0452 211.042 80.0452Z" fill="#113E71"/>
<path d="M158.877 125.629L177.253 122.446C183.513 121.381 189.851 120.287 196.175 119.469L196.195 119.466C196.288 119.454 196.384 119.471 196.467 119.516L203.819 123.48C206.263 124.815 208.732 126.101 211.198 127.392C213.656 128.7 216.152 129.933 218.633 131.196C221.112 132.462 223.621 133.669 226.114 134.908C226.177 134.94 226.229 134.99 226.262 135.052C226.295 135.115 226.307 135.186 226.298 135.256C226.288 135.326 226.256 135.39 226.208 135.441C226.159 135.492 226.095 135.527 226.026 135.54L226.013 135.542C219.741 136.676 213.464 137.783 207.176 138.824C200.891 139.883 194.607 140.947 188.307 141.91L188.301 141.911C188.163 141.932 188.022 141.908 187.899 141.842C182.934 139.177 178.016 136.393 173.149 133.662C168.317 130.906 163.561 128.211 158.877 125.629ZM159 125.65C164.071 128.279 169.07 130.794 173.993 133.248C178.882 135.727 183.719 138.154 188.51 140.699L188.102 140.631C194.387 139.574 200.688 138.616 206.989 137.655C213.286 136.675 219.594 135.762 225.907 134.875L225.806 135.509C223.346 134.204 220.904 132.866 218.431 131.589C215.959 130.308 213.503 128.996 211.009 127.76C208.523 126.507 206.04 125.249 203.532 124.039L196.028 120.37L196.319 120.418C190.206 121.498 184.109 122.303 177.932 123.137L168.568 124.361L159 125.65Z" fill="#113E71"/>
<path d="M180.832 129.55C182.181 129.25 183.543 129.018 184.916 128.856C186.215 129.063 187.521 129.229 188.824 129.417L196.643 130.512L204.462 131.609L208.372 132.156C209.622 132.713 210.875 133.258 212.109 133.934C210.737 134.244 209.383 134.424 208.027 134.615L204.117 134.067L196.298 132.971L188.479 131.875C187.175 131.698 185.874 131.497 184.568 131.339C183.293 130.806 182.046 130.209 180.832 129.55Z" fill="#113E71"/>
<path d="M79.2451 132.569L97.6216 129.386C103.881 128.321 110.219 127.227 116.543 126.409L116.563 126.406C116.657 126.394 116.752 126.411 116.835 126.456L124.187 130.42C126.631 131.755 129.1 133.041 131.566 134.332C134.024 135.64 136.52 136.873 139.001 138.136C141.48 139.403 143.99 140.609 146.482 141.849C146.546 141.88 146.597 141.93 146.63 141.993C146.663 142.055 146.675 142.126 146.666 142.196C146.656 142.266 146.625 142.331 146.576 142.382C146.527 142.433 146.464 142.467 146.394 142.48L146.382 142.482C140.109 143.616 133.832 144.723 127.544 145.764C121.26 146.823 114.975 147.887 108.675 148.85L108.669 148.851C108.531 148.872 108.39 148.848 108.267 148.782C103.302 146.117 98.3845 143.333 93.5176 140.602C88.685 137.846 83.929 135.151 79.2451 132.569ZM79.3677 132.59C84.4392 135.219 89.4385 137.734 94.3613 140.189C99.2495 142.668 104.087 145.094 108.878 147.639L108.47 147.571C114.755 146.514 121.056 145.557 127.356 144.595C133.654 143.616 139.962 142.702 146.275 141.816L146.174 142.449C143.715 141.144 141.272 139.807 138.799 138.529C136.327 137.248 133.872 135.936 131.377 134.7C128.892 133.447 126.408 132.189 123.9 130.979L116.396 127.31L116.688 127.358C110.575 128.438 104.477 129.244 98.3 130.077L88.9358 131.301L79.3677 132.59Z" fill="#113E71"/>
<path d="M124.698 130.98C126.951 130.52 129.208 130.085 131.469 129.678C133.732 129.284 135.989 128.851 138.257 128.49C142.791 127.756 147.318 126.974 151.874 126.379L151.898 126.377C151.996 126.363 152.096 126.382 152.184 126.43L159.512 130.441C161.954 131.78 164.423 133.065 166.895 134.345C169.38 135.6 171.865 136.856 174.375 138.062L181.888 141.712C181.981 141.757 182.057 141.83 182.105 141.921C182.154 142.012 182.172 142.116 182.158 142.218C182.144 142.32 182.098 142.415 182.027 142.489C181.955 142.564 181.862 142.613 181.761 142.632L181.742 142.635L172.321 144.265C169.18 144.803 166.038 145.335 162.891 145.833C159.742 146.323 156.594 146.815 153.438 147.258C150.282 147.706 147.131 148.178 143.969 148.583L143.947 148.585C143.871 148.595 143.795 148.58 143.729 148.543C141.043 147.023 138.37 145.477 135.712 143.905C135.698 143.897 135.688 143.883 135.684 143.868C135.68 143.853 135.682 143.836 135.689 143.822C135.697 143.808 135.709 143.797 135.724 143.792C135.74 143.787 135.756 143.788 135.771 143.795C138.559 145.123 141.331 146.481 144.087 147.87L143.848 147.83C146.978 147.225 150.119 146.688 153.256 146.127C156.393 145.56 159.537 145.042 162.681 144.522C165.826 144.012 168.977 143.534 172.128 143.062L181.586 141.664L181.439 142.587L174.096 138.605C171.654 137.266 169.186 135.977 166.719 134.688C164.239 133.424 161.756 132.165 159.246 130.96L151.718 127.337L152.027 127.387C147.502 128.179 142.948 128.782 138.401 129.435C136.129 129.767 133.845 130.027 131.568 130.326C129.289 130.614 127.005 130.873 124.717 131.103C124.701 131.104 124.685 131.1 124.673 131.09C124.66 131.08 124.652 131.066 124.649 131.05C124.647 131.035 124.65 131.019 124.66 131.005C124.669 130.992 124.682 130.983 124.698 130.98L124.698 130.98Z" fill="#113E71"/>
<path d="M278.085 70.9285C277.565 72.3987 276.975 73.8386 276.385 75.2786L274.035 79.2386L269.525 86.8587H267.785L268.055 86.4085L272.745 78.4786L275.095 74.5086C276.075 73.3086 277.045 72.0986 278.085 70.9285Z" fill="#113E71"/>
<path d="M267.105 75.9085L266.545 80.8086L265.855 86.8586H264.345L265.055 80.6384L265.605 75.7385C266.015 74.1287 266.415 72.5185 266.915 70.9285C267.035 72.5987 267.075 74.2486 267.105 75.9085Z" fill="#113E71"/>
<path d="M260.915 86.8586H261.865L261.335 83.1486L260.905 80.1686L260.245 75.4886C259.795 73.9686 259.355 72.4386 258.825 70.9286C258.755 72.2386 258.735 73.5386 258.745 74.8386V75.7086L258.935 76.9986L259.425 80.3786L260.355 86.8586H260.915Z" fill="#113E71"/>
<path d="M257.745 86.8586H256.235L255.296 80.3786L254.626 75.7085C254.615 74.1186 254.615 72.5285 254.705 70.9285C255.235 72.4387 255.675 73.9685 256.126 75.4885L256.786 80.1687L257.425 84.6287L257.745 86.8586Z" fill="#113E71"/>
<path d="M258.935 76.1186V76.9985L258.925 80.7185V86.8586H257.425V76.1187C257.645 74.5887 257.865 73.0586 258.175 71.5186C258.395 72.6287 258.585 73.7386 258.745 74.8386C258.815 75.2685 258.875 75.6887 258.935 76.1186Z" fill="#113E71"/>
<path d="M263.555 76.8885L263.035 81.4586L262.425 86.8587H260.915L261.335 83.1487L261.545 81.2886L262.055 76.7185C262.445 75.2185 262.835 73.7185 263.315 72.2385C263.455 73.7886 263.505 75.3387 263.555 76.8885Z" fill="#113E71"/>
<path d="M253.115 92.9785V98.3787C253.375 98.3487 253.635 98.3287 253.895 98.2986L256.145 93.2486C255.135 93.1785 254.125 93.0986 253.115 92.9785ZM256.425 93.3386L254.015 98.2886C255.465 98.1385 256.925 98.0386 258.375 97.9786L256.425 93.3386ZM256.745 93.2886L258.805 97.7286L260.445 93.4388C259.215 93.4187 257.975 93.3586 256.745 93.2886L256.745 93.2886ZM260.965 93.8687L259.275 97.9485C260.345 97.9085 261.405 97.8885 262.475 97.8787L260.965 93.8687ZM263.095 93.4786C262.575 93.4686 262.045 93.4586 261.525 93.4586L263.055 97.2286L264.355 93.4586C263.935 93.4685 263.515 93.4685 263.095 93.4785L263.095 93.4786ZM265.025 94.4286L263.715 97.8788C264.555 97.8885 265.395 97.8988 266.235 97.9286C265.815 96.7586 265.415 95.5986 265.025 94.4285V94.4286ZM265.725 93.4388C266.155 94.6288 266.565 95.8187 266.965 97.0087C267.505 95.7787 268.035 94.5587 268.585 93.3387C267.635 93.3884 266.685 93.4187 265.725 93.4387L265.725 93.4388ZM269.145 93.8988C268.645 95.2587 268.126 96.6088 267.605 97.9686C268.755 98.0086 269.905 98.0787 271.045 98.1786C270.385 96.7585 269.765 95.3386 269.145 93.8987L269.145 93.8988ZM253.115 86.8588V92.9787C256.429 92.6175 259.762 92.4505 263.095 92.4787C263.705 92.4787 264.315 92.4887 264.925 92.4987C265.014 92.4737 265.107 92.4737 265.195 92.4987C266.475 92.5187 267.745 92.5688 269.015 92.6386C269.048 92.6273 269.081 92.6207 269.115 92.6188C269.167 92.6191 269.218 92.6293 269.265 92.6488C270.535 92.7286 271.805 92.8287 273.075 92.9786V86.8588L253.115 86.8588ZM255.445 91.3288C255.056 91.316 254.687 91.1523 254.416 90.8724C254.146 90.5925 253.994 90.2183 253.994 89.8288C253.994 89.4394 254.146 89.0652 254.416 88.7853C254.687 88.5054 255.056 88.3417 255.445 88.3288C255.834 88.3425 256.202 88.5064 256.472 88.7862C256.743 89.066 256.894 89.4398 256.894 89.8288C256.894 90.2177 256.743 90.5915 256.472 90.8712C256.202 91.151 255.834 91.315 255.445 91.3286L255.445 91.3288ZM260.845 91.3288C260.456 91.316 260.087 91.1523 259.816 90.8724C259.545 90.5925 259.394 90.2183 259.394 89.8288C259.394 89.4394 259.545 89.0652 259.816 88.7853C260.087 88.5054 260.456 88.3417 260.845 88.3288C261.234 88.3424 261.602 88.5064 261.872 88.7862C262.143 89.066 262.294 89.4398 262.294 89.8287C262.294 90.2177 262.143 90.5914 261.872 90.8712C261.602 91.151 261.234 91.315 260.845 91.3286L260.845 91.3288ZM266.065 91.1489C265.676 91.136 265.307 90.9723 265.036 90.6924C264.766 90.4125 264.614 90.0383 264.614 89.6489C264.614 89.2594 264.766 88.8852 265.036 88.6053C265.307 88.3254 265.676 88.1618 266.065 88.1489C266.454 88.1625 266.822 88.3265 267.093 88.6063C267.363 88.8861 267.514 89.2599 267.514 89.6488C267.514 90.0378 267.363 90.4115 267.093 90.6913C266.822 90.9711 266.454 91.1351 266.065 91.1487L266.065 91.1489ZM271.195 91.3288C270.806 91.316 270.437 91.1523 270.166 90.8724C269.896 90.5925 269.744 90.2183 269.744 89.8288C269.744 89.4394 269.896 89.0652 270.166 88.7853C270.437 88.5054 270.806 88.3417 271.195 88.3288C271.584 88.3425 271.952 88.5064 272.222 88.7862C272.493 89.066 272.644 89.4398 272.644 89.8288C272.644 90.2177 272.493 90.5915 272.222 90.8712C271.952 91.151 271.584 91.315 271.195 91.3286L271.195 91.3288ZM269.586 93.2788C270.145 94.9087 270.685 96.5388 271.185 98.189C271.815 98.2488 272.445 98.2988 273.075 98.379V92.9788C271.915 93.1087 270.755 93.2085 269.585 93.2786L269.586 93.2788ZM256.425 93.3389L254.015 98.2889C255.465 98.1387 256.925 98.0389 258.376 97.9788L256.425 93.3389ZM256.745 93.2889L258.805 97.7288L260.445 93.439C259.215 93.4187 257.975 93.3586 256.745 93.2886L256.745 93.2889ZM260.965 93.869L259.275 97.9488C260.345 97.9088 261.405 97.8887 262.475 97.879L260.965 93.869ZM263.095 93.4788C262.575 93.4688 262.046 93.4588 261.525 93.4588L263.055 97.2288L264.355 93.4588C263.935 93.4685 263.515 93.4685 263.095 93.4785L263.095 93.4788ZM265.025 94.4288L263.715 97.879C264.556 97.8888 265.395 97.899 266.235 97.9288C265.815 96.7585 265.415 95.5986 265.025 94.4285L265.025 94.4288ZM265.725 93.4391C266.155 94.6291 266.566 95.819 266.965 97.0089C267.505 95.7789 268.036 94.5589 268.586 93.339C267.635 93.3884 266.685 93.4187 265.725 93.4387L265.725 93.4391ZM269.145 93.8991C268.645 95.2589 268.126 96.6091 267.606 97.9689C268.755 98.0089 269.905 98.079 271.046 98.1789C270.385 96.7586 269.765 95.3386 269.145 93.8987L269.145 93.8991ZM256.425 93.339L254.015 98.289C255.465 98.1389 256.925 98.039 258.376 97.9789L256.425 93.339ZM256.745 93.289L258.806 97.7289L260.445 93.4391C259.215 93.4187 257.975 93.3586 256.745 93.2886L256.745 93.289ZM260.965 93.8691L259.276 97.9489C260.345 97.9089 261.405 97.8889 262.476 97.8791L260.965 93.8691ZM263.095 93.4789C262.575 93.4689 262.046 93.459 261.526 93.459L263.056 97.2289L264.356 93.459C263.935 93.4685 263.515 93.4685 263.095 93.4785L263.095 93.4789ZM265.026 94.429L263.715 97.8792C264.556 97.8889 265.395 97.8992 266.235 97.929C265.815 96.7586 265.415 95.5986 265.025 94.4285L265.026 94.429ZM265.726 93.4392C266.155 94.6292 266.566 95.8191 266.966 97.009C267.506 95.779 268.036 94.559 268.586 93.3391C267.635 93.3884 266.685 93.4187 265.725 93.4387L265.726 93.4392ZM269.145 93.8992C268.645 95.2591 268.126 96.6092 267.606 97.969C268.756 98.009 269.905 98.0791 271.046 98.179C270.385 96.7585 269.765 95.3386 269.145 93.8987L269.145 93.8992ZM253.115 104.229V105.469C253.115 108.116 254.167 110.654 256.039 112.526C257.91 114.398 260.449 115.449 263.095 115.449C265.742 115.449 268.281 114.398 270.152 112.526C272.024 110.654 273.075 108.116 273.075 105.469V104.229C266.439 104.896 259.752 104.896 253.115 104.229ZM267.175 98.7991C267.111 98.842 267.038 98.869 266.962 98.8777C266.885 98.8864 266.807 98.8766 266.736 98.8491C266.715 98.837 266.695 98.8236 266.675 98.8091C265.486 98.8491 264.286 98.8692 263.095 98.8792C259.762 98.8973 256.43 98.7304 253.115 98.3792V104.229C259.752 103.562 266.439 103.562 273.075 104.229V98.3787C271.105 98.6086 269.145 98.7285 267.175 98.7986L267.175 98.7991ZM255.895 102.849C255.506 102.836 255.137 102.673 254.866 102.393C254.596 102.113 254.444 101.739 254.444 101.349C254.444 100.96 254.596 100.585 254.866 100.306C255.137 100.026 255.506 99.862 255.895 99.8491C256.283 99.8637 256.651 100.028 256.92 100.308C257.19 100.587 257.34 100.961 257.34 101.349C257.34 101.737 257.189 102.11 256.92 102.39C256.651 102.67 256.283 102.834 255.895 102.849L255.895 102.849ZM260.486 102.759C260.096 102.746 259.727 102.582 259.457 102.303C259.186 102.023 259.034 101.648 259.034 101.259C259.034 100.87 259.186 100.495 259.457 100.215C259.727 99.9356 260.096 99.7719 260.486 99.759C260.874 99.7736 261.241 99.9379 261.51 100.218C261.78 100.497 261.93 100.871 261.93 101.259C261.93 101.647 261.78 102.02 261.51 102.3C261.241 102.58 260.873 102.744 260.485 102.759L260.486 102.759ZM265.526 102.759C265.136 102.746 264.767 102.582 264.496 102.303C264.226 102.023 264.074 101.648 264.074 101.259C264.074 100.87 264.226 100.495 264.496 100.215C264.767 99.9356 265.136 99.7719 265.526 99.759C265.914 99.7735 266.281 99.9379 266.55 100.218C266.82 100.497 266.97 100.871 266.97 101.259C266.97 101.647 266.82 102.02 266.55 102.3C266.281 102.58 265.913 102.744 265.525 102.759L265.526 102.759ZM270.566 102.579C270.176 102.566 269.807 102.403 269.536 102.123C269.266 101.843 269.114 101.469 269.114 101.079C269.114 100.69 269.266 100.315 269.536 100.036C269.807 99.7556 270.176 99.592 270.566 99.5791C270.954 99.5936 271.321 99.758 271.59 100.038C271.86 100.317 272.01 100.691 272.01 101.079C272.01 101.467 271.86 101.84 271.59 102.12C271.321 102.4 270.953 102.564 270.565 102.579L270.566 102.579ZM271.046 98.1789C270.385 96.759 269.766 95.3391 269.145 93.8992C268.645 95.259 268.126 96.6091 267.606 97.969C268.755 98.0085 269.905 98.0786 271.045 98.1785L271.046 98.1789ZM268.586 93.3391C267.635 93.3889 266.685 93.4192 265.725 93.4392C266.155 94.6292 266.566 95.8191 266.965 97.009C267.505 95.7786 268.035 94.5586 268.585 93.3386L268.586 93.3391ZM266.235 97.9289C265.816 96.759 265.415 95.5991 265.025 94.4289L263.715 97.8791C264.555 97.8884 265.395 97.8987 266.235 97.9285L266.235 97.9289ZM264.356 93.4589C263.935 93.4689 263.515 93.4689 263.095 93.4789C262.575 93.4689 262.046 93.4589 261.525 93.4589L263.055 97.2289L264.356 93.4589ZM262.475 97.8791L260.965 93.8691L259.275 97.9489C260.345 97.9084 261.405 97.8884 262.475 97.8787L262.475 97.8791ZM260.445 93.4391C259.215 93.4191 257.975 93.359 256.745 93.289L258.805 97.7289L260.445 93.4391ZM256.425 93.339L254.016 98.289C255.466 98.1389 256.925 98.039 258.376 97.9789L256.425 93.339ZM269.145 93.8991C268.645 95.2589 268.126 96.6091 267.606 97.9689C268.756 98.0089 269.905 98.079 271.046 98.1789C270.385 96.7586 269.765 95.3386 269.145 93.8987L269.145 93.8991ZM265.725 93.4391C266.155 94.6291 266.566 95.819 266.966 97.0089C267.506 95.7789 268.036 94.5589 268.586 93.339C267.635 93.3884 266.685 93.4187 265.725 93.4387L265.725 93.4391ZM265.026 94.4288L263.715 97.879C264.556 97.8888 265.395 97.899 266.235 97.9288C265.815 96.7585 265.415 95.5986 265.025 94.4285L265.026 94.4288ZM263.095 93.4788C262.575 93.4688 262.046 93.4588 261.526 93.4588L263.056 97.2288L264.355 93.4588C263.935 93.4685 263.515 93.4685 263.095 93.4785L263.095 93.4788ZM260.965 93.869L259.276 97.9488C260.345 97.9088 261.405 97.8887 262.475 97.879L260.965 93.869ZM256.745 93.2889L258.806 97.7288L260.445 93.439C259.215 93.4187 257.975 93.3586 256.745 93.2886L256.745 93.2889ZM256.425 93.3389L254.015 98.2889C255.465 98.1387 256.925 98.0389 258.376 97.9788L256.425 93.3389ZM269.145 93.8989C268.645 95.2588 268.126 96.6089 267.606 97.9688C268.755 98.0088 269.905 98.0789 271.046 98.1788C270.385 96.7585 269.765 95.3386 269.145 93.8987L269.145 93.8989ZM265.725 93.4389C266.155 94.6289 266.566 95.8188 266.965 97.0088C267.505 95.7788 268.036 94.5588 268.586 93.3389C267.635 93.3884 266.685 93.4187 265.725 93.4387L265.725 93.4389ZM265.025 94.4287L263.715 97.8789C264.555 97.8887 265.395 97.8989 266.235 97.9287C265.815 96.7586 265.415 95.5986 265.025 94.4285L265.025 94.4287ZM263.095 93.4787C262.575 93.4687 262.045 93.4587 261.525 93.4587L263.055 97.2287L264.355 93.4587C263.935 93.4685 263.515 93.4685 263.095 93.4785L263.095 93.4787ZM260.965 93.8688L259.275 97.9487C260.345 97.9087 261.405 97.8886 262.475 97.8788L260.965 93.8688ZM256.745 93.2887L258.805 97.7287L260.445 93.4389C259.215 93.4187 257.975 93.3586 256.745 93.2886L256.745 93.2887ZM256.425 93.3387L254.015 98.2887C255.465 98.1386 256.925 98.0387 258.376 97.9787L256.425 93.3387Z" fill="#113E71"/>
<path d="M90.6736 257.396C90.8591 259.866 90.9541 262.335 91.0847 264.804C91.2209 267.274 91.2825 269.743 91.3716 272.212C91.4277 274.682 91.5188 277.151 91.5459 279.62C91.5776 282.09 91.6409 284.559 91.6414 287.028L90.9294 286.095L97.8882 287.973L97.3909 287.966L104.325 286.322L103.594 287.252C103.654 282.669 103.738 278.086 103.883 273.503C103.97 271.211 104.035 268.92 104.165 266.628C104.284 264.337 104.378 262.045 104.551 259.754C104.724 262.045 104.818 264.337 104.938 266.628C105.067 268.92 105.132 271.211 105.219 273.503C105.364 278.086 105.448 282.669 105.508 287.252C105.511 287.464 105.442 287.671 105.313 287.839C105.183 288.007 105 288.127 104.794 288.178L104.777 288.182L97.8601 289.899C97.6963 289.939 97.5251 289.937 97.3625 289.892L90.4182 287.962C90.2141 287.905 90.0342 287.783 89.9057 287.615C89.7771 287.446 89.7071 287.24 89.7061 287.029C89.7065 284.559 89.7698 282.09 89.8015 279.621C89.8286 277.151 89.9197 274.682 89.9758 272.213C90.065 269.743 90.1265 267.274 90.2627 264.805C90.3933 262.335 90.4883 259.866 90.6736 257.396Z" fill="#113E71"/>
<path d="M97.6125 259.639C98.1028 264.521 98.217 269.403 98.2393 274.285C98.2241 279.167 98.1145 284.05 97.6257 288.932C97.1326 284.05 97.0186 279.168 96.999 274.286C97.0169 269.403 97.1267 264.521 97.6125 259.639Z" fill="#113E71"/>
<path d="M27.1302 224.417C27.3263 226.886 27.4217 229.356 27.5616 231.825C27.6879 234.294 27.7743 236.764 27.8495 239.233C27.9928 244.172 28.0909 249.11 28.1063 254.049L27.388 253.108C29.7093 253.728 32.0311 254.346 34.3419 255.004L33.85 254.997C36.1627 254.453 38.4698 253.889 40.7906 253.379L40.088 254.272C40.1278 252.291 40.1388 250.31 40.2025 248.329C40.2638 246.348 40.297 244.366 40.3834 242.385C40.453 240.404 40.5355 238.423 40.6517 236.441C40.7577 234.46 40.8509 232.479 41.0077 230.498C41.1642 232.479 41.2575 234.46 41.3637 236.441C41.4797 238.423 41.5622 240.404 41.6318 242.385C41.7182 244.366 41.7514 246.348 41.8127 248.329C41.8764 250.31 41.8874 252.291 41.9274 254.272C41.9315 254.473 41.8681 254.669 41.7476 254.829C41.627 254.989 41.4562 255.105 41.2624 255.156L41.2244 255.166C38.9282 255.777 36.6187 256.332 34.3142 256.909C34.1594 256.948 33.9973 256.948 33.8428 256.908L33.822 256.902C31.4985 256.291 29.186 255.639 26.8726 254.991L26.864 254.988C26.6594 254.93 26.4792 254.808 26.3511 254.638C26.2229 254.468 26.1538 254.261 26.1543 254.049C26.1697 249.11 26.2678 244.172 26.4111 239.233C26.4863 236.764 26.5727 234.294 26.699 231.825C26.8387 229.356 26.9342 226.886 27.1302 224.417Z" fill="#113E71"/>
<path d="M34.0688 226.659C34.5591 231.541 34.6733 236.423 34.6956 241.306C34.6802 246.188 34.5706 251.07 34.0818 255.953C33.5886 251.071 33.4749 246.188 33.4551 241.306C33.4729 236.424 33.583 231.542 34.0688 226.659Z" fill="#113E71"/>
<path d="M192.449 246.822C192.617 249.017 192.711 251.212 192.826 253.407C192.951 255.603 193.021 257.798 193.103 259.993C193.249 264.383 193.337 268.774 193.395 273.164L192.873 272.32L199.149 275.42L198.443 275.35C200.894 274.653 203.362 274.02 205.821 273.351L205.108 274.285C205.109 271.863 205.169 269.44 205.202 267.018C205.229 264.595 205.319 262.173 205.376 259.75C205.464 257.328 205.528 254.905 205.663 252.483C205.795 250.06 205.89 247.638 206.077 245.215C206.264 247.638 206.359 250.06 206.491 252.483C206.626 254.905 206.69 257.328 206.778 259.75C206.835 262.173 206.925 264.595 206.952 267.018C206.985 269.44 207.045 271.863 207.046 274.285C207.045 274.498 206.975 274.704 206.846 274.872C206.718 275.041 206.537 275.163 206.333 275.22C203.877 275.898 201.43 276.611 198.966 277.26L198.951 277.264C198.719 277.325 198.473 277.299 198.26 277.19L192.025 274.009L192.009 274.001C191.855 273.922 191.726 273.802 191.637 273.654C191.548 273.507 191.502 273.337 191.504 273.164C191.562 268.774 191.649 264.383 191.795 259.993C191.877 257.798 191.948 255.603 192.073 253.407C192.188 251.212 192.282 249.017 192.449 246.822Z" fill="#113E71"/>
<path d="M199.262 246.013C199.657 251.071 199.677 256.121 199.603 261.17C199.493 266.219 199.288 271.265 198.704 276.305C198.306 271.247 198.288 266.197 198.363 261.147C198.476 256.099 198.682 251.053 199.262 246.013Z" fill="#113E71"/>
<path d="M273.087 195.669C272.095 195.612 271.122 195.381 270.211 194.986C267.484 193.883 265.048 192.167 263.092 189.971C264.001 190.32 264.885 190.732 265.736 191.205C266.588 191.649 267.404 192.142 268.226 192.62C269.034 193.124 269.848 193.606 270.646 194.126C271.455 194.63 272.24 195.161 273.087 195.669Z" fill="#113E71"/>
<path d="M68.6554 78.2285C69.4647 79.557 70.4318 80.7826 71.5355 81.8787C70.4174 81.9173 69.3073 81.6766 68.3055 81.1785C67.5819 80.8056 66.9709 80.2464 66.5355 79.5586C66.1111 78.8612 65.8766 78.0647 65.8556 77.2486C65.8351 76.1317 66.0965 75.0277 66.6154 74.0386C67.12 75.514 67.8052 76.9213 68.6554 78.2285Z" fill="#113E71"/>
<path d="M72.3054 78.6688C72.3253 79.7868 72.0603 80.8914 71.5354 81.8787C71.0308 80.4033 70.3456 78.9959 69.4954 77.6888C68.6836 76.362 67.7167 75.1367 66.6152 74.0386C67.7314 73.9988 68.8395 74.2431 69.8354 74.7486C70.5592 75.1207 71.1728 75.6758 71.6152 76.3587C72.0488 77.0527 72.2872 77.8507 72.3054 78.6688Z" fill="#113E71"/>
<path d="M65.9847 87.7686C66.7943 89.0995 67.765 90.3255 68.8749 91.4187C67.7566 91.4585 66.6461 91.2178 65.6446 90.7185C64.9183 90.3457 64.3041 89.7867 63.8646 89.0987C63.4403 88.4012 63.2059 87.6048 63.1847 86.7886C63.1643 85.6717 63.4257 84.5678 63.9447 83.5786C64.4535 85.0523 65.1385 86.4592 65.9847 87.7686Z" fill="#113E71"/>
<path d="M69.6352 88.2085C69.6547 89.3253 69.3934 90.4292 68.8755 91.4187C68.3623 89.9468 67.6776 88.5404 66.8354 87.2286C66.0201 85.9017 65.0499 84.6765 63.9453 83.5787C65.0616 83.5376 66.1698 83.782 67.1653 84.2887C67.8961 84.6537 68.5128 85.2122 68.9483 85.9034C69.3837 86.5945 69.6214 87.3918 69.6353 88.2086L69.6352 88.2085Z" fill="#113E71"/>
<path d="M62.9751 98.2686C63.7873 99.5977 64.7576 100.823 65.865 101.919C64.7454 101.961 63.6337 101.716 62.635 101.209C61.9072 100.843 61.2922 100.286 60.8552 99.5987C60.4307 98.9012 60.1962 98.1048 60.175 97.2886C60.1536 96.1716 60.4151 95.0674 60.935 94.0786C61.4439 95.5523 62.1288 96.9592 62.9751 98.2686Z" fill="#113E71"/>
<path d="M66.6248 98.6985C66.6452 99.8187 66.3838 100.926 65.8645 101.919C65.3524 100.445 64.6642 99.0377 63.8147 97.7286C63.0029 96.402 62.036 95.1767 60.9346 94.0787C62.0508 94.0376 63.1591 94.2819 64.1546 94.7887C64.8784 95.1606 65.4922 95.7157 65.9346 96.3988C66.3667 97.0896 66.6051 97.8839 66.6248 98.6985Z" fill="#113E71"/>
<path d="M61.5049 109.449C62.3175 110.78 63.2878 112.009 64.3948 113.109C63.2753 113.151 62.1635 112.906 61.1648 112.399C60.4392 112.028 59.8274 111.468 59.3943 110.778C58.9612 110.088 58.723 109.293 58.7048 108.479C58.6883 107.362 58.9495 106.259 59.4648 105.269C59.9779 106.737 60.6627 108.14 61.5049 109.449Z" fill="#113E71"/>
<path d="M65.1548 109.888C65.1805 111.009 64.9188 112.118 64.3948 113.109C63.3393 110.169 61.6572 107.494 59.4648 105.269C60.5811 105.228 61.6894 105.472 62.6848 105.979C63.4127 106.345 64.0278 106.901 64.4648 107.589C64.9027 108.277 65.1415 109.073 65.1548 109.888Z" fill="#113E71"/>
<path d="M61.0663 116.282C62.1828 116.244 63.2909 116.487 64.2885 116.99C65.0145 117.361 65.629 117.918 66.0692 118.605C66.5017 119.296 66.7397 120.09 66.7585 120.905C66.7796 122.024 66.5162 123.131 65.9928 124.12C64.8742 124.163 63.7631 123.92 62.7638 123.416C62.0377 123.045 61.4249 122.486 60.9899 121.797C60.5625 121.103 60.3271 120.307 60.3078 119.492C60.2872 118.375 60.548 117.271 61.0663 116.282Z" fill="#113E71"/>
<path d="M75.3452 81.1687C74.0072 81.8003 72.7171 82.5289 71.4854 83.3487C71.6567 82.286 72.0484 81.271 72.6353 80.3687C73.0395 79.7584 73.5939 79.2624 74.2454 78.9285C74.8782 78.6187 75.5835 78.4873 76.2854 78.5486C77.3178 78.6518 78.3328 78.887 79.3054 79.2486L75.3452 81.1687Z" fill="#113E71"/>
<path d="M78.7453 82.5686C78.3252 83.3101 77.6937 83.9097 76.9314 84.2908C76.1691 84.6719 75.3106 84.8173 74.4653 84.7085C73.361 84.5544 72.3255 84.0818 71.4854 83.3487C72.2397 83.2808 72.9841 83.1299 73.7053 82.8987C74.4203 82.6704 75.1187 82.3931 75.7954 82.0686C76.4732 81.7345 77.1191 81.3395 77.7254 80.8884C78.3469 80.4418 78.8822 79.8862 79.3055 79.2485C79.5446 80.3863 79.3445 81.5723 78.7453 82.5686Z" fill="#113E71"/>
<path d="M73.7856 90.1687C72.1355 90.7686 70.4555 91.2986 68.7656 92.0086C69.2504 90.9351 69.936 89.9644 70.7856 89.1487C71.4075 88.5629 72.1425 88.1103 72.9455 87.8186C73.7068 87.543 74.5184 87.4339 75.3254 87.4986C76.439 87.6103 77.5424 87.8076 78.6257 88.0886C77.078 88.9258 75.4581 89.622 73.7856 90.1687Z" fill="#113E71"/>
<path d="M77.4946 91.6888C76.8402 92.4863 75.9837 93.0936 75.0145 93.4471C74.0452 93.8006 72.9989 93.8874 71.9846 93.6985C70.7666 93.4695 69.6451 92.8809 68.7646 92.0086C69.6764 92.0443 70.5892 91.9739 71.4846 91.7986C72.3791 91.6429 73.2588 91.4121 74.1145 91.1086C74.9817 90.8111 75.8134 90.4187 76.5945 89.9387C77.3925 89.4698 78.084 88.8397 78.6248 88.0886C78.6948 88.7342 78.6306 89.3873 78.4361 90.0068C78.2416 90.6264 77.9211 91.199 77.4946 91.6888Z" fill="#113E71"/>
<path d="M71.9048 97.9485C70.2549 98.5486 68.5747 99.0786 66.8848 99.7886C67.3692 98.7124 68.0587 97.7409 68.9148 96.9285C69.5317 96.3411 70.2639 95.8882 71.0649 95.5987C71.8262 95.3231 72.6377 95.2139 73.4448 95.2786C74.5583 95.3904 75.6616 95.5876 76.7448 95.8687C75.1972 96.7059 73.5773 97.402 71.9048 97.9485Z" fill="#113E71"/>
<path d="M75.6148 99.4686C74.9604 100.266 74.1039 100.873 73.1348 101.227C72.1656 101.581 71.1192 101.667 70.105 101.479C68.8869 101.25 67.7653 100.661 66.8848 99.7886C67.7966 99.8244 68.7095 99.7539 69.605 99.5786C70.4994 99.4229 71.3792 99.192 72.2349 98.8884C73.1021 98.591 73.9338 98.1986 74.7149 97.7185C75.5128 97.2497 76.2042 96.6197 76.7449 95.8687C76.815 96.5142 76.7508 97.1673 76.5563 97.7868C76.3618 98.4063 76.0412 98.9789 75.6148 99.4686Z" fill="#113E71"/>
<path d="M70.3252 107.479C68.6553 108.239 66.9053 108.859 65.1553 109.638C65.6447 108.536 66.3328 107.532 67.1853 106.678C67.7998 106.058 68.5214 105.553 69.3154 105.189C70.045 104.866 70.8285 104.683 71.6255 104.649C72.4853 104.569 73.3652 104.739 74.9153 104.529C74.2987 105.217 73.5722 105.798 72.7654 106.249C71.9801 106.712 71.1649 107.123 70.3252 107.479Z" fill="#113E71"/>
<path d="M75.2053 105.619C75.2169 105.973 75.1934 106.328 75.1353 106.678C74.9945 107.325 74.7333 107.939 74.3652 108.489C73.7201 109.455 72.8106 110.215 71.7454 110.678C70.7567 111.116 69.6701 111.285 68.5952 111.169C67.3194 111.021 66.1191 110.487 65.1553 109.638C66.116 109.638 67.0731 109.521 68.0054 109.289C68.942 109.076 69.8562 108.775 70.7354 108.388C71.6327 108.006 72.4711 107.497 73.2254 106.879C74.0122 106.283 74.6012 105.464 74.9153 104.529C74.9907 104.704 75.0542 104.885 75.1055 105.069C75.1492 105.25 75.1826 105.434 75.2053 105.619Z" fill="#113E71"/>
<path d="M65.1152 121.029C65.1697 119.928 65.4107 118.845 65.8279 117.825C66.1015 117.152 66.5121 116.544 67.0337 116.039C67.5026 115.611 68.0675 115.302 68.6807 115.137C69.6486 114.956 70.5846 114.633 71.4583 114.179C71.6034 114.287 71.7417 114.404 71.8721 114.529C71.9892 114.661 72.0984 114.801 72.1992 114.946C72.3688 115.237 72.501 115.548 72.5928 115.872C72.7408 116.478 72.7529 117.109 72.6284 117.721C72.428 118.774 71.8902 119.733 71.0964 120.453C70.3807 121.115 69.4811 121.543 68.5166 121.682C67.3419 121.843 66.1467 121.614 65.1152 121.029Z" fill="#113E71"/>
<path d="M74.785 72.0787C74.2032 73.678 73.8073 75.3389 73.605 77.0287C72.8793 76.1104 72.3976 75.0233 72.2049 73.8688C72.064 72.9945 72.1361 72.0992 72.4149 71.2587C72.7049 70.4201 73.2 69.6673 73.8551 69.0687C74.7208 68.283 75.7691 67.726 76.9049 67.4486C76.0252 68.9067 75.314 70.46 74.785 72.0787Z" fill="#113E71"/>
<path d="M78.0953 73.2185C77.7998 74.054 77.3015 74.8031 76.6453 75.3987C75.7855 76.1894 74.7399 76.7501 73.6055 77.0286C74.4773 75.5664 75.1881 74.0141 75.7253 72.3987C76.306 70.799 76.7019 69.1381 76.9053 67.4485C77.6333 68.3667 78.1183 69.4535 78.3154 70.6086C78.4578 71.4835 78.3822 72.3799 78.0953 73.2185Z" fill="#113E71"/>
<path d="M61.0664 116.281C62.1722 117.379 63.1413 118.605 63.9526 119.935C64.8007 121.242 65.4858 122.647 65.9926 124.12C64.8852 123.025 63.9159 121.798 63.1064 120.467C62.2601 119.159 61.5751 117.754 61.0664 116.281Z" fill="white"/>
<path d="M65.1152 121.029C66.333 119.907 67.5849 118.944 68.7268 117.879C69.305 117.369 69.8406 116.813 70.3281 116.216C70.8351 115.618 71.2191 114.925 71.4582 114.179C71.5981 115.031 71.4289 115.905 70.9812 116.643C70.5705 117.384 70.0371 118.051 69.4036 118.614C68.7897 119.173 68.116 119.662 67.3946 120.072C66.6817 120.493 65.9149 120.815 65.1152 121.029Z" fill="white"/>
<path d="M59.8253 128.449C59.9855 128.759 60.1353 129.079 60.2855 129.389C60.4554 129.749 60.6256 130.099 60.7955 130.459C61.0953 131.089 61.3954 131.709 61.6854 132.339C61.9454 131.649 62.2154 130.969 62.4754 130.289C62.6353 129.899 62.7955 129.499 62.9554 129.109C63.0155 128.939 63.0855 128.779 63.1554 128.609C62.0455 128.579 60.9354 128.529 59.8253 128.449ZM64.1353 130.119L63.8756 129.489C63.7855 129.719 63.6955 129.949 63.6056 130.179C63.2154 131.169 62.8253 132.159 62.4154 133.139C63.3954 133.099 64.3756 133.069 65.3556 133.059L64.1353 130.119ZM67.3055 128.639C66.8253 128.639 66.3453 128.649 65.8555 128.659C65.4353 128.649 65.0154 128.649 64.5855 128.639L64.6954 128.919L65.1055 130.029L65.9954 132.399L66.9554 129.849L67.4054 128.639L67.3055 128.639ZM68.1553 129.729L67.9453 129.139L67.7253 129.769L66.5952 133.069C67.5254 133.079 68.4553 133.099 69.3952 133.138L68.1553 129.729ZM68.4453 128.619L68.7954 129.669L69.8452 132.839L71.3155 129.429L71.7254 128.469C70.6354 128.539 69.5355 128.589 68.4454 128.619H68.4453ZM72.3355 129.329L72.0254 128.569L71.7054 129.389L70.2354 133.179C71.4954 133.249 72.7654 133.359 74.0354 133.539L72.3355 129.329ZM59.8252 128.449C59.9854 128.759 60.1352 129.079 60.2854 129.389C60.4554 129.749 60.6255 130.099 60.7954 130.459C61.0952 131.089 61.3953 131.709 61.6853 132.339C61.9453 131.649 62.2153 130.969 62.4753 130.289C62.6352 129.899 62.7954 129.499 62.9553 129.109C63.0154 128.939 63.0854 128.779 63.1553 128.609C62.0455 128.579 60.9354 128.529 59.8253 128.449L59.8252 128.449ZM64.1352 130.119L63.8755 129.489C63.7854 129.719 63.6954 129.949 63.6055 130.179C63.2153 131.169 62.8252 132.159 62.4153 133.139C63.3953 133.099 64.3755 133.069 65.3555 133.059L64.1352 130.119ZM67.3054 128.639C66.8252 128.639 66.3452 128.649 65.8554 128.659C65.4352 128.649 65.0153 128.649 64.5854 128.639L64.6953 128.919L65.1054 130.029L65.9953 132.399L66.9553 129.849L67.4053 128.639L67.3054 128.639ZM68.1553 129.729L67.9453 129.139L67.7253 129.769L66.5951 133.069C67.5253 133.079 68.4552 133.099 69.3951 133.138L68.1553 129.729ZM68.4453 128.619L68.7953 129.669L69.8452 132.839L71.3154 129.429L71.7253 128.469C70.6354 128.539 69.5355 128.589 68.4454 128.619L68.4453 128.619ZM72.3354 129.329L72.0253 128.569L71.7053 129.389L70.2353 133.179C71.4953 133.249 72.7653 133.359 74.0353 133.539L72.3354 129.329ZM59.2954 128.889C59.1853 129.099 59.0654 129.319 58.9553 129.529L59.5254 129.469C59.4454 129.279 59.3756 129.079 59.2955 128.889L59.2954 128.889ZM59.8252 128.449C59.9853 128.759 60.1352 129.079 60.2854 129.389C60.4553 129.749 60.6255 130.099 60.7954 130.459C61.3554 130.399 61.9153 130.339 62.4753 130.289C62.6352 129.899 62.7954 129.499 62.9553 129.109C63.0154 128.939 63.0854 128.779 63.1553 128.609C62.0455 128.579 60.9354 128.529 59.8253 128.449L59.8252 128.449ZM63.8755 129.489C63.7854 129.719 63.6954 129.949 63.6055 130.179C63.7754 130.159 63.9553 130.139 64.1353 130.119L63.8755 129.489ZM65.8555 128.659C65.4353 128.649 65.0154 128.649 64.5855 128.639L64.6953 128.919C65.5654 128.829 66.4353 128.729 67.3054 128.639C66.8253 128.639 66.3454 128.649 65.8556 128.659L65.8555 128.659ZM54.4453 113.919L56.6653 128.159C57.5054 128.049 58.3452 127.969 59.1753 127.899C59.2138 127.871 59.2584 127.853 59.3054 127.846C59.3524 127.839 59.4004 127.843 59.4453 127.859L59.4653 127.879C60.8852 127.779 62.2954 127.709 63.7053 127.679C63.8099 127.649 63.9208 127.649 64.0254 127.679C64.6352 127.669 65.2454 127.659 65.8555 127.659C68.3755 127.669 70.8852 127.729 73.3952 127.969C73.9452 128.029 74.5054 128.089 75.0554 128.159L75.1152 127.779L77.2654 113.919L54.4453 113.919ZM57.9753 127.329C57.587 127.315 57.2192 127.15 56.9495 126.871C56.6798 126.591 56.5291 126.217 56.5291 125.829C56.5291 125.44 56.6798 125.067 56.9495 124.787C57.2192 124.507 57.587 124.343 57.9753 124.329C58.3636 124.343 58.7311 124.507 59.0008 124.787C59.2704 125.067 59.421 125.44 59.4211 125.829C59.4211 126.217 59.2705 126.591 59.0009 126.87C58.7313 127.15 58.3637 127.314 57.9755 127.329L57.9753 127.329ZM63.3755 127.329C62.9871 127.315 62.6194 127.15 62.3497 126.871C62.08 126.591 61.9292 126.217 61.9292 125.829C61.9292 125.44 62.08 125.067 62.3497 124.787C62.6194 124.507 62.9871 124.343 63.3755 124.329C63.7639 124.343 64.1319 124.507 64.4018 124.787C64.6717 125.066 64.8225 125.44 64.8225 125.829C64.8226 126.217 64.6717 126.591 64.4019 126.871C64.132 127.151 63.7641 127.315 63.3756 127.329L63.3755 127.329ZM68.5952 127.149C68.2068 127.135 67.8391 126.97 67.5694 126.691C67.2997 126.411 67.149 126.037 67.149 125.649C67.149 125.26 67.2997 124.887 67.5694 124.607C67.8391 124.327 68.2068 124.163 68.5952 124.149C68.9834 124.163 69.351 124.327 69.6207 124.607C69.8903 124.887 70.0409 125.26 70.041 125.649C70.041 126.037 69.8904 126.411 69.6208 126.69C69.3512 126.97 68.9836 127.134 68.5954 127.149L68.5952 127.149ZM73.7253 127.329C73.337 127.315 72.9692 127.15 72.6995 126.871C72.4298 126.591 72.2791 126.217 72.2791 125.829C72.2791 125.44 72.4298 125.067 72.6995 124.787C72.9692 124.507 73.337 124.343 73.7253 124.329C74.1136 124.343 74.4811 124.507 74.7508 124.787C75.0204 125.067 75.171 125.44 75.1711 125.829C75.1711 126.217 75.0205 126.591 74.7509 126.87C74.4813 127.15 74.1137 127.314 73.7255 127.329L73.7253 127.329ZM72.3354 129.329L72.0254 128.569L71.7053 129.389L70.2353 133.179C71.4953 133.249 72.7653 133.359 74.0353 133.539L72.3354 129.329ZM68.4453 128.619L68.7954 129.669L69.8452 132.839L71.3154 129.429L71.7253 128.469C70.6354 128.539 69.5355 128.589 68.4454 128.619H68.4453ZM68.1553 129.729L67.9453 129.139L67.7253 129.769L66.5952 133.069C67.5253 133.079 68.4553 133.099 69.3952 133.138L68.1553 129.729ZM67.3054 128.639C66.8252 128.639 66.3452 128.649 65.8554 128.659C65.4353 128.649 65.0153 128.649 64.5854 128.639L64.6953 128.919L65.1055 130.029L65.9953 132.399L66.9553 129.849L67.4053 128.639L67.3054 128.639ZM64.1353 130.119L63.8755 129.489C63.7854 129.719 63.6954 129.949 63.6055 130.179C63.2154 131.169 62.8252 132.159 62.4153 133.139C63.3953 133.099 64.3755 133.069 65.3555 133.059L64.1353 130.119ZM59.8253 128.449C59.9854 128.759 60.1353 129.079 60.2855 129.389C60.4554 129.749 60.6255 130.099 60.7955 130.459C61.0953 131.089 61.3953 131.709 61.6853 132.339C61.9453 131.649 62.2154 130.969 62.4754 130.289C62.6353 129.899 62.7954 129.499 62.9554 129.109C63.0154 128.939 63.0855 128.779 63.1553 128.609C62.0455 128.579 60.9354 128.529 59.8253 128.449H59.8253ZM72.3355 129.329L72.0255 128.569L71.7054 129.389L70.2354 133.179C71.4954 133.249 72.7654 133.359 74.0354 133.539L72.3355 129.329ZM68.4454 128.619L68.7955 129.669L69.8453 132.839L71.3155 129.428L71.7254 128.468C70.6354 128.539 69.5355 128.589 68.4454 128.619L68.4454 128.619ZM68.1554 129.729L67.9454 129.138L67.7254 129.769L66.5952 133.069C67.5254 133.079 68.4553 133.099 69.3952 133.138L68.1554 129.729ZM67.3055 128.638C66.8253 128.638 66.3453 128.649 65.8555 128.658C65.4353 128.649 65.0154 128.649 64.5855 128.638L64.6954 128.919L65.1055 130.029L65.9954 132.399L66.9554 129.849L67.4054 128.639L67.3055 128.638ZM64.1353 130.119L63.8756 129.489C63.7855 129.719 63.6955 129.949 63.6056 130.179C63.2155 131.169 62.8253 132.159 62.4154 133.139C63.3954 133.099 64.3756 133.069 65.3556 133.059L64.1353 130.119ZM59.8253 128.449C59.9855 128.759 60.1354 129.079 60.2856 129.388C60.4555 129.749 60.6256 130.099 60.7955 130.459C61.0954 131.089 61.3954 131.709 61.6854 132.339C61.9454 131.649 62.2154 130.969 62.4754 130.289C62.6354 129.899 62.7955 129.499 62.9554 129.109C63.0155 128.939 63.0856 128.779 63.1554 128.609C62.0455 128.579 60.9354 128.529 59.8253 128.449L59.8253 128.449ZM67.3056 128.638C66.4355 128.729 65.5656 128.829 64.6955 128.919L65.1056 130.029C65.7155 129.969 66.3356 129.908 66.9555 129.849L67.4055 128.638H67.3056ZM67.9455 129.138L67.7255 129.769C67.8654 129.759 68.0155 129.749 68.1554 129.729L67.9455 129.138ZM68.4455 128.619L68.7956 129.669L71.3156 129.428L71.7255 128.468C70.6354 128.539 69.5355 128.589 68.4454 128.619L68.4455 128.619ZM72.0255 128.569L71.7055 129.389C71.9154 129.369 72.1255 129.349 72.3356 129.329L72.0255 128.569ZM72.2855 128.429L72.6056 129.309L74.1354 133.539V133.549C74.1625 133.547 74.1896 133.55 74.2155 133.559L74.9155 129.089L75.0556 128.159C74.1256 128.279 73.2054 128.359 72.2855 128.429L72.2855 128.429ZM74.1256 133.569C74.1256 133.579 74.1256 133.599 74.1056 133.599C74.0949 133.603 74.0829 133.604 74.0719 133.6C74.0608 133.596 74.0515 133.589 74.0456 133.579C71.3286 133.913 68.5931 134.073 65.8556 134.059C64.5656 134.049 63.2755 134.019 61.9855 133.959C61.9216 134.006 61.8463 134.035 61.7672 134.044C61.6882 134.053 61.6083 134.041 61.5355 134.009C61.4932 133.985 61.453 133.959 61.4154 133.929C60.1154 133.849 58.8055 133.739 57.5055 133.559L58.1754 137.859H73.5455L74.2154 133.559C74.1851 133.557 74.1548 133.56 74.1256 133.569L74.1256 133.569ZM61.3854 137.479C60.9961 137.466 60.6271 137.302 60.3564 137.022C60.0856 136.742 59.9342 136.368 59.9342 135.979C59.9342 135.589 60.0856 135.215 60.3564 134.935C60.6271 134.655 60.9961 134.491 61.3854 134.479C61.7746 134.491 62.1436 134.655 62.4144 134.935C62.6852 135.215 62.8366 135.589 62.8366 135.979C62.8366 136.368 62.6852 136.742 62.4144 137.022C62.1436 137.302 61.7746 137.466 61.3854 137.479ZM66.4254 137.479C66.0361 137.466 65.6671 137.302 65.3963 137.022C65.1256 136.742 64.9742 136.368 64.9742 135.979C64.9742 135.589 65.1256 135.215 65.3963 134.935C65.6671 134.655 66.0361 134.491 66.4254 134.479C66.8146 134.491 67.1836 134.655 67.4544 134.935C67.7252 135.215 67.8766 135.589 67.8766 135.979C67.8766 136.368 67.7252 136.742 67.4544 137.022C67.1836 137.302 66.8146 137.466 66.4254 137.479ZM71.4654 137.299C71.0761 137.286 70.7072 137.122 70.4364 136.842C70.1656 136.562 70.0142 136.188 70.0142 135.799C70.0142 135.409 70.1656 135.035 70.4364 134.755C70.7072 134.475 71.0761 134.312 71.4654 134.299C71.8546 134.312 72.2236 134.475 72.4944 134.755C72.7652 135.035 72.9166 135.409 72.9166 135.799C72.9166 136.188 72.7653 136.562 72.4945 136.842C72.2237 137.122 71.8547 137.286 71.4655 137.299H71.4654ZM72.3355 129.329L72.0254 128.569L71.7054 129.388L70.2354 133.178C71.4954 133.249 72.7654 133.359 74.0354 133.539L72.3355 129.329ZM68.4454 128.619L68.7955 129.669L69.8453 132.839L71.3155 129.428L71.7254 128.468C70.6354 128.539 69.5355 128.589 68.4454 128.619L68.4454 128.619ZM68.1554 129.729L67.9454 129.138L67.7254 129.769L66.5952 133.069C67.5254 133.079 68.4553 133.099 69.3952 133.138L68.1554 129.729ZM67.3055 128.638C66.8253 128.638 66.3453 128.649 65.8555 128.658C65.4353 128.649 65.0154 128.649 64.5855 128.638L64.6954 128.919L65.1055 130.029L65.9954 132.399L66.9554 129.849L67.4054 128.638L67.3055 128.638ZM64.1353 130.119L63.8756 129.489C63.7855 129.719 63.6955 129.949 63.6056 130.178C63.2154 131.169 62.8253 132.158 62.4154 133.138C63.3954 133.099 64.3756 133.069 65.3556 133.059L64.1353 130.119ZM59.8253 128.449C59.9855 128.759 60.1353 129.079 60.2855 129.388C60.4555 129.749 60.6256 130.099 60.7955 130.459C61.0954 131.089 61.3954 131.709 61.6854 132.339C61.9454 131.649 62.2154 130.969 62.4754 130.289C62.6353 129.899 62.7955 129.499 62.9554 129.109C63.0155 128.939 63.0856 128.779 63.1554 128.609C62.0455 128.579 60.9354 128.529 59.8253 128.449L59.8253 128.449ZM59.9555 130.539C59.8156 130.189 59.6655 129.829 59.5255 129.469C59.4454 129.279 59.3756 129.079 59.2955 128.888C59.1854 129.099 59.0655 129.319 58.9554 129.529C58.7554 129.919 58.5455 130.309 58.3356 130.699C58.0255 131.289 57.7055 131.879 57.3756 132.468C57.3716 132.472 57.3668 132.475 57.3616 132.477C57.3563 132.479 57.3508 132.479 57.3453 132.479L57.5054 133.559C58.6854 133.388 59.8756 133.289 61.0555 133.208C60.6954 132.319 60.3253 131.429 59.9554 130.539L59.9555 130.539ZM60.7955 130.459C61.0954 131.089 61.3954 131.709 61.6854 132.339C61.9454 131.649 62.2154 130.969 62.4754 130.289C61.9154 130.339 61.3556 130.399 60.7955 130.459L60.7955 130.459ZM64.1354 130.119C63.9555 130.138 63.7755 130.158 63.6056 130.178C63.2155 131.169 62.8253 132.158 62.4154 133.138C63.3954 133.099 64.3756 133.069 65.3556 133.059L64.1354 130.119ZM65.1056 130.029L65.9955 132.399L66.9555 129.849C66.3356 129.909 65.7155 129.969 65.1056 130.029L65.1056 130.029ZM68.1554 129.729C68.0155 129.749 67.8654 129.759 67.7255 129.769L66.5954 133.069C67.5255 133.079 68.4555 133.099 69.3954 133.138L68.1554 129.729ZM68.7955 129.669L69.8454 132.839L71.3156 129.429L68.7955 129.669ZM72.3356 129.329C72.1256 129.349 71.9156 129.369 71.7054 129.388L70.2354 133.178C71.4954 133.249 72.7654 133.359 74.0354 133.539L72.3356 129.329ZM56.6654 128.159L56.9154 129.749L57.0753 130.829L57.3155 132.339C57.5255 131.799 57.7354 131.269 57.9454 130.739C58.0953 130.349 58.2555 129.969 58.4154 129.589C58.5753 129.189 58.7355 128.789 58.9054 128.388C58.1554 128.329 57.4154 128.249 56.6654 128.159Z" fill="#113E71"/>
<path d="M67.2428 125.885C66.4081 125.134 65.79 124.173 65.453 123.103C65.2958 122.569 65.0919 122.04 64.972 121.494L64.6336 119.849C64.3576 117.633 64.2733 115.397 64.3817 113.167C64.421 110.933 64.755 108.732 65.0138 106.522C65.4188 104.34 65.7308 102.133 66.2606 99.9785C66.7577 97.8157 67.2547 95.6533 67.8829 93.5278C68.4881 91.3955 69.0694 89.2576 69.8153 87.1707C70.5365 85.0769 71.1837 82.9602 71.9857 80.897C72.7972 78.8367 73.5675 76.7642 74.413 74.7207C73.2367 78.9897 71.8746 83.1868 70.7293 87.4468L69.8385 90.6301L69.0184 93.8303C68.7535 94.8984 68.4337 95.9536 68.1957 97.0273L67.472 100.246C66.9222 102.378 66.6126 104.553 66.171 106.706C65.8468 108.874 65.5058 111.043 65.3305 113.225C65.1148 115.403 65.0826 117.594 65.2343 119.777L65.4286 121.401C65.5006 121.943 65.6547 122.465 65.7643 123.002C66.0138 124.069 66.5215 125.059 67.2428 125.885Z" fill="#113E71"/>
<path d="M57.3352 132.448L57.3152 132.339L57.2852 132.428C57.2752 132.448 57.2852 132.468 57.3052 132.489C57.325 132.499 57.3352 132.489 57.345 132.479L57.3352 132.448Z" fill="#FCFCFC"/>
<path d="M92.7227 134.375C96.0021 133.473 99.3291 132.752 102.688 132.217C106.04 131.638 109.422 131.246 112.817 131.045C109.538 131.95 106.211 132.671 102.852 133.203C99.4997 133.781 96.1181 134.172 92.7227 134.375Z" fill="#113E71"/>
<path d="M132.414 133.937C135.693 133.034 139.02 132.314 142.38 131.779C145.731 131.199 149.113 130.808 152.509 130.607C149.23 131.512 145.903 132.232 142.543 132.765C139.191 133.342 135.809 133.734 132.414 133.937Z" fill="#113E71"/>
<path d="M173.114 126.884C176.394 125.981 179.721 125.26 183.08 124.726C186.432 124.146 189.813 123.755 193.209 123.553C189.93 124.459 186.603 125.179 183.243 125.711C179.891 126.289 176.51 126.68 173.114 126.884Z" fill="#113E71"/>
<path d="M343.079 190.073C340.99 188.657 339.151 186.904 337.635 184.887C336.08 182.909 334.679 180.815 333.443 178.623C332.2 176.439 331.077 174.191 330.041 171.906C329.005 169.615 328.038 167.314 327.175 164.925L328.126 165.519C323.113 166.168 318.019 165.727 313.192 164.227C310.795 163.524 308.451 162.65 306.179 161.612C303.905 160.602 301.692 159.462 299.55 158.198C295.28 155.687 291.22 152.834 287.41 149.668C283.601 146.52 279.999 143.131 276.625 139.52L276.608 139.502C276.489 139.373 276.424 139.203 276.426 139.027C276.428 138.851 276.497 138.682 276.619 138.556C278.075 137.049 279.583 135.65 281.146 134.288C282.7 132.922 284.341 131.656 286.017 130.438C287.692 129.206 289.475 128.129 291.345 127.219C293.216 126.223 295.284 125.652 297.4 125.549C297.442 125.549 297.483 125.556 297.522 125.569C299.508 126.256 301.511 126.894 303.505 127.559L309.493 129.533C313.479 130.868 317.491 132.124 321.496 133.403L320.725 133.822L325.978 111.833C327.749 104.508 329.553 97.1924 331.389 89.885L331.366 90.0005C331.494 89.3728 331.691 88.7611 331.954 88.1767C332.182 87.6311 332.453 87.122 332.723 86.6113C333.286 85.6262 333.916 84.6812 334.609 83.7829C335.97 82.0195 337.487 80.3821 339.142 78.8906C342.407 75.9518 345.958 73.347 349.742 71.115C351.635 69.978 353.596 68.9596 355.614 68.0654C357.641 67.1894 359.719 66.438 361.838 65.8157C366.078 64.5599 370.473 63.9063 374.894 63.874C379.309 63.8279 383.708 64.417 387.956 65.6233C390.083 66.2308 392.153 67.0231 394.143 67.9909C394.634 68.248 395.113 68.5329 395.597 68.8027L396.321 69.2131L397.011 69.6848C397.467 70.0034 397.933 70.3059 398.379 70.6379L399.66 71.7104C403.011 74.6633 405.391 78.5604 406.487 82.8901C407.439 87.149 407.561 91.5519 406.844 95.8569C406.842 95.873 406.836 95.8885 406.828 95.9025C406.819 95.9165 406.808 95.9287 406.795 95.9384C406.782 95.9481 406.767 95.9551 406.751 95.9591C406.736 95.963 406.719 95.9638 406.703 95.9614C406.672 95.9563 406.644 95.9398 406.624 95.9152C406.605 95.8905 406.595 95.8594 406.597 95.8281C407.014 91.5758 406.643 87.2833 405.502 83.1657C404.283 79.1434 401.894 75.575 398.639 72.9155L397.406 71.9646C396.976 71.6718 396.526 71.4072 396.089 71.1271L395.429 70.7124L394.733 70.3562C394.267 70.122 393.81 69.873 393.339 69.6506C391.43 68.7899 389.452 68.0922 387.425 67.5651C383.351 66.5176 379.147 66.0617 374.942 66.2111C372.846 66.2754 370.756 66.4878 368.689 66.8469C366.62 67.1844 364.575 67.6611 362.569 68.2736C360.564 68.8883 358.599 69.6246 356.683 70.4785C354.775 71.3477 352.914 72.3187 351.109 73.3874C347.479 75.5402 344.052 78.021 340.874 80.7988C339.31 82.168 337.872 83.6751 336.577 85.302C335.944 86.0989 335.366 86.9383 334.847 87.8144C334.609 88.2526 334.367 88.6899 334.174 89.1355C333.991 89.5314 333.844 89.9429 333.734 90.365L333.71 90.481C331.797 97.7688 329.852 105.049 327.877 112.321L321.885 134.119L321.88 134.138C321.859 134.213 321.824 134.283 321.777 134.344C321.729 134.405 321.67 134.456 321.602 134.494C321.535 134.533 321.461 134.557 321.384 134.567C321.307 134.577 321.229 134.571 321.154 134.55L321.114 134.538C317.151 133.136 313.195 131.711 309.213 130.365L303.249 128.318C301.259 127.643 299.278 126.94 297.28 126.287L297.4 126.306C295.403 126.428 293.457 126.988 291.7 127.946C289.896 128.87 288.182 129.962 286.58 131.206C284.959 132.437 283.407 133.757 281.933 135.16C280.456 136.555 279.01 138.012 277.672 139.513L277.666 138.549C281.123 141.964 284.794 145.157 288.657 148.106C292.481 151.086 296.494 153.814 300.671 156.275C302.76 157.488 304.888 158.629 307.079 159.627C309.253 160.648 311.498 161.511 313.796 162.209C318.333 163.705 323.132 164.242 327.888 163.784L327.922 163.781C328.12 163.76 328.32 163.808 328.486 163.916C328.653 164.025 328.777 164.188 328.838 164.378C329.581 166.705 330.458 169.037 331.39 171.322C332.326 173.611 333.349 175.866 334.489 178.057C335.579 180.273 336.833 182.405 338.24 184.435C339.618 186.485 341.296 188.316 343.218 189.868C343.245 189.887 343.263 189.917 343.268 189.949C343.273 189.982 343.265 190.015 343.246 190.042C343.227 190.067 343.199 190.084 343.168 190.09C343.138 190.095 343.106 190.09 343.079 190.073Z" fill="#113E71"/>
</svg>
