<svg width="426" height="334" viewBox="0 0 426 334" fill="none" xmlns="http://www.w3.org/2000/svg">
<path d="M140.707 259.531C140.665 259.531 140.625 259.523 140.586 259.507C140.548 259.491 140.514 259.468 140.485 259.439C140.455 259.41 140.432 259.375 140.416 259.337C140.401 259.299 140.393 259.258 140.393 259.217V229.5C140.394 229.418 140.427 229.339 140.486 229.281C140.545 229.224 140.624 229.191 140.707 229.191C140.789 229.191 140.868 229.224 140.927 229.281C140.986 229.339 141.019 229.418 141.021 229.5V259.217C141.021 259.258 141.012 259.299 140.997 259.337C140.981 259.375 140.958 259.41 140.929 259.439C140.899 259.468 140.865 259.491 140.827 259.507C140.789 259.523 140.748 259.531 140.707 259.531Z" fill="#113E71"/>
<path d="M171.998 205.935C171.322 207.083 170.527 208.157 169.624 209.138C168.758 210.148 167.809 211.077 166.876 212.024C164.952 213.854 162.977 215.635 160.899 217.291C156.754 220.625 152.362 223.64 147.761 226.309C143.164 229.014 138.305 231.248 133.259 232.977C130.727 233.839 128.135 234.514 125.504 234.997C124.171 235.156 122.843 235.417 121.505 235.491C120.166 235.53 118.825 235.591 117.486 235.608C112.146 235.428 106.84 234.677 101.66 233.366C96.4888 232.115 91.3985 230.551 86.4171 228.683C81.4313 226.85 76.5355 224.79 71.6642 222.709C70.4459 222.196 69.2245 221.671 67.9974 221.223C67.3968 221.012 66.7496 220.793 66.1068 220.527C65.8092 220.353 65.4972 220.201 65.2135 220.007C64.9344 219.806 64.6677 219.588 64.4149 219.355C63.4476 218.387 62.7213 217.205 62.2945 215.905C61.8605 214.624 61.6206 213.285 61.5826 211.933L61.586 211.972C58.3941 194.475 54.296 177.156 49.3082 160.084C46.8807 151.533 44.1693 143.065 41.3834 134.627C38.5924 126.191 35.6171 117.818 32.4576 109.511C30.8634 105.365 29.2662 101.22 27.5919 97.1064C26.7816 95.0433 25.8314 93.0383 25.1302 90.8547C24.4353 88.6905 23.9812 86.4562 23.7762 84.1924C23.6614 83.0453 23.629 81.8915 23.679 80.7399C23.8062 79.4931 24.3209 78.3176 25.1508 77.3785C25.9807 76.4395 27.0841 75.7842 28.3058 75.5047C29.415 75.2268 30.5452 75.0405 31.6849 74.9477C33.9881 74.7935 36.2986 75.1101 38.4754 75.8782L44.8141 77.9582L70.1693 86.2785C71.2545 86.5897 72.3134 86.9862 73.336 87.4645C74.359 87.9799 75.2969 88.6493 76.1168 89.4492C77.7741 91.0472 78.8558 93.1489 79.193 95.4263L81.0743 108.639C81.0765 108.655 81.0722 108.671 81.0624 108.684C81.0525 108.698 81.0379 108.706 81.0217 108.709C81.0055 108.711 80.9889 108.707 80.9756 108.698C80.9622 108.688 80.9532 108.674 80.9503 108.658L78.7355 95.5016C78.3546 93.3508 77.2896 91.3805 75.6988 89.8837C74.9142 89.1383 74.0196 88.5179 73.0465 88.0442C72.0476 87.595 71.0147 87.2253 69.9576 86.9386L44.492 78.963L38.1256 76.9692C36.0858 76.2759 33.9256 76.0075 31.7782 76.1805C30.7021 76.2859 29.6352 76.4706 28.5863 76.733C27.6241 76.9555 26.7559 77.4738 26.1033 78.2151C25.4508 78.9563 25.0468 79.8833 24.9481 80.8659C24.9108 81.9366 24.9461 83.0086 25.0538 84.0745C25.2552 86.244 25.6954 88.3846 26.3663 90.4575C27.0274 92.5115 27.9871 94.5375 28.8082 96.6101C30.494 100.733 32.1179 104.879 33.68 109.049C39.9271 125.728 45.3998 142.665 50.098 159.862C52.445 168.448 54.6344 177.076 56.5756 185.761C58.6249 194.422 60.3075 203.161 62.0177 211.894L62.0204 211.916L62.0211 211.933C62.0127 214.547 62.9879 217.068 64.7531 218.996C64.9884 219.21 65.2362 219.41 65.4953 219.595C65.7573 219.773 66.0497 219.904 66.3244 220.062C66.9086 220.29 67.5209 220.49 68.1742 220.705C69.4432 221.144 70.6676 221.646 71.8991 222.14C76.8102 224.138 81.7228 226.106 86.7162 227.85C91.6983 229.603 96.7681 231.097 101.905 232.325C107.02 233.569 112.247 234.301 117.507 234.508C118.816 234.499 120.124 234.447 121.434 234.419C122.739 234.356 124.025 234.109 125.323 233.964C127.908 233.506 130.456 232.86 132.946 232.031C137.938 230.338 142.761 228.182 147.352 225.59C151.961 223.006 156.374 220.086 160.555 216.855C162.666 215.264 164.678 213.546 166.642 211.777C167.594 210.861 168.565 209.962 169.451 208.982C170.37 208.036 171.186 206.995 171.886 205.877L171.89 205.871C171.899 205.857 171.912 205.846 171.929 205.842C171.945 205.838 171.962 205.84 171.976 205.849C171.99 205.857 172.001 205.871 172.005 205.887C172.009 205.903 172.006 205.921 171.998 205.935L171.998 205.935Z" fill="#113E71"/>
<path d="M28.827 81.2425L38.4444 84.618L48.0379 88.057L57.6199 91.5277L67.1848 95.0434C67.266 95.0732 67.3386 95.1226 67.3961 95.1871C67.4536 95.2517 67.4942 95.3295 67.5144 95.4135L67.5164 95.4227C69.4292 103.605 71.2674 111.805 73.0308 120.022C74.8103 128.234 76.5166 136.464 78.3658 144.661C82.0069 161.068 85.9842 177.399 89.827 193.761C90.7441 197.799 92.4188 201.627 94.7623 205.04C97.1016 208.437 100.162 211.276 103.724 213.354C107.298 215.387 111.327 216.483 115.438 216.542C117.514 216.528 119.587 216.407 121.65 216.178C123.727 215.955 125.803 215.722 127.86 215.38C131.98 214.752 136.031 213.741 139.963 212.361C143.886 210.924 147.696 209.197 151.361 207.193C155.058 205.227 158.668 203.082 162.244 200.882C165.838 198.71 169.399 196.478 172.962 194.252C172.976 194.243 172.993 194.24 173.009 194.243C173.025 194.247 173.04 194.257 173.049 194.271C173.058 194.284 173.061 194.301 173.058 194.317C173.054 194.333 173.045 194.348 173.031 194.357C166.063 199.054 159.129 203.816 151.785 207.966C148.118 210.072 144.29 211.886 140.338 213.39C136.361 214.864 132.25 215.948 128.063 216.626C125.975 216.979 123.876 217.222 121.777 217.454C119.664 217.695 117.54 217.825 115.414 217.844C111.079 217.81 106.827 216.654 103.071 214.489C99.4045 212.245 96.2428 209.265 93.7854 205.738C91.3281 202.21 89.6283 198.212 88.7934 193.995C85.1994 177.577 81.74 161.129 77.9443 144.757C76.0752 136.564 74.0632 128.404 72.1243 120.227C70.178 112.052 68.2977 103.862 66.4834 95.6571L66.8149 96.036L57.2824 92.4326L47.7668 88.7842L38.2632 85.104L28.7829 81.3602C28.7676 81.3542 28.7553 81.3424 28.7486 81.3273C28.7419 81.3123 28.7414 81.2952 28.7471 81.2798C28.7529 81.2644 28.7645 81.2518 28.7794 81.2449C28.7943 81.2379 28.8114 81.2371 28.8269 81.2425L28.827 81.2425Z" fill="#113E71"/>
<path d="M139.912 32.7878C137.278 31.1881 136.613 26.3685 138.644 23.1425C141.206 19.0744 144.069 26.4573 144.069 26.4573C148.739 33.3881 158.232 14.8556 158.232 14.8556C158.232 14.8556 150.698 5.36337 133.522 11.6915C116.345 18.0197 128.097 39.5656 128.097 39.5656C128.097 39.5656 110.168 48.0032 116.194 70.4531C116.194 70.4531 132.216 66.7248 131.261 39.9847C131.261 39.9847 137.966 37.3432 139.912 32.7878" fill="#113E71"/>
<path d="M141.79 33.2657C140.832 33.5023 139.819 33.3573 138.967 32.8612C138.931 32.8396 138.9 32.8112 138.876 32.7777C138.851 32.7441 138.833 32.7061 138.823 32.6657C138.814 32.6253 138.812 32.5834 138.818 32.5423C138.825 32.5012 138.839 32.4618 138.861 32.4263C138.882 32.3908 138.91 32.3598 138.944 32.3353C138.978 32.3108 139.016 32.2931 139.056 32.2832C139.096 32.2734 139.138 32.2716 139.179 32.2779C139.22 32.2843 139.26 32.2987 139.295 32.3203C139.318 32.3348 139.339 32.3517 139.358 32.3707C140.024 32.9698 140.895 33.2902 141.79 33.2657Z" fill="#113E71"/>
<path d="M157.742 15.8249C158.765 17.4623 159.566 19.2287 160.122 21.0776C160.718 22.951 160.943 24.9227 160.784 26.8822L160.664 26.5262C161.237 27.1283 161.796 27.744 162.347 28.3665L164.001 30.2683C164.146 30.4604 164.25 30.6801 164.307 30.9138C164.364 31.1475 164.373 31.3904 164.333 31.6277C164.292 31.8649 164.204 32.0914 164.074 32.2935C163.943 32.4955 163.773 32.6688 163.573 32.8026C163.233 33.0627 162.87 33.2907 162.488 33.4836C162.291 33.6068 162.069 33.6843 161.839 33.7105C161.608 33.7367 161.374 33.711 161.155 33.6351L161.373 33.5034C161.348 36.2146 161.064 38.9172 160.523 41.5741C160.24 42.9606 159.652 44.2667 158.801 45.3976C158.303 46.0161 157.6 46.4363 156.819 46.5824C156.427 46.6277 156.029 46.6117 155.642 46.5349L154.675 46.3685C153.416 46.1427 152.127 46.1431 150.868 46.3697C149.63 46.6266 148.485 47.2132 147.554 48.0675C145.738 49.9936 144.337 52.2719 143.437 54.7612C143.432 54.7736 143.423 54.7836 143.411 54.7889C143.399 54.7943 143.385 54.7947 143.372 54.7899C143.361 54.7851 143.352 54.7765 143.346 54.7655C143.341 54.7545 143.339 54.7419 143.342 54.73C143.667 53.4128 144.114 52.1291 144.679 50.8955C145.232 49.6222 146.005 48.4561 146.962 47.4505C147.962 46.4138 149.24 45.6881 150.642 45.3609C152.026 45.0681 153.455 45.0543 154.844 45.3203L155.857 45.5262C156.127 45.5884 156.405 45.6102 156.682 45.5909C157.236 45.4955 157.737 45.2062 158.097 44.7747C158.888 43.7674 159.466 42.6094 159.794 41.3716C160.566 38.8153 160.996 36.168 161.072 33.4988C161.074 33.4583 161.091 33.4202 161.121 33.3926C161.151 33.3651 161.19 33.3505 161.231 33.3519C161.252 33.353 161.272 33.3581 161.291 33.3669C161.469 33.4151 161.655 33.4246 161.836 33.3948C162.018 33.365 162.191 33.2966 162.344 33.1943C162.698 33.0003 163.031 32.7687 163.336 32.5036C163.479 32.3992 163.598 32.2663 163.687 32.1134C163.775 31.9605 163.831 31.7909 163.85 31.6154C163.87 31.4398 163.853 31.2621 163.8 31.0935C163.748 30.9249 163.661 30.769 163.545 30.6357L161.771 28.9149C161.177 28.3328 160.589 27.744 160.017 27.1416C159.974 27.0967 159.941 27.0433 159.92 26.985C159.899 26.9266 159.89 26.8645 159.895 26.8026L159.896 26.7854C159.976 25.8666 159.974 24.9425 159.889 24.0241C159.793 23.0946 159.64 22.1718 159.43 21.2611C158.992 19.4182 158.398 17.6158 157.655 15.8731C157.652 15.8672 157.65 15.8607 157.65 15.8542C157.65 15.8476 157.651 15.841 157.653 15.8348C157.655 15.8286 157.658 15.8229 157.663 15.818C157.667 15.8131 157.672 15.8091 157.678 15.8063C157.69 15.8016 157.702 15.8008 157.714 15.8042C157.725 15.8076 157.735 15.8149 157.742 15.8249Z" fill="#113E71"/>
<path d="M155.029 23.2179C155.596 22.6462 156.355 22.3052 157.159 22.2607C157.952 22.184 158.75 22.3608 159.436 22.7658C158.644 22.8265 157.931 22.8212 157.213 22.8858C156.479 22.9504 155.749 23.0613 155.029 23.2179Z" fill="#113E71"/>
<path d="M156.951 27.0976C157.195 27.0891 157.426 26.9862 157.596 26.8105C157.765 26.6349 157.86 26.4002 157.86 26.1559C157.86 25.9116 157.765 25.6769 157.596 25.5013C157.426 25.3256 157.195 25.2227 156.951 25.2142C156.707 25.2227 156.475 25.3256 156.306 25.5013C156.136 25.6769 156.041 25.9116 156.041 26.1559C156.041 26.4002 156.136 26.6349 156.306 26.8105C156.475 26.9862 156.707 27.0891 156.951 27.0976Z" fill="#113E71"/>
<path d="M144.746 37.9083C145.624 38.9756 146.424 40.0549 147.278 41.0903C148.117 42.1435 149.047 43.1207 150.057 44.0103C148.767 43.4704 147.641 42.6006 146.793 41.4883C145.909 40.4222 145.216 39.2109 144.746 37.9083Z" fill="#113E71"/>
<path d="M80.2842 104.563C80.9077 101.666 81.6653 98.8542 82.4832 96.0301C83.3111 93.2163 84.1758 90.4088 85.1768 87.6474C87.1225 82.0912 89.4483 76.6755 92.1377 71.4386C93.5088 68.8193 95.0241 66.2781 96.6768 63.8268C98.3174 61.3433 100.175 59.0101 102.227 56.8544C104.281 54.6445 106.651 52.7515 109.26 51.2372C111.921 49.7006 114.902 48.8003 117.969 48.6064L117.978 48.6061C118.03 48.6037 118.082 48.6061 118.134 48.6133C121.101 49.0459 124.041 49.5566 126.976 50.1355C129.91 50.7079 132.837 51.3271 135.747 52.046C138.695 52.7016 141.575 53.6327 144.349 54.8273C145.723 55.509 146.97 56.2301 148.324 56.8755L152.359 58.8061C153.721 59.4504 155.039 60.183 156.305 60.9994C157.606 61.8159 158.732 62.8834 159.616 64.1396C161.353 66.5138 163.392 68.7202 165.344 70.9597C169.292 75.4203 173.316 79.8141 177.417 84.1412C177.487 84.2143 177.53 84.3076 177.543 84.4075C177.555 84.5073 177.535 84.6084 177.485 84.6959L177.481 84.7027C175.96 87.3816 174.319 89.9623 172.595 92.5034C170.868 95.0394 169.035 97.5085 167.069 99.8802C165.097 102.269 162.934 104.493 160.601 106.531C158.241 108.67 155.467 110.304 152.452 111.332L152.854 111.093C150.675 113.309 148.445 115.436 146.095 117.476C144.917 118.492 143.712 119.482 142.423 120.405C141.77 120.881 141.088 121.316 140.382 121.71C139.567 122.219 138.633 122.505 137.673 122.54L138.728 121.313C139.228 123.505 139.747 125.701 140.291 127.881L141.132 131.137C141.274 131.676 141.423 132.213 141.58 132.737C141.716 133.223 141.881 133.7 142.072 134.168L142.095 134.218C142.151 134.344 142.181 134.479 142.185 134.616C142.189 134.754 142.166 134.891 142.116 135.019C142.067 135.147 141.993 135.265 141.899 135.364C141.804 135.464 141.691 135.544 141.566 135.6C141.461 135.646 141.35 135.675 141.237 135.686C134.237 136.344 127.249 136.792 120.231 137.037C113.201 137.324 106.16 137.162 99.151 136.554C97.3942 136.37 95.6376 136.149 93.8886 135.812C92.111 135.508 90.3713 135.014 88.6996 134.337C87.8228 133.979 87.004 133.493 86.2699 132.894C85.8814 132.562 85.5497 132.168 85.2879 131.728C85.0372 131.285 84.899 130.898 84.6998 130.481C83.9941 128.847 83.417 127.159 82.9737 125.435C82.1018 122.024 81.4696 118.557 81.0819 115.058C80.6733 111.567 80.4033 108.093 80.2842 104.563ZM80.4832 104.582C81.0025 111.531 82.1894 118.414 84.0274 125.136C84.5079 126.786 85.1165 128.396 85.8474 129.951C86.0357 130.316 86.2176 130.749 86.4099 131.059C86.6083 131.364 86.8544 131.636 87.1389 131.863C87.7818 132.347 88.4917 132.734 89.2464 133.013C92.5008 134.081 95.8824 134.714 99.303 134.894C106.247 135.33 113.21 135.373 120.159 135.021C127.121 134.749 134.098 134.271 141.023 133.591L140.188 135.11C139.937 134.538 139.726 133.949 139.556 133.348C139.387 132.791 139.231 132.24 139.084 131.688C138.78 130.586 138.518 129.482 138.252 128.379C137.727 126.171 137.231 123.965 136.752 121.748C136.723 121.618 136.721 121.483 136.745 121.352C136.769 121.221 136.818 121.096 136.89 120.984C136.962 120.872 137.056 120.775 137.165 120.699C137.275 120.624 137.398 120.57 137.529 120.542C137.62 120.523 137.714 120.516 137.807 120.521C138.384 120.449 138.939 120.255 139.435 119.95C140.075 119.602 140.693 119.216 141.286 118.793C142.505 117.941 143.688 116.993 144.846 116.015C147.159 114.053 149.402 111.96 151.554 109.819L151.561 109.812C151.672 109.703 151.807 109.624 151.956 109.58C154.745 108.657 157.322 107.188 159.537 105.259C161.839 103.32 163.983 101.2 165.949 98.921C167.946 96.6512 169.827 94.2678 171.609 91.8096C173.389 89.3535 175.09 86.82 176.649 84.2284L176.712 84.7895C172.752 80.3273 168.778 75.8834 164.849 71.3939C162.899 69.1294 160.937 66.9044 159.098 64.5065C157.427 62.1107 154.676 60.7625 152.034 59.4789C149.358 58.2267 146.584 56.997 143.939 55.6865C141.197 54.6129 138.361 53.7968 135.468 53.249C129.67 51.9956 123.767 51.1523 117.899 50.2862L118.063 50.2931C115.262 50.5002 112.547 51.3525 110.13 52.7833C107.683 54.2344 105.442 56.0076 103.467 58.0553C101.454 60.1189 99.6295 62.3569 98.0129 64.7429C96.3632 67.1278 94.8472 69.6024 93.4719 72.1553C90.6855 77.2739 88.2352 82.5686 86.1367 88.0056C84.0029 93.4322 82.0991 98.989 80.4832 104.582L80.4832 104.582Z" fill="#113E71"/>
<path d="M152.205 110.456C151.491 108.831 150.821 107.193 150.142 105.558C149.461 103.925 148.82 102.277 148.114 100.657C147.458 99.0167 146.754 97.3964 146.023 95.7924C145.67 94.9843 145.284 94.1927 144.867 93.4175C144.673 93.0234 144.454 92.6416 144.212 92.2746C144.098 92.0874 143.973 91.9065 143.839 91.7325L143.391 91.2455C144.687 92.4754 145.729 93.9483 146.458 95.5804C147.286 97.1561 147.989 98.7879 148.693 100.416C149.354 102.064 150.005 103.713 150.591 105.387C151.177 107.06 151.735 108.744 152.205 110.456Z" fill="#113E71"/>
<path d="M142.26 141.734C142.2 141.734 142.142 141.717 142.092 141.685C142.042 141.653 142.001 141.607 141.976 141.553L138.869 134.959C138.852 134.922 138.841 134.882 138.839 134.84C138.837 134.799 138.843 134.758 138.857 134.719C138.871 134.68 138.893 134.644 138.92 134.613C138.948 134.583 138.982 134.558 139.019 134.54C139.057 134.523 139.097 134.512 139.138 134.511C139.18 134.509 139.221 134.515 139.26 134.529C139.299 134.543 139.335 134.565 139.365 134.593C139.396 134.621 139.42 134.654 139.438 134.692L142.544 141.286C142.567 141.333 142.577 141.386 142.573 141.439C142.57 141.492 142.553 141.543 142.525 141.588C142.497 141.632 142.458 141.669 142.411 141.695C142.365 141.72 142.313 141.734 142.26 141.734Z" fill="#113E71"/>
<path d="M85.8779 131.701L89.6698 145.656C87.6859 138.657 86.2797 133.251 85.8779 131.701Z" fill="#113E71"/>
<path d="M219.779 219.395C217.659 223.125 218.639 230.795 218.199 233.405C217.602 237.095 216.198 240.609 214.089 243.695C213.519 239.305 212.849 234.925 212.159 230.545C211.469 226.175 210.689 221.815 209.969 217.445C209.159 213.095 208.399 208.725 207.549 204.385L206.259 197.865C205.789 195.695 205.359 193.525 204.859 191.365C205.139 193.565 205.469 195.755 205.779 197.955L206.789 204.515C207.479 208.895 208.249 213.255 208.979 217.615C209.789 221.975 210.549 226.335 211.399 230.685C212.249 235.025 213.109 239.375 214.089 243.695C209.349 250.645 201.369 255.035 192.469 258.385C185.8 260.88 178.933 262.807 171.939 264.145C166.819 219.165 174.809 187.525 174.809 187.525C174.809 187.525 173.899 186.395 170.739 186.395C167.569 186.395 158.759 191.595 158.759 191.595C125.309 211.935 114.909 200.635 106.999 192.045C101.809 186.405 94.2592 161.905 89.6992 145.785C120.439 157.085 137.509 141.415 140.709 141.415C141.719 141.415 146.669 140.895 153.569 140.235C154.382 141.065 155.014 142.054 155.427 143.14C155.84 144.225 156.025 145.385 155.969 146.545C158.829 150.605 162.299 143.825 160.789 141.415C160.451 140.863 160.188 140.268 160.009 139.645C161.379 139.525 162.799 139.395 164.249 139.275C166.659 142.575 169.449 147.455 171.939 149.855C176.309 154.075 177.069 147.295 177.069 147.295C182.489 151.215 182.489 144.285 182.489 144.285C187.309 147.145 185.649 140.235 185.649 140.235C185.98 139.947 186.224 139.573 186.355 139.155C186.486 138.737 186.497 138.29 186.389 137.865C192.545 137.559 198.714 137.646 204.859 138.125C223.619 140.025 241.479 194.755 241.479 194.755C242.159 204.475 227.459 205.835 219.779 219.395Z" fill="#113E71"/>
<path d="M112.469 234.73C113.168 239.093 113.599 243.476 114.054 247.857C114.477 252.241 114.678 256.643 114.951 261.038L115.786 274.224L116.558 287.414C116.559 287.43 116.553 287.446 116.542 287.459C116.532 287.471 116.516 287.479 116.5 287.48C116.484 287.481 116.467 287.476 116.455 287.466C116.442 287.455 116.434 287.44 116.433 287.424L115.16 274.272L113.95 261.116C113.542 256.731 113.061 252.351 112.803 247.955C112.576 243.555 112.326 239.158 112.344 234.74C112.344 234.724 112.35 234.709 112.36 234.697C112.371 234.685 112.386 234.678 112.402 234.677C112.418 234.676 112.433 234.681 112.446 234.69C112.458 234.7 112.467 234.715 112.469 234.73H112.469Z" fill="#113E71"/>
<path d="M126.201 234.382C126.643 238.795 126.815 243.213 127.011 247.63C127.175 252.048 127.117 256.47 127.13 260.892L127.187 274.154L127.181 287.418C127.181 287.434 127.174 287.45 127.163 287.462C127.151 287.474 127.136 287.48 127.119 287.481C127.103 287.481 127.087 287.475 127.075 287.463C127.063 287.452 127.056 287.436 127.055 287.42L126.559 274.165L126.126 260.91C125.977 256.492 125.755 252.074 125.756 247.653C125.789 243.231 125.798 238.81 126.076 234.384C126.077 234.368 126.084 234.353 126.095 234.342C126.107 234.332 126.122 234.325 126.138 234.325C126.153 234.325 126.169 234.331 126.181 234.341C126.192 234.351 126.2 234.366 126.201 234.382Z" fill="#113E71"/>
<path d="M121.649 297.998C138.75 297.998 152.612 292.382 152.612 285.454C152.612 278.527 138.75 272.911 121.649 272.911C104.549 272.911 90.6865 278.527 90.6865 285.454C90.6865 292.382 104.549 297.998 121.649 297.998Z" fill="#113E71"/>
<path d="M137.74 121.53C137.085 121.997 136.323 122.293 135.525 122.392C135.114 122.45 134.697 122.434 134.292 122.347C134.075 122.316 133.872 122.223 133.708 122.078C133.544 121.932 133.427 121.742 133.371 121.53C133.504 121.651 133.661 121.742 133.831 121.799C134.001 121.856 134.181 121.877 134.36 121.861C134.723 121.852 135.086 121.822 135.445 121.77C136.206 121.65 136.972 121.57 137.74 121.53Z" fill="#113E71"/>
<path d="M151.525 111.121C154.83 113.263 158.126 115.422 161.459 117.497C162.295 118.01 163.134 118.522 163.985 118.994C164.406 119.241 164.839 119.451 165.261 119.673C165.462 119.757 165.698 119.88 165.868 119.933C165.944 119.951 166.019 119.973 166.091 120C166.259 120.031 166.428 120.07 166.594 120.117C167.533 120.512 168.442 120.977 169.312 121.506C170.171 122.008 171.016 122.526 171.849 123.061C175.209 125.169 178.389 127.55 181.358 130.181C182.882 131.498 184.226 133.008 185.356 134.675L185.738 135.355L186.044 136.021C186.273 136.478 186.469 136.951 186.63 137.437C186.791 137.962 186.814 138.521 186.696 139.058C186.563 139.598 186.262 140.082 185.838 140.442L185.92 140.175C186.047 140.813 186.126 141.461 186.158 142.111C186.207 142.778 186.128 143.448 185.923 144.084C185.87 144.254 185.786 144.413 185.677 144.553L185.513 144.772L185.283 144.939C185.132 145.049 184.956 145.12 184.77 145.144C184.596 145.187 184.415 145.192 184.239 145.16C183.902 145.121 183.572 145.035 183.259 144.903L182.389 144.451L182.686 144.282C182.664 145.018 182.55 145.748 182.346 146.456C182.164 147.202 181.733 147.864 181.125 148.332C180.79 148.534 180.414 148.656 180.024 148.689C179.635 148.722 179.243 148.666 178.879 148.525C178.531 148.394 178.19 148.244 177.858 148.074L176.927 147.486L177.3 147.321C177.203 148.506 176.808 149.647 176.152 150.638C175.961 150.905 175.712 151.125 175.424 151.283C175.136 151.441 174.816 151.532 174.488 151.549L173.992 151.511C173.838 151.473 173.692 151.412 173.541 151.362C173.252 151.257 172.977 151.115 172.724 150.94C171.771 150.258 170.918 149.447 170.188 148.531C169.452 147.648 168.762 146.736 168.105 145.806C166.789 143.948 165.554 142.046 164.241 140.227C163.609 139.32 162.919 138.456 162.174 137.639C161.836 137.263 161.444 136.937 161.013 136.672C160.859 136.572 160.682 136.514 160.499 136.503C160.369 136.505 160.246 136.557 160.154 136.648L160.345 136.293C160.215 137.497 160.355 138.716 160.754 139.86C160.856 140.14 160.977 140.413 161.117 140.676C161.187 140.807 161.261 140.935 161.34 141.059C161.431 141.236 161.525 141.441 161.609 141.634C161.831 142.372 161.875 143.152 161.737 143.91C161.503 145.371 160.794 146.714 159.721 147.733C159.403 148.03 159.017 148.245 158.597 148.359C158.178 148.474 157.736 148.484 157.312 148.39C156.537 148.127 155.874 147.609 155.431 146.922C155.348 146.821 155.304 146.693 155.31 146.562L155.313 146.486C155.377 144.989 155.028 143.503 154.304 142.192C154.118 141.87 153.909 141.563 153.678 141.273C153.438 140.97 153.21 140.755 152.893 140.405C152.301 139.766 151.81 139.04 151.436 138.253C150.748 136.709 150.34 135.055 150.229 133.368C150.102 131.725 150.116 130.074 150.271 128.434L150.3 128.616C149.799 127.661 149.054 126.856 148.14 126.283C147.2 125.663 146.169 125.192 145.085 124.885C143.993 124.552 142.872 124.32 141.736 124.193C141.165 124.149 140.592 124.09 140.018 124.059L138.289 124.016C138.272 124.017 138.256 124.011 138.244 124C138.232 123.988 138.224 123.972 138.224 123.956C138.224 123.94 138.23 123.924 138.241 123.912C138.252 123.9 138.267 123.893 138.283 123.891L140.022 123.808C140.602 123.804 141.184 123.831 141.766 123.841C142.936 123.904 144.097 124.075 145.236 124.351C146.394 124.623 147.503 125.075 148.523 125.689C149.041 126.003 149.522 126.374 149.958 126.794C150.427 127.224 150.812 127.737 151.096 128.306C151.117 128.35 151.127 128.398 151.125 128.446L151.124 128.489C151.045 130.083 151.084 131.68 151.24 133.268C151.38 134.821 151.793 136.338 152.461 137.747C152.8 138.418 153.24 139.034 153.765 139.573C153.995 139.821 154.364 140.158 154.633 140.486C154.917 140.821 155.172 141.18 155.395 141.559C156.271 143.089 156.699 144.835 156.629 146.597L156.511 146.162C156.865 146.58 157.25 147.032 157.651 147.09C157.868 147.129 158.09 147.115 158.3 147.048C158.509 146.982 158.699 146.865 158.853 146.708C159.684 145.892 160.233 144.833 160.421 143.685C160.519 143.149 160.501 142.598 160.367 142.07L160.228 141.75C160.133 141.595 160.045 141.438 159.963 141.278C159.8 140.96 159.659 140.63 159.542 140.292C159.088 138.944 158.947 137.51 159.131 136.099C159.147 135.968 159.209 135.848 159.305 135.758L159.322 135.743C159.648 135.445 160.075 135.281 160.517 135.286C160.902 135.302 161.276 135.418 161.603 135.622C162.137 135.952 162.619 136.359 163.033 136.83C163.803 137.697 164.515 138.615 165.165 139.576C166.455 141.462 167.638 143.392 168.893 145.262C169.523 146.195 170.153 147.125 170.837 148.006C171.486 148.889 172.252 149.679 173.114 150.354C173.319 150.51 173.545 150.638 173.784 150.735C173.9 150.777 174.016 150.833 174.132 150.867L174.482 150.905C174.719 150.898 174.951 150.837 175.161 150.727C175.371 150.617 175.554 150.461 175.695 150.271C176.315 149.379 176.705 148.348 176.83 147.269C176.841 147.205 176.876 147.148 176.928 147.11C176.98 147.073 177.045 147.057 177.109 147.067C177.143 147.073 177.175 147.085 177.203 147.104L178.082 147.675C178.385 147.834 178.698 147.977 179.017 148.103C179.318 148.228 179.644 148.282 179.969 148.262C180.295 148.242 180.611 148.147 180.894 147.985C181.428 147.574 181.809 146.994 181.973 146.34C182.18 145.674 182.287 144.98 182.292 144.282C182.293 144.248 182.302 144.216 182.318 144.187C182.335 144.157 182.358 144.133 182.387 144.116C182.415 144.098 182.448 144.088 182.481 144.086C182.514 144.085 182.548 144.092 182.578 144.106L182.59 144.113L183.416 144.525C183.691 144.635 183.979 144.706 184.272 144.736C184.541 144.777 184.815 144.716 185.041 144.566C185.267 144.415 185.429 144.186 185.496 143.923C185.667 143.344 185.726 142.737 185.67 142.136C185.632 141.518 185.537 140.904 185.387 140.303C185.375 140.255 185.377 140.205 185.391 140.158C185.406 140.111 185.433 140.068 185.469 140.035C185.788 139.734 186.007 139.343 186.1 138.914C186.192 138.485 186.153 138.038 185.987 137.632C185.817 137.191 185.617 136.761 185.387 136.347L185.048 135.686L184.68 135.094C183.529 133.547 182.183 132.156 180.674 130.956C177.675 128.444 174.535 126.106 171.271 123.951C169.685 122.855 168.019 121.88 166.288 121.034C166.215 121.017 166.145 120.992 166.077 120.961C165.938 120.931 165.745 120.892 165.585 120.846C165.289 120.745 165.091 120.628 164.84 120.518C164.393 120.278 163.953 120.03 163.534 119.766C162.682 119.249 161.86 118.702 161.038 118.153C157.758 115.952 154.579 113.624 151.452 111.223C151.44 111.213 151.431 111.199 151.428 111.182C151.426 111.166 151.43 111.15 151.439 111.137C151.449 111.123 151.463 111.114 151.479 111.111C151.495 111.108 151.512 111.112 151.525 111.121L151.525 111.121Z" fill="#113E71"/>
<path d="M165.614 133.584C167.802 135.618 169.877 137.77 171.83 140.03C173.798 142.286 175.634 144.654 177.328 147.123C177.373 147.192 177.39 147.276 177.374 147.357C177.359 147.438 177.312 147.509 177.244 147.556C177.176 147.602 177.092 147.62 177.011 147.606C176.93 147.592 176.858 147.546 176.81 147.479L176.802 147.467C175.206 144.956 173.466 142.541 171.589 140.232C169.72 137.909 167.726 135.689 165.614 133.584Z" fill="#113E71"/>
<path d="M171.942 132.228C175.738 135.998 179.341 139.957 182.737 144.089C182.789 144.154 182.813 144.237 182.804 144.319C182.795 144.401 182.754 144.477 182.69 144.529C182.626 144.581 182.544 144.606 182.461 144.598C182.379 144.59 182.303 144.549 182.25 144.486L182.241 144.474C179.016 140.222 175.579 136.134 171.942 132.228Z" fill="#113E71"/>
<path d="M176.463 131.249C178.076 132.661 179.676 134.09 181.263 135.534L183.623 137.726C184.399 138.474 185.173 139.209 185.899 140.043C185.954 140.106 185.982 140.188 185.976 140.271C185.97 140.354 185.932 140.432 185.869 140.486C185.806 140.541 185.724 140.569 185.641 140.563C185.558 140.557 185.48 140.519 185.426 140.456L185.417 140.445L185.408 140.434C184.765 139.618 184.021 138.835 183.29 138.059L181.046 135.761C179.534 134.242 178.006 132.738 176.463 131.249Z" fill="#113E71"/>
<path d="M157.83 107.634C158.639 108.64 159.539 109.569 160.518 110.41C161.481 111.283 162.457 112.142 163.446 112.987L169.431 118.003C173.429 121.338 177.516 124.573 181.556 127.852L181.613 127.903L181.626 127.916C183.387 129.755 185.388 131.35 187.573 132.658C189.76 133.934 192.133 134.858 194.607 135.396C199.585 136.482 204.775 136.045 209.502 134.142C211.817 133.196 214.156 131.844 216.54 130.764C218.909 129.619 221.336 128.593 223.773 127.603C226.226 126.645 228.708 125.767 231.228 125.003C233.752 124.199 236.347 123.639 238.978 123.332C239.009 123.329 239.041 123.332 239.072 123.342L239.083 123.346C241.384 124.11 243.789 124.517 246.214 124.551C248.621 124.6 251.004 124.076 253.168 123.022C254.239 122.447 255.268 121.797 256.248 121.079C257.446 120.499 258.794 120.302 260.107 120.514C261.358 120.647 262.594 120.892 263.8 121.247C264.063 121.337 264.332 121.404 264.606 121.447C264.842 121.475 265.082 121.46 265.312 121.402C265.752 121.278 266.135 121.006 266.398 120.633L266.649 120.398C266.602 120.421 266.559 120.451 266.52 120.487C266.425 120.574 266.361 120.691 266.339 120.818C266.322 120.913 266.328 121.01 266.356 121.102C266.384 121.194 266.434 121.278 266.501 121.347L266.412 120.611C266.568 120.302 266.629 119.954 266.588 119.61C266.568 119.418 266.531 119.227 266.478 119.041C266.426 118.859 266.359 118.681 266.276 118.51C266.237 118.432 266.214 118.347 266.208 118.26C266.202 118.173 266.214 118.085 266.243 118.003L266.258 117.963C266.428 117.181 266.376 116.367 266.108 115.613C265.859 114.757 265.533 113.926 265.135 113.129C265.09 113.038 265.064 112.938 265.058 112.836C265.052 112.734 265.067 112.632 265.101 112.536L265.118 112.489C265.238 112.176 265.292 111.841 265.278 111.507C265.242 111.147 265.149 110.796 265.002 110.467C264.84 110.11 264.637 109.772 264.399 109.461C264.163 109.144 263.898 108.85 263.609 108.583C263.483 108.47 263.395 108.321 263.357 108.157C263.318 107.993 263.332 107.821 263.394 107.664L263.414 107.617C263.671 107.001 263.685 106.31 263.452 105.685C263.13 105.083 262.591 104.627 261.945 104.41C260.375 103.917 258.71 103.81 257.09 104.098C253.605 104.583 250.173 105.39 246.836 106.509L246.828 106.511C246.717 106.546 246.6 106.562 246.483 106.558C243.37 106.427 240.222 107.803 236.975 108.818C235.333 109.329 233.783 109.903 231.976 110.283C230.242 110.645 228.54 110.829 226.83 111.026C220.004 111.662 213.203 111.882 206.396 111.962L203.844 111.987L202.568 111.994L201.93 111.997C201.708 111.997 201.449 111.99 201.211 111.968C199.745 111.831 198.369 111.203 197.304 110.187C196.946 109.833 196.702 109.557 196.396 109.238L189.436 101.794C184.8 96.8273 180.199 91.8277 175.631 86.795C175.613 86.7758 175.604 86.7505 175.605 86.7245C175.606 86.6985 175.617 86.6739 175.635 86.6558C175.654 86.6377 175.679 86.6276 175.705 86.6277C175.731 86.6277 175.756 86.6379 175.775 86.656C180.661 91.38 185.508 96.1426 190.315 100.944L197.529 108.142C197.817 108.429 198.15 108.778 198.402 109.014C199.216 109.753 200.254 110.197 201.351 110.274C201.688 110.3 202.105 110.273 202.539 110.264L203.81 110.226L206.352 110.14C213.122 109.86 219.911 109.595 226.607 108.895C228.27 108.706 229.951 108.525 231.544 108.193C233.065 107.884 234.718 107.294 236.317 106.795C237.93 106.278 239.538 105.739 241.223 105.272C242.953 104.745 244.758 104.505 246.566 104.561L246.212 104.61C247.968 104.063 249.706 103.598 251.484 103.19C253.267 102.77 255.073 102.458 256.894 102.255C257.83 102.155 258.772 102.121 259.712 102.152C260.718 102.186 261.709 102.401 262.638 102.786C263.69 103.196 264.544 103.998 265.019 105.022C265.234 105.557 265.326 106.134 265.287 106.709C265.255 107.267 265.121 107.814 264.892 108.323L264.697 107.358C265.067 107.71 265.401 108.097 265.696 108.513C265.997 108.928 266.25 109.376 266.45 109.848C266.66 110.351 266.784 110.885 266.819 111.429C266.834 112 266.726 112.568 266.502 113.094L266.486 112.454C266.909 113.354 267.242 114.293 267.48 115.258C267.607 115.757 267.685 116.267 267.714 116.781C267.761 117.355 267.678 117.931 267.472 118.469L267.453 117.922C267.68 118.428 267.815 118.971 267.85 119.525C267.892 120.12 267.755 120.715 267.456 121.231L267.367 120.496C267.436 120.567 267.486 120.653 267.515 120.747C267.544 120.841 267.55 120.94 267.533 121.037C267.51 121.169 267.444 121.289 267.345 121.379C267.3 121.421 267.249 121.456 267.193 121.483L267.444 121.248C267.238 121.588 266.95 121.871 266.606 122.071C266.287 122.272 265.941 122.423 265.577 122.519C265.209 122.598 264.829 122.609 264.457 122.551C264.127 122.49 263.802 122.401 263.488 122.284C262.352 121.911 261.186 121.641 260.002 121.477C258.888 121.256 257.733 121.372 256.686 121.812C255.666 122.509 254.6 123.137 253.495 123.691C251.221 124.769 248.723 125.29 246.207 125.212C243.723 125.133 241.262 124.703 238.899 123.934L239.003 123.948C236.429 124.262 233.895 124.848 231.445 125.698C228.965 126.497 226.543 127.471 224.154 128.513C221.778 129.587 219.418 130.697 217.113 131.919C214.767 133.087 212.61 134.463 210.117 135.6C205.119 137.804 199.546 138.344 194.218 137.142C191.57 136.54 189.034 135.525 186.702 134.134C184.402 132.724 182.311 130.998 180.49 129.007L180.559 129.071C176.548 125.728 172.635 122.28 168.732 118.815C166.777 117.087 164.859 115.317 162.978 113.503C162.032 112.603 161.102 111.685 160.186 110.751C159.738 110.272 159.276 109.812 158.852 109.308L158.216 108.556C158.017 108.29 157.839 108.002 157.653 107.728C157.639 107.707 157.634 107.68 157.638 107.655C157.643 107.629 157.658 107.607 157.68 107.592C157.701 107.577 157.727 107.571 157.753 107.576C157.779 107.58 157.802 107.594 157.817 107.615L157.83 107.634Z" fill="#113E71"/>
<path d="M251.346 108.121C253.443 107.45 255.599 106.984 257.786 106.727C258.889 106.592 260.003 106.572 261.111 106.666C262.265 106.721 263.382 107.086 264.346 107.723C264.413 107.772 264.458 107.846 264.471 107.928C264.484 108.011 264.463 108.095 264.414 108.162C264.365 108.229 264.291 108.274 264.208 108.287C264.126 108.299 264.042 108.279 263.975 108.23L263.959 108.217C263.105 107.604 262.102 107.23 261.054 107.134C259.98 106.991 258.893 106.96 257.812 107.04C255.627 107.192 253.461 107.554 251.346 108.121Z" fill="#113E71"/>
<path d="M254.208 111.806C256.174 111.379 258.174 111.125 260.184 111.045C261.201 111.011 262.218 111.074 263.223 111.231C264.296 111.348 265.296 111.83 266.056 112.597C266.111 112.659 266.14 112.741 266.134 112.824C266.129 112.907 266.092 112.985 266.029 113.041C265.998 113.068 265.962 113.089 265.923 113.102C265.884 113.116 265.843 113.121 265.802 113.119C265.719 113.114 265.641 113.076 265.586 113.014L265.574 113L265.563 112.986C264.92 112.293 264.062 111.838 263.128 111.692C262.159 111.489 261.174 111.378 260.185 111.359C258.183 111.334 256.184 111.484 254.208 111.806Z" fill="#113E71"/>
<path d="M255.263 115.805C257.302 115.436 259.381 115.334 261.446 115.504C262.495 115.58 263.526 115.806 264.511 116.174C265.539 116.538 266.444 117.183 267.122 118.037C267.147 118.07 267.166 118.108 267.176 118.148C267.187 118.188 267.189 118.229 267.183 118.27C267.177 118.311 267.164 118.351 267.143 118.386C267.122 118.422 267.094 118.453 267.061 118.478C267.027 118.503 266.99 118.521 266.95 118.531C266.909 118.541 266.868 118.543 266.827 118.538C266.786 118.532 266.746 118.517 266.711 118.496C266.675 118.475 266.644 118.447 266.62 118.414L266.611 118.402L266.606 118.394C266.029 117.599 265.24 116.981 264.33 116.609C263.399 116.207 262.415 115.939 261.409 115.815C259.369 115.545 257.303 115.541 255.263 115.805Z" fill="#113E71"/>
<path d="M222.82 15.2736V75.8432L306.894 83.3013V15.2736H222.82ZM297.628 74.2611L231.409 68.8369V23.4098L297.628 22.7317V74.2611Z" fill="#113E71"/>
<path d="M236.403 28.3082C236.491 30.1618 236.569 31.9412 236.609 33.6915C236.654 35.4442 236.681 37.1677 236.615 38.9081L236.381 38.6744C237.875 38.7246 239.369 38.7989 240.863 38.8057C242.358 38.8206 243.852 38.7861 245.346 38.7364L245.174 38.9081C245.109 37.1378 245.062 35.3674 245.045 33.5972C245.011 31.8268 245.009 30.0564 245.026 28.2862L245.346 28.6056C243.892 28.612 242.431 28.5397 240.954 28.5038L236.403 28.3082ZM236.359 28.2637L240.773 28.0681C242.284 28.0323 243.812 27.9601 245.346 27.9664C245.43 27.9672 245.511 28.0012 245.571 28.061C245.631 28.1207 245.665 28.2016 245.665 28.2861C245.683 30.0564 245.681 31.8267 245.647 33.5971C245.63 35.3673 245.583 37.1377 245.518 38.9081L245.517 38.9201C245.517 38.9419 245.512 38.9633 245.503 38.9831C245.494 39.0029 245.481 39.0208 245.465 39.0357C245.449 39.0505 245.43 39.0621 245.41 39.0697C245.389 39.0773 245.368 39.0808 245.346 39.08C243.852 39.0303 242.358 38.9958 240.863 39.0108C239.369 39.0175 237.875 39.0918 236.381 39.142C236.351 39.143 236.322 39.1381 236.294 39.1277C236.266 39.1173 236.241 39.1015 236.219 39.0812C236.198 39.0609 236.18 39.0366 236.168 39.0096C236.156 38.9826 236.149 38.9534 236.148 38.9237L236.147 38.9081C236.081 37.1077 236.108 35.2906 236.153 33.5026C236.193 31.7121 236.271 29.9509 236.359 28.2637H236.359Z" fill="#113E71"/>
<path d="M279.401 27.3713C279.556 30.9781 279.661 34.4899 279.753 37.9741C279.861 41.4667 279.908 44.8983 279.948 48.3276C279.988 51.7545 279.934 55.1431 279.822 58.5499C279.728 61.9572 279.587 65.3909 279.577 68.8399L279.35 68.6125C281.392 68.6409 283.433 68.5877 285.475 68.5793C287.517 68.5645 289.558 68.4863 291.6 68.4428L291.203 68.8399C291.09 65.3798 291.007 61.9198 290.954 58.4599L290.838 48.08C290.812 44.6199 290.821 41.1599 290.865 37.7L291.056 27.32L291.6 27.8638L285.608 27.6414L279.401 27.3713ZM279.299 27.2686L285.342 26.9986L291.6 26.7761C291.669 26.7736 291.738 26.7848 291.802 26.8089C291.867 26.833 291.926 26.8696 291.976 26.9166C292.027 26.9636 292.067 27.02 292.096 27.0827C292.125 27.1455 292.141 27.2132 292.143 27.2821L292.143 27.2882L292.144 27.32L292.336 37.7001C292.377 41.16 292.386 44.62 292.363 48.0801L292.246 58.4599C292.189 61.9199 292.106 65.3799 291.997 68.8399L291.997 68.8614C291.993 68.9636 291.95 69.0604 291.875 69.1307C291.801 69.201 291.702 69.2393 291.6 69.2371C289.558 69.1937 287.517 69.1154 285.475 69.1007C283.433 69.0923 281.392 69.039 279.35 69.0673C279.321 69.0678 279.291 69.0624 279.264 69.0515C279.237 69.0406 279.212 69.0244 279.191 69.0039C279.17 68.9833 279.153 68.9588 279.141 68.9318C279.129 68.9047 279.123 68.8756 279.123 68.8462L279.123 68.8399C279.113 65.3689 278.973 61.8825 278.878 58.3699C278.766 54.8566 278.713 51.3253 278.752 47.8323C278.792 44.3416 278.839 40.8531 278.947 37.4258C279.039 33.99 279.144 30.5819 279.299 27.2686Z" fill="#113E71"/>
<path d="M270.493 85.9993V80.0722L261.227 79.2502V85.0694C255.6 85.2213 251.408 86.7649 251.187 89.042C250.91 91.8994 256.987 94.8274 264.762 95.5819C272.536 96.3363 279.063 94.6313 279.34 91.7739C279.558 89.5302 275.857 87.2434 270.493 85.9993Z" fill="#113E71"/>
<path d="M183.802 95.0802C188.4 92.1492 193.052 89.3073 197.719 86.4914C197.774 86.4593 197.838 86.4471 197.901 86.4567C202.219 87.1204 206.522 87.8814 210.823 88.6534C215.123 89.4361 219.437 90.1276 223.758 90.7768L236.719 92.732C241.035 93.4143 245.356 94.0626 249.665 94.7858C249.75 94.7998 249.826 94.847 249.877 94.9172C249.927 94.9873 249.948 95.0746 249.934 95.1598C249.92 95.2426 249.875 95.3169 249.808 95.3676C246.608 97.77 243.386 100.142 240.142 102.484L235.292 106.019L230.411 109.514C230.405 109.519 230.396 109.521 230.388 109.519C230.38 109.518 230.373 109.514 230.368 109.507C230.363 109.5 230.361 109.492 230.362 109.484C230.363 109.476 230.367 109.469 230.374 109.464L235.103 105.767L239.864 102.112C243.032 99.6681 246.217 97.2463 249.418 94.8465L249.561 95.4283C245.244 94.7541 240.939 94.0049 236.629 93.2899L223.713 91.0528C219.408 90.3045 215.096 89.5987 210.77 88.9839C206.445 88.3586 202.122 87.7221 197.815 86.9885L197.996 86.9538C193.303 89.7275 188.595 92.4753 183.834 95.134C183.827 95.1379 183.818 95.139 183.81 95.1369C183.802 95.1348 183.796 95.1296 183.792 95.1226C183.787 95.1156 183.786 95.1073 183.788 95.0993C183.79 95.0914 183.795 95.0845 183.802 95.0801V95.0802Z" fill="#113E71"/>
<path d="M189.376 100.851C192.021 101.528 194.645 102.27 197.266 103.022L205.107 105.354L212.906 107.824C215.498 108.673 218.087 109.531 220.655 110.456C218.01 109.78 215.386 109.038 212.764 108.286L204.923 105.953L197.125 103.482C194.533 102.634 191.945 101.775 189.376 100.851Z" fill="#113E71"/>
<path d="M278.361 89.5854C279.947 89.37 281.551 89.3233 283.147 89.4462C284.787 89.5249 286.394 89.9378 287.868 90.6596C288.639 91.0604 289.303 91.6389 289.806 92.3474C290.307 93.0869 290.585 93.9552 290.605 94.8482C290.621 95.7054 290.492 96.5592 290.225 97.3738C289.988 98.2122 289.582 98.9932 289.032 99.6686C288.482 100.344 287.807 100.908 287.045 101.329C286.328 101.743 285.577 102.092 284.799 102.374C283.251 102.95 281.619 103.268 279.968 103.314C278.339 103.348 276.715 103.137 275.149 102.687C273.646 102.224 272.046 102.175 270.519 102.546C271.233 102.158 272.029 101.945 272.842 101.923C273.652 101.871 274.466 101.899 275.27 102.008C276.8 102.283 278.359 102.362 279.909 102.243C281.435 102.119 282.936 101.776 284.365 101.225C285.075 100.95 285.764 100.623 286.426 100.245C287.064 99.9082 287.631 99.4505 288.094 98.8974C288.559 98.3444 288.914 97.7085 289.142 97.0233C289.392 96.3338 289.526 95.6072 289.536 94.8737C289.55 94.1696 289.364 93.4759 289 92.8731C288.605 92.2645 288.073 91.7568 287.446 91.3907C286.096 90.6381 284.618 90.1433 283.087 89.9316C281.525 89.6824 279.944 89.5666 278.361 89.5854Z" fill="#113E71"/>
<path d="M271.893 106.802C271.893 106.802 271.623 115.623 266.934 120.921C267.122 120.493 267.213 120.029 267.201 119.561C267.189 119.093 267.074 118.634 266.865 118.216C267.618 116.408 265.81 112.792 265.81 112.792C266.865 110.381 264.152 107.97 264.152 107.97C264.152 107.97 265.81 104.505 261.44 103.299C261.44 103.299 273.381 97.7245 271.893 106.802Z" fill="#113E71"/>
<path d="M297.526 172.781C297.483 172.781 297.441 172.774 297.401 172.761L216.59 146.04C216.54 146.023 216.493 145.997 216.454 145.963C216.414 145.928 216.381 145.886 216.358 145.84C216.334 145.793 216.32 145.741 216.316 145.689C216.312 145.637 216.319 145.584 216.335 145.534C216.352 145.484 216.378 145.438 216.412 145.398C216.446 145.359 216.488 145.326 216.535 145.302C216.582 145.279 216.633 145.265 216.686 145.261C216.738 145.257 216.791 145.263 216.841 145.28L297.482 171.946L401.315 112.559V107.795L208.745 72.6753L177.209 84.8384C177.11 84.8761 177 84.8732 176.903 84.8302C176.807 84.7871 176.731 84.7076 176.693 84.6088C176.655 84.5101 176.657 84.4003 176.7 84.3035C176.743 84.2067 176.822 84.1307 176.921 84.0923L208.562 71.8881C208.631 71.8634 208.705 71.8563 208.777 71.8676L401.786 107.068C401.878 107.085 401.962 107.133 402.021 107.205C402.081 107.277 402.114 107.368 402.114 107.461V112.791C402.115 112.862 402.096 112.931 402.061 112.992C402.025 113.053 401.974 113.103 401.913 113.138L297.725 172.728C297.664 172.763 297.596 172.781 297.526 172.781Z" fill="#113E71"/>
<path d="M297.3 167.723C297.268 167.723 297.236 167.718 297.206 167.708L211.323 140.538C211.284 140.525 211.248 140.505 211.216 140.479C211.185 140.452 211.159 140.42 211.14 140.383C211.101 140.309 211.094 140.223 211.119 140.144C211.144 140.065 211.2 139.999 211.274 139.96C211.347 139.922 211.433 139.915 211.513 139.94L297.264 167.069L401.559 107.189C401.594 107.168 401.634 107.155 401.675 107.15C401.716 107.145 401.757 107.147 401.797 107.158C401.837 107.169 401.874 107.188 401.907 107.213C401.939 107.238 401.967 107.269 401.987 107.305C402.008 107.341 402.021 107.38 402.026 107.421C402.032 107.462 402.029 107.504 402.018 107.544C402.007 107.583 401.989 107.621 401.964 107.653C401.938 107.686 401.907 107.713 401.871 107.734L297.457 167.682C297.409 167.709 297.355 167.723 297.3 167.723Z" fill="#113E71"/>
<path d="M297.526 172.695C297.445 172.695 297.368 172.664 297.309 172.608C297.251 172.552 297.216 172.476 297.213 172.396L296.987 167.424C296.985 167.383 296.991 167.342 297.005 167.303C297.019 167.264 297.04 167.229 297.068 167.198C297.096 167.168 297.13 167.143 297.167 167.125C297.204 167.108 297.245 167.098 297.286 167.096C297.368 167.095 297.448 167.126 297.509 167.181C297.569 167.236 297.607 167.313 297.614 167.395L297.84 172.367C297.842 172.408 297.835 172.449 297.821 172.488C297.807 172.527 297.786 172.562 297.758 172.593C297.73 172.623 297.697 172.648 297.659 172.665C297.622 172.683 297.582 172.693 297.54 172.695H297.526Z" fill="#113E71"/>
<path d="M297.555 170.92L298.183 209.311L298.654 247.702C298.823 260.499 299.173 273.296 298.967 286.093C298.854 292.491 298.741 298.89 298.492 305.288L298.114 314.886C297.926 318.085 297.796 321.284 297.555 324.484C297.552 324.523 297.534 324.56 297.505 324.587C297.476 324.614 297.438 324.629 297.398 324.629C297.358 324.629 297.32 324.614 297.291 324.587C297.262 324.56 297.244 324.523 297.241 324.484C297 321.284 296.87 318.085 296.682 314.886L296.304 305.288C296.055 298.89 295.942 292.491 295.829 286.093C295.623 273.296 295.973 260.499 296.142 247.702L296.613 209.311L297.241 170.92C297.242 170.879 297.259 170.84 297.288 170.811C297.317 170.782 297.357 170.766 297.398 170.766C297.439 170.766 297.479 170.782 297.508 170.811C297.537 170.84 297.554 170.879 297.555 170.92Z" fill="#113E71"/>
<path d="M393.736 118.216L394.363 156.607L394.834 194.997C395.004 207.794 395.354 220.591 395.148 233.388C395.035 239.787 394.922 246.185 394.673 252.584L394.295 262.181C394.106 265.381 393.977 268.58 393.736 271.779C393.733 271.819 393.715 271.856 393.686 271.882C393.657 271.909 393.618 271.924 393.579 271.924C393.539 271.924 393.501 271.909 393.472 271.882C393.443 271.856 393.425 271.819 393.422 271.779C393.181 268.58 393.051 265.381 392.863 262.181L392.485 252.584C392.236 246.185 392.122 239.787 392.009 233.388C391.804 220.591 392.153 207.794 392.323 194.997L392.794 156.607L393.422 118.216C393.422 118.174 393.439 118.135 393.469 118.106C393.498 118.077 393.537 118.061 393.579 118.061C393.62 118.061 393.66 118.077 393.689 118.106C393.718 118.135 393.735 118.174 393.736 118.216H393.736Z" fill="#113E71"/>
<path d="M233.793 223.685C233.793 223.685 240.973 224.283 265.638 241.218C269.673 244.042 274.611 245.271 279.499 244.67C280.801 244.525 282.077 244.198 283.288 243.697C283.288 243.697 302.047 248.546 285.322 251.71C285.322 251.71 261.365 252.388 243.511 239.279L243.737 246.512H234.697C234.697 246.512 230.629 227.753 233.793 223.685Z" fill="#113E71"/>
<path d="M241.466 196.135C242.853 198.471 244.169 200.844 245.522 203.197L249.462 210.32C250.791 212.685 252.039 215.099 253.327 217.479C254.601 219.828 256.123 222.034 257.869 224.059C258.727 225.081 259.637 226.058 260.597 226.986C261.554 227.907 262.589 228.78 263.611 229.67C265.654 231.448 267.75 233.16 269.823 234.9C271.908 236.623 274.03 238.304 276.226 239.878C277.314 240.679 278.428 241.444 279.584 242.14L280.46 242.646L281.366 243.092C281.972 243.39 282.62 243.594 283.287 243.697C281.925 243.553 280.608 243.121 279.424 242.431C278.208 241.81 277.031 241.117 275.88 240.387C273.594 238.902 271.393 237.298 269.223 235.657C267.043 234.028 264.96 232.279 262.871 230.54C261.836 229.664 260.782 228.802 259.771 227.856C256.736 225.032 254.215 221.703 252.321 218.016C251.076 215.597 249.808 213.205 248.611 210.768L244.98 203.482C243.81 201.032 242.602 198.602 241.466 196.135Z" fill="#113E71"/>
<path d="M224.874 212.736C226.688 214.26 228.344 215.961 229.82 217.814C231.338 219.632 232.669 221.599 233.792 223.685C231.977 222.163 230.32 220.462 228.847 218.607C227.33 216.787 225.999 214.821 224.874 212.736Z" fill="#113E71"/>
<path d="M182.239 278.683C182.239 278.683 189.435 278.32 216.135 291.82C220.51 294.081 225.568 294.642 230.332 293.395C231.604 293.079 232.825 292.584 233.958 291.927C233.958 291.927 253.195 294.235 237.041 299.597C237.041 299.597 213.388 303.459 193.947 292.844L195.134 299.982L186.174 301.186C186.174 301.186 179.645 283.136 182.239 278.683Z" fill="#113E71"/>
<path d="M197.388 256.37C197.981 258.58 198.495 260.805 199.051 263.022L199.82 266.362C200.033 267.453 200.373 268.516 200.833 269.529C201.296 270.521 201.887 271.449 202.591 272.289C203.313 273.13 204.102 273.95 204.909 274.727C206.522 276.293 208.27 277.714 210.132 278.974C213.914 281.48 217.772 283.936 221.659 286.296C223.606 287.474 225.579 288.612 227.603 289.642C228.603 290.181 229.629 290.667 230.68 291.099C231.711 291.577 232.823 291.858 233.958 291.927C232.805 291.994 231.65 291.819 230.568 291.412C229.472 291.064 228.394 290.659 227.34 290.199C225.239 289.269 223.198 288.218 221.179 287.134C217.143 284.95 213.272 282.526 209.426 280.011C207.511 278.698 205.72 277.212 204.077 275.571C203.261 274.742 202.485 273.895 201.743 272.985C200.996 272.055 200.392 271.019 199.951 269.911C199.519 268.819 199.215 267.681 199.046 266.519L198.451 263.144C198.098 260.886 197.704 258.636 197.388 256.37Z" fill="#113E71"/>
<path d="M181.63 261.889C182.175 264.649 182.486 267.45 182.561 270.263C182.693 273.074 182.585 275.89 182.239 278.683C181.692 275.923 181.38 273.121 181.308 270.309C181.179 267.498 181.286 264.681 181.63 261.889Z" fill="#113E71"/>
<path d="M160.838 38.4C159.558 38.5252 158.268 38.3051 157.102 37.7624C156.493 37.4937 155.96 37.0801 155.549 36.5578C155.139 36.033 154.952 35.3678 155.03 34.7065C155.203 35.2738 155.504 35.7936 155.91 36.2255C156.317 36.6574 156.817 36.9898 157.373 37.1967C158.495 37.6871 159.654 38.0894 160.838 38.4Z" fill="#113E71"/>
<path d="M282.24 32.42C282.629 32.4065 282.997 32.2425 283.267 31.9627C283.538 31.6829 283.689 31.309 283.689 30.92C283.689 30.5309 283.538 30.157 283.267 29.8772C282.997 29.5974 282.629 29.4334 282.24 29.42C281.851 29.4334 281.483 29.5974 281.212 29.8772C280.942 30.157 280.791 30.5309 280.791 30.92C280.791 31.309 280.942 31.6829 281.212 31.9627C281.483 32.2425 281.851 32.4065 282.24 32.42Z" fill="#113E71"/>
<path d="M282.48 40.7C282.869 40.6865 283.237 40.5226 283.508 40.2428C283.778 39.9629 283.929 39.589 283.929 39.2C283.929 38.8109 283.778 38.4371 283.508 38.1572C283.237 37.8774 282.869 37.7135 282.48 37.7C282.091 37.7135 281.723 37.8774 281.453 38.1572C281.182 38.4371 281.031 38.8109 281.031 39.2C281.031 39.589 281.182 39.9629 281.453 40.2428C281.723 40.5226 282.091 40.6865 282.48 40.7Z" fill="#113E71"/>
<path d="M282.6 49.58C282.989 49.5665 283.358 49.4026 283.628 49.1227C283.898 48.8429 284.049 48.4691 284.049 48.08C284.049 47.6909 283.898 47.3171 283.628 47.0372C283.358 46.7574 282.989 46.5935 282.6 46.58C282.211 46.5935 281.843 46.7574 281.573 47.0372C281.302 47.3171 281.151 47.6909 281.151 48.08C281.151 48.4691 281.302 48.8429 281.573 49.1227C281.843 49.4026 282.211 49.5665 282.6 49.58Z" fill="#113E71"/>
<path d="M282.6 59.42C282.989 59.4065 283.358 59.2425 283.628 58.9627C283.898 58.6829 284.049 58.309 284.049 57.92C284.049 57.5309 283.898 57.157 283.628 56.8772C283.358 56.5974 282.989 56.4334 282.6 56.42C282.211 56.4334 281.843 56.5974 281.573 56.8772C281.302 57.157 281.151 57.5309 281.151 57.92C281.151 58.309 281.302 58.6829 281.573 58.9627C281.843 59.2425 282.211 59.4065 282.6 59.42Z" fill="#113E71"/>
<path d="M282.84 67.34C283.228 67.3265 283.597 67.1626 283.867 66.8827C284.137 66.6029 284.288 66.229 284.288 65.84C284.288 65.4509 284.137 65.077 283.867 64.7972C283.597 64.5174 283.228 64.3534 282.84 64.34C282.451 64.3534 282.082 64.5174 281.812 64.7972C281.542 65.077 281.391 65.4509 281.391 65.84C281.391 66.229 281.542 66.6029 281.812 66.8827C282.082 67.1626 282.451 67.3265 282.84 67.34Z" fill="#113E71"/>
<path d="M240.826 34.2094C241.043 34.2082 241.256 34.1458 241.439 34.0294C241.623 33.913 241.77 33.7472 241.863 33.5511C242.016 33.209 242.12 32.8471 242.173 32.476C242.22 32.2776 242.226 32.0715 242.19 31.8708C242.153 31.6701 242.076 31.479 241.962 31.3096C241.824 31.1516 241.645 31.0341 241.445 30.9695C241.245 30.9049 241.031 30.8956 240.826 30.9426C240.46 31.0165 240.13 31.2118 239.89 31.4968C239.688 31.7838 239.581 32.1264 239.583 32.4771C239.574 32.8438 239.647 33.2078 239.797 33.5424C239.889 33.7391 240.034 33.906 240.216 34.024C240.397 34.142 240.609 34.2063 240.826 34.2094ZM240.826 34.2983C240.315 34.3299 239.807 34.2052 239.37 33.941C239.14 33.7728 238.953 33.5522 238.825 33.2976C238.698 33.043 238.632 32.7616 238.635 32.4767C238.631 32.1883 238.685 31.902 238.796 31.6355C238.907 31.369 239.071 31.1281 239.278 30.9274C239.48 30.7322 239.726 30.5877 239.995 30.5058C240.264 30.4238 240.549 30.4068 240.826 30.456C241.331 30.5343 241.801 30.7634 242.173 31.1132C242.573 31.4658 242.835 31.9488 242.912 32.4764C242.944 32.7539 242.902 33.0348 242.789 33.2904C242.676 33.5461 242.498 33.7671 242.272 33.931C241.838 34.1963 241.334 34.3243 240.826 34.2983Z" fill="#113E71"/>
<path d="M243.7 38.9393C242.772 39.0949 241.836 39.1992 240.897 39.2518C240.393 39.2739 239.884 39.3 239.369 39.2867C238.854 39.2748 238.339 39.2073 237.84 39.1606L237.789 39.1557C237.759 39.153 237.731 39.1445 237.705 39.1308C237.679 39.1171 237.656 39.0984 237.637 39.0758C237.619 39.0531 237.604 39.0271 237.596 38.999C237.587 38.9709 237.584 38.9414 237.587 38.9122L237.587 38.9082C237.659 38.3668 237.698 37.8217 237.706 37.2756C237.671 36.7055 237.752 36.1343 237.944 35.5964C238.17 35.017 238.564 34.5181 239.075 34.1634C239.586 33.8088 240.191 33.6146 240.813 33.6055C241.435 33.5964 242.046 33.7729 242.567 34.1125C243.088 34.452 243.497 34.9392 243.74 35.5118C243.975 36.0799 244.044 36.7029 243.939 37.3086C243.878 37.9064 243.778 38.4631 243.7 38.9393ZM243.638 38.8771L243.399 37.2429C243.373 36.7604 243.241 36.2895 243.012 35.8641C242.778 35.4658 242.45 35.1308 242.056 34.8886C241.662 34.6463 241.216 34.5041 240.754 34.4743C240.27 34.4621 239.792 34.5759 239.365 34.8047C238.939 35.0335 238.579 35.3694 238.322 35.7792C238.052 36.2293 237.93 36.7527 237.973 37.2756C237.981 37.8216 238.021 38.3667 238.092 38.9081L237.84 38.656C238.312 38.6091 238.768 38.5416 239.225 38.5297C239.681 38.5164 240.144 38.5425 240.612 38.5646C241.552 38.6214 242.532 38.735 243.638 38.8771Z" fill="#113E71"/>
<path d="M249.255 28.3082C249.343 30.1618 249.42 31.9412 249.46 33.6915C249.505 35.4442 249.533 37.1677 249.466 38.9081L249.233 38.6744C250.727 38.7246 252.221 38.7989 253.715 38.8057C255.209 38.8206 256.703 38.7861 258.197 38.7364L258.026 38.9081C257.96 37.1378 257.913 35.3674 257.897 33.5972C257.863 31.8268 257.86 30.0564 257.878 28.2862L258.197 28.6056C256.743 28.612 255.283 28.5397 253.805 28.5038L249.255 28.3082ZM249.21 28.2637L253.625 28.0681C255.135 28.0323 256.663 27.9601 258.197 27.9664C258.282 27.9672 258.363 28.0012 258.422 28.061C258.482 28.1207 258.516 28.2016 258.517 28.2861C258.534 30.0564 258.532 31.8267 258.498 33.5971C258.482 35.3673 258.435 37.1377 258.369 38.9081L258.369 38.9201C258.368 38.9419 258.363 38.9633 258.354 38.9831C258.345 39.0029 258.332 39.0208 258.316 39.0357C258.3 39.0505 258.282 39.0621 258.261 39.0697C258.241 39.0773 258.219 39.0808 258.197 39.08C256.703 39.0303 255.209 38.9958 253.715 39.0108C252.221 39.0175 250.727 39.0918 249.233 39.142C249.203 39.143 249.173 39.1381 249.146 39.1277C249.118 39.1173 249.092 39.1015 249.071 39.0812C249.049 39.0609 249.032 39.0366 249.019 39.0096C249.007 38.9826 249 38.9534 248.999 38.9237L248.999 38.9081C248.932 37.1077 248.96 35.2906 249.005 33.5026C249.045 31.7121 249.122 29.9509 249.21 28.2637Z" fill="#113E71"/>
<path d="M253.677 34.2094C253.895 34.2082 254.107 34.1458 254.291 34.0294C254.474 33.913 254.621 33.7472 254.715 33.5511C254.868 33.209 254.972 32.8471 255.024 32.476C255.072 32.2776 255.077 32.0715 255.041 31.8708C255.005 31.6701 254.928 31.479 254.814 31.3096C254.675 31.1516 254.496 31.0341 254.296 30.9695C254.096 30.9049 253.882 30.8956 253.677 30.9426C253.312 31.0165 252.982 31.2118 252.741 31.4968C252.54 31.7838 252.432 32.1264 252.434 32.4771C252.426 32.8438 252.499 33.2078 252.649 33.5424C252.74 33.7391 252.885 33.906 253.067 34.024C253.249 34.142 253.46 34.2063 253.677 34.2094ZM253.677 34.2983C253.167 34.3299 252.659 34.2052 252.221 33.941C251.991 33.7728 251.805 33.5522 251.677 33.2976C251.549 33.043 251.484 32.7616 251.487 32.4767C251.482 32.1883 251.537 31.902 251.648 31.6355C251.758 31.369 251.922 31.1281 252.129 30.9274C252.332 30.7322 252.578 30.5877 252.847 30.5058C253.116 30.4238 253.4 30.4068 253.677 30.456C254.182 30.5343 254.652 30.7634 255.025 31.1132C255.425 31.4658 255.687 31.9488 255.764 32.4764C255.796 32.7539 255.753 33.0348 255.641 33.2904C255.528 33.5461 255.349 33.7671 255.123 33.931C254.689 34.1963 254.185 34.3243 253.677 34.2983Z" fill="#113E71"/>
<path d="M256.552 38.9393C255.624 39.0949 254.688 39.1992 253.748 39.2518C253.244 39.2739 252.736 39.3 252.221 39.2867C251.706 39.2749 251.191 39.2074 250.691 39.1606L250.64 39.1557C250.611 39.153 250.583 39.1445 250.557 39.1308C250.531 39.1171 250.508 39.0984 250.489 39.0758C250.47 39.0532 250.456 39.0271 250.447 38.999C250.439 38.9709 250.436 38.9414 250.438 38.9122L250.439 38.9082C250.51 38.3668 250.55 37.8217 250.557 37.2756C250.522 36.7056 250.603 36.1343 250.795 35.5964C251.022 35.017 251.415 34.5181 251.927 34.1635C252.438 33.8089 253.043 33.6146 253.665 33.6055C254.287 33.5964 254.898 33.7729 255.419 34.1125C255.94 34.452 256.348 34.9392 256.591 35.5118C256.826 36.0799 256.895 36.7029 256.79 37.3086C256.73 37.9064 256.63 38.4631 256.552 38.9393ZM256.49 38.8772L256.251 37.2429C256.225 36.7604 256.093 36.2895 255.864 35.8641C255.629 35.4658 255.301 35.1309 254.908 34.8886C254.514 34.6464 254.067 34.5041 253.606 34.4743C253.122 34.4621 252.643 34.576 252.217 34.8048C251.79 35.0336 251.43 35.3694 251.173 35.7793C250.903 36.2293 250.781 36.7527 250.825 37.2756C250.833 37.8216 250.872 38.3667 250.943 38.9082L250.691 38.656C251.163 38.6091 251.62 38.5416 252.076 38.5298C252.533 38.5164 252.996 38.5426 253.464 38.5647C254.403 38.6214 255.384 38.735 256.49 38.8772Z" fill="#113E71"/>
<path d="M262.346 28.3082C262.433 30.1618 262.511 31.9412 262.551 33.6915C262.596 35.4442 262.624 37.1677 262.557 38.9081L262.323 38.6744C263.818 38.7246 265.312 38.7989 266.806 38.8057C268.3 38.8206 269.794 38.7861 271.288 38.7364L271.116 38.9081C271.051 37.1378 271.004 35.3674 270.988 33.5972C270.953 31.8268 270.951 30.0564 270.969 28.2862L271.288 28.6056C269.834 28.612 268.374 28.5397 266.896 28.5038L262.346 28.3082ZM262.301 28.2637L266.716 28.0681C268.226 28.0323 269.754 27.9601 271.288 27.9664C271.373 27.9672 271.454 28.0012 271.513 28.0609C271.573 28.1207 271.607 28.2016 271.608 28.2861C271.625 30.0564 271.623 31.8267 271.589 33.5971C271.572 35.3673 271.525 37.1377 271.46 38.9081L271.46 38.9201C271.459 38.9419 271.454 38.9633 271.445 38.9831C271.436 39.0029 271.423 39.0208 271.407 39.0357C271.391 39.0505 271.372 39.0621 271.352 39.0697C271.332 39.0773 271.31 39.0808 271.288 39.08C269.794 39.0303 268.3 38.9958 266.806 39.0108C265.312 39.0175 263.818 39.0918 262.323 39.142C262.294 39.143 262.264 39.1381 262.236 39.1277C262.209 39.1173 262.183 39.1015 262.162 39.0812C262.14 39.0609 262.123 39.0366 262.11 39.0096C262.098 38.9826 262.091 38.9534 262.09 38.9237L262.09 38.9081C262.023 37.1077 262.051 35.2906 262.095 33.5026C262.136 31.7121 262.213 29.9509 262.301 28.2637Z" fill="#113E71"/>
<path d="M266.768 34.2094C266.985 34.2082 267.198 34.1458 267.382 34.0294C267.565 33.913 267.712 33.7472 267.806 33.5511C267.959 33.209 268.063 32.8471 268.115 32.476C268.162 32.2776 268.168 32.0715 268.132 31.8708C268.096 31.6701 268.019 31.479 267.905 31.3096C267.766 31.1516 267.587 31.0341 267.387 30.9695C267.187 30.9049 266.973 30.8956 266.768 30.9426C266.403 31.0165 266.073 31.2118 265.832 31.4968C265.631 31.7838 265.523 32.1264 265.525 32.4771C265.517 32.8438 265.59 33.2077 265.74 33.5424C265.831 33.7391 265.976 33.906 266.158 34.024C266.34 34.142 266.551 34.2062 266.768 34.2094ZM266.768 34.2983C266.258 34.3299 265.75 34.2052 265.312 33.941C265.082 33.7728 264.895 33.5522 264.768 33.2976C264.64 33.043 264.575 32.7616 264.577 32.4767C264.573 32.1883 264.628 31.902 264.738 31.6355C264.849 31.3691 265.013 31.1281 265.22 30.9274C265.423 30.7322 265.668 30.5877 265.937 30.5058C266.207 30.4238 266.491 30.4068 266.768 30.456C267.273 30.5343 267.743 30.7634 268.116 31.1132C268.516 31.4658 268.778 31.9488 268.855 32.4764C268.887 32.7539 268.844 33.0348 268.731 33.2904C268.619 33.5461 268.44 33.7671 268.214 33.931C267.78 34.1963 267.276 34.3243 266.768 34.2983Z" fill="#113E71"/>
<path d="M269.643 38.9393C268.715 39.0949 267.779 39.1992 266.839 39.2518C266.335 39.2739 265.827 39.3 265.312 39.2867C264.797 39.2748 264.282 39.2073 263.782 39.1606L263.731 39.1557C263.702 39.153 263.673 39.1445 263.647 39.1308C263.621 39.117 263.598 39.0983 263.58 39.0757C263.561 39.0531 263.547 39.027 263.538 38.999C263.53 38.9709 263.527 38.9414 263.529 38.9122L263.53 38.9082C263.601 38.3667 263.641 37.8216 263.648 37.2756C263.613 36.7055 263.694 36.1343 263.886 35.5964C264.113 35.0169 264.506 34.518 265.017 34.1634C265.529 33.8088 266.134 33.6145 266.756 33.6055C267.378 33.5964 267.988 33.7729 268.51 34.1124C269.031 34.452 269.439 34.9392 269.682 35.5118C269.917 36.0799 269.986 36.7028 269.881 37.3085C269.821 37.9064 269.72 38.4631 269.643 38.9393ZM269.58 38.8771L269.342 37.2429C269.316 36.7603 269.184 36.2895 268.955 35.8641C268.72 35.4657 268.392 35.1308 267.998 34.8886C267.605 34.6463 267.158 34.5041 266.697 34.4743C266.213 34.4621 265.734 34.5759 265.308 34.8047C264.881 35.0335 264.521 35.3694 264.264 35.7792C263.994 36.2293 263.872 36.7527 263.916 37.2756C263.923 37.8216 263.963 38.3667 264.034 38.9081L263.782 38.6559C264.254 38.6091 264.711 38.5416 265.167 38.5297C265.624 38.5164 266.087 38.5425 266.555 38.5646C267.494 38.6214 268.474 38.735 269.58 38.8771Z" fill="#113E71"/>
<path d="M256.543 41.4988C256.631 43.3525 256.708 45.1319 256.749 46.8821C256.793 48.6348 256.821 50.3583 256.754 52.0988L256.521 51.8651C258.015 51.9152 259.509 51.9896 261.003 51.9964C262.497 52.0113 263.991 51.9767 265.485 51.9271L265.314 52.0988C265.248 50.3284 265.201 48.558 265.185 46.7878C265.151 45.0174 265.149 43.247 265.166 41.4768L265.485 41.7963C264.031 41.8026 262.571 41.7304 261.093 41.6946L256.543 41.4988ZM256.498 41.4544L260.913 41.2587C262.423 41.223 263.951 41.1507 265.485 41.157C265.57 41.1579 265.651 41.1918 265.711 41.2516C265.77 41.3114 265.804 41.3922 265.805 41.4768C265.823 43.247 265.82 45.0174 265.786 46.7878C265.77 48.558 265.723 50.3284 265.657 52.0987L265.657 52.1108C265.656 52.1326 265.651 52.154 265.642 52.1738C265.633 52.1936 265.62 52.2115 265.604 52.2263C265.588 52.2412 265.57 52.2527 265.549 52.2603C265.529 52.2679 265.507 52.2714 265.485 52.2706C263.991 52.2209 262.497 52.1864 261.003 52.2014C259.509 52.2081 258.015 52.2825 256.521 52.3326C256.461 52.3346 256.403 52.3128 256.359 52.2719C256.315 52.231 256.289 52.1744 256.287 52.1145L256.287 52.0987C256.22 50.2984 256.248 48.4812 256.293 46.6932C256.333 44.9028 256.411 43.1415 256.498 41.4544Z" fill="#113E71"/>
<path d="M260.966 47.4001C261.184 47.3989 261.396 47.3365 261.58 47.2201C261.763 47.1036 261.91 46.9379 262.004 46.7418C262.157 46.3996 262.261 46.0378 262.313 45.6667C262.361 45.4683 262.366 45.2622 262.33 45.0615C262.294 44.8607 262.217 44.6697 262.103 44.5003C261.964 44.3423 261.785 44.2248 261.585 44.1602C261.385 44.0956 261.171 44.0863 260.966 44.1332C260.601 44.2071 260.271 44.4024 260.03 44.6874C259.829 44.9744 259.721 45.3171 259.723 45.6678C259.715 46.0344 259.788 46.3984 259.938 46.7331C260.029 46.9297 260.174 47.0967 260.356 47.2147C260.538 47.3327 260.75 47.3969 260.966 47.4001ZM260.966 47.4889C260.456 47.5205 259.948 47.3959 259.51 47.1316C259.28 46.9635 259.094 46.7429 258.966 46.4883C258.838 46.2337 258.773 45.9523 258.776 45.6674C258.771 45.379 258.826 45.0927 258.937 44.8262C259.047 44.5597 259.211 44.3187 259.418 44.1181C259.621 43.9229 259.867 43.7784 260.136 43.6964C260.405 43.6145 260.689 43.5974 260.966 43.6467C261.471 43.7249 261.941 43.954 262.314 44.3039C262.714 44.6564 262.976 45.1395 263.053 45.667C263.085 45.9445 263.042 46.2255 262.93 46.4811C262.817 46.7367 262.639 46.9578 262.412 47.1216C261.978 47.3869 261.474 47.515 260.966 47.4889V47.4889Z" fill="#113E71"/>
<path d="M263.841 52.13C262.913 52.2856 261.977 52.3899 261.037 52.4425C260.533 52.4647 260.025 52.4907 259.51 52.4774C258.995 52.4655 258.48 52.398 257.98 52.3513L257.929 52.3464C257.9 52.3437 257.872 52.3352 257.846 52.3215C257.82 52.3078 257.797 52.2891 257.778 52.2665C257.759 52.2438 257.745 52.2178 257.736 52.1897C257.728 52.1616 257.725 52.1321 257.728 52.1029L257.728 52.0989C257.799 51.5575 257.839 51.0123 257.846 50.4663C257.811 49.8963 257.892 49.3251 258.084 48.7872C258.311 48.2077 258.705 47.7088 259.216 47.3542C259.727 46.9996 260.332 46.8053 260.954 46.7962C261.576 46.7871 262.187 46.9636 262.708 47.3031C263.229 47.6427 263.637 48.1299 263.88 48.7025C264.115 49.2706 264.184 49.8936 264.079 50.4993C264.019 51.0971 263.919 51.6538 263.841 52.13ZM263.779 52.0678L263.54 50.4335C263.514 49.951 263.382 49.4802 263.153 49.0548C262.918 48.6564 262.59 48.3215 262.197 48.0793C261.803 47.837 261.356 47.6948 260.895 47.665C260.411 47.6527 259.932 47.7666 259.506 47.9954C259.079 48.2242 258.719 48.56 258.462 48.9699C258.192 49.42 258.071 49.9433 258.114 50.4662C258.122 51.0123 258.161 51.5574 258.232 52.0988L257.98 51.8466C258.452 51.7997 258.909 51.7322 259.365 51.7204C259.822 51.7071 260.285 51.7332 260.753 51.7554C261.692 51.8121 262.673 51.9256 263.779 52.0678Z" fill="#113E71"/>
<path d="M242.565 41.4988C242.653 43.3525 242.731 45.1319 242.771 46.8821C242.816 48.6348 242.843 50.3583 242.777 52.0988L242.543 51.8651C244.037 51.9152 245.531 51.9896 247.025 51.9964C248.52 52.0113 250.014 51.9767 251.508 51.9271L251.336 52.0988C251.271 50.3284 251.224 48.558 251.207 46.7878C251.173 45.0174 251.171 43.247 251.188 41.4768L251.508 41.7963C250.054 41.8026 248.593 41.7304 247.116 41.6946L242.565 41.4988ZM242.521 41.4544L246.935 41.2587C248.446 41.223 249.974 41.1507 251.508 41.157C251.592 41.1579 251.673 41.1918 251.733 41.2516C251.793 41.3114 251.827 41.3922 251.828 41.4768C251.845 43.247 251.843 45.0174 251.809 46.7878C251.792 48.558 251.745 50.3284 251.68 52.0987L251.679 52.1108C251.679 52.1326 251.674 52.154 251.665 52.1738C251.656 52.1936 251.643 52.2115 251.627 52.2263C251.611 52.2412 251.592 52.2527 251.572 52.2603C251.551 52.2679 251.53 52.2714 251.508 52.2706C250.014 52.2209 248.52 52.1864 247.025 52.2014C245.531 52.2081 244.037 52.2825 242.543 52.3326C242.514 52.3336 242.484 52.3288 242.456 52.3184C242.428 52.3079 242.403 52.2921 242.381 52.2719C242.36 52.2516 242.342 52.2273 242.33 52.2003C242.318 52.1733 242.311 52.1441 242.31 52.1145L242.309 52.0987C242.243 50.2984 242.27 48.4812 242.315 46.6932C242.355 44.9028 242.433 43.1415 242.521 41.4544Z" fill="#113E71"/>
<path d="M236.403 55.24C236.491 57.0936 236.569 58.8731 236.609 60.6233C236.654 62.376 236.681 64.0995 236.615 65.84L236.381 65.6062C237.875 65.6564 239.369 65.7307 240.863 65.7374C242.358 65.7524 243.852 65.7179 245.346 65.6682L245.174 65.84C245.109 64.0696 245.062 62.2992 245.045 60.529C245.011 58.7586 245.009 56.9882 245.026 55.218L245.346 55.5374C243.892 55.5438 242.431 55.4715 240.954 55.4356L236.403 55.24ZM236.359 55.1956L240.773 54.9999C242.284 54.964 243.812 54.8919 245.346 54.8982C245.43 54.899 245.511 54.933 245.571 54.9928C245.631 55.0525 245.665 55.1334 245.665 55.2179C245.683 56.9882 245.681 58.7586 245.647 60.5289C245.63 62.2992 245.583 64.0695 245.518 65.8399L245.517 65.8519C245.517 65.8737 245.512 65.8951 245.503 65.9149C245.493 65.9347 245.481 65.9526 245.465 65.9674C245.449 65.9823 245.43 65.9939 245.41 66.0015C245.389 66.0091 245.368 66.0126 245.346 66.0118C243.852 65.9621 242.358 65.9276 240.863 65.9425C239.369 65.9493 237.875 66.0237 236.381 66.0738C236.351 66.0748 236.322 66.07 236.294 66.0595C236.266 66.0491 236.241 66.0333 236.219 66.013C236.198 65.9927 236.18 65.9684 236.168 65.9414C236.156 65.9144 236.149 65.8852 236.148 65.8556L236.147 65.8399C236.081 64.0395 236.108 62.2224 236.153 60.4344C236.193 58.6439 236.271 56.8825 236.359 55.1955L236.359 55.1956Z" fill="#113E71"/>
<path d="M240.826 61.1412C241.043 61.14 241.256 61.0776 241.439 60.9611C241.623 60.8447 241.77 60.6789 241.863 60.4827C242.016 60.1406 242.12 59.7788 242.173 59.4077C242.22 59.2093 242.226 59.0033 242.19 58.8025C242.153 58.6018 242.076 58.4107 241.962 58.2413C241.824 58.0833 241.645 57.9658 241.445 57.9012C241.245 57.8366 241.031 57.8273 240.826 57.8743C240.46 57.9482 240.13 58.1435 239.89 58.4285C239.688 58.7155 239.581 59.0581 239.583 59.4088C239.574 59.7755 239.647 60.1395 239.797 60.4741C239.889 60.6708 240.034 60.8377 240.215 60.9557C240.397 61.0737 240.609 61.138 240.826 61.1412ZM240.826 61.23C240.315 61.2616 239.807 61.137 239.37 60.8727C239.14 60.7046 238.953 60.484 238.825 60.2294C238.698 59.9748 238.632 59.6934 238.635 59.4085C238.631 59.12 238.685 58.8337 238.796 58.5673C238.907 58.3008 239.071 58.0598 239.278 57.8592C239.48 57.6639 239.726 57.5195 239.995 57.4375C240.264 57.3556 240.549 57.3385 240.826 57.3878C241.331 57.466 241.801 57.6951 242.173 58.045C242.573 58.3975 242.835 58.8805 242.912 59.408C242.944 59.6855 242.902 59.9664 242.789 60.2221C242.676 60.4777 242.498 60.6988 242.272 60.8627C241.838 61.128 241.334 61.256 240.826 61.23Z" fill="#113E71"/>
<path d="M243.7 65.871C242.772 66.0266 241.836 66.1309 240.897 66.1835C240.393 66.2056 239.884 66.2318 239.369 66.2185C238.854 66.2066 238.339 66.1391 237.84 66.0923L237.789 66.0875C237.759 66.0847 237.731 66.0763 237.705 66.0626C237.679 66.0489 237.656 66.0302 237.637 66.0075C237.619 65.9849 237.604 65.9588 237.596 65.9308C237.587 65.9027 237.584 65.8732 237.587 65.8439L237.587 65.8399C237.659 65.2985 237.698 64.7534 237.706 64.2074C237.671 63.6373 237.752 63.0661 237.944 62.5282C238.17 61.9487 238.564 61.4498 239.075 61.0952C239.586 60.7406 240.191 60.5464 240.813 60.5373C241.435 60.5282 242.046 60.7047 242.567 61.0442C243.088 61.3838 243.497 61.871 243.74 62.4436C243.975 63.0117 244.044 63.6346 243.939 64.2403C243.878 64.8381 243.778 65.3949 243.7 65.871ZM243.638 65.8089L243.399 64.1745C243.373 63.6921 243.241 63.2213 243.012 62.7959C242.778 62.3975 242.45 62.0626 242.056 61.8204C241.662 61.5781 241.216 61.4359 240.754 61.4061C240.27 61.3939 239.792 61.5077 239.365 61.7365C238.939 61.9653 238.579 62.3011 238.322 62.711C238.052 63.1611 237.93 63.6844 237.973 64.2074C237.981 64.7534 238.021 65.2985 238.092 65.8399L237.84 65.5876C238.312 65.5409 238.768 65.4734 239.225 65.4615C239.681 65.4482 240.144 65.4743 240.612 65.4964C241.552 65.5532 242.532 65.6666 243.638 65.8089Z" fill="#113E71"/>
<path d="M249.255 55.24C249.343 57.0936 249.42 58.8731 249.46 60.6233C249.505 62.376 249.533 64.0995 249.466 65.84L249.233 65.6062C250.727 65.6564 252.221 65.7307 253.715 65.7374C255.209 65.7524 256.703 65.7179 258.197 65.6682L258.026 65.84C257.96 64.0696 257.913 62.2992 257.897 60.529C257.863 58.7586 257.86 56.9882 257.878 55.218L258.197 55.5374C256.743 55.5438 255.283 55.4715 253.805 55.4356L249.255 55.24ZM249.21 55.1956L253.625 54.9999C255.135 54.964 256.663 54.8919 258.197 54.8982C258.282 54.899 258.363 54.933 258.422 54.9928C258.482 55.0525 258.516 55.1334 258.517 55.2179C258.534 56.9882 258.532 58.7586 258.498 60.5289C258.482 62.2992 258.435 64.0695 258.369 65.8399L258.369 65.8519C258.368 65.8737 258.363 65.8951 258.354 65.9149C258.345 65.9347 258.332 65.9526 258.316 65.9674C258.3 65.9823 258.282 65.9939 258.261 66.0015C258.241 66.0091 258.219 66.0126 258.197 66.0118C256.703 65.9621 255.209 65.9276 253.715 65.9425C252.221 65.9493 250.727 66.0237 249.233 66.0738C249.203 66.0748 249.173 66.07 249.146 66.0595C249.118 66.0491 249.092 66.0333 249.071 66.013C249.049 65.9927 249.032 65.9684 249.019 65.9414C249.007 65.9144 249 65.8852 248.999 65.8556L248.999 65.8399C248.932 64.0395 248.96 62.2224 249.005 60.4344C249.045 58.6439 249.122 56.8825 249.21 55.1955V55.1956Z" fill="#113E71"/>
<path d="M262.237 55.24C262.325 57.0936 262.403 58.8731 262.443 60.6233C262.488 62.376 262.515 64.0995 262.449 65.84L262.215 65.6062C263.709 65.6564 265.203 65.7307 266.697 65.7374C268.192 65.7524 269.686 65.7179 271.18 65.6682L271.008 65.84C270.943 64.0696 270.896 62.2992 270.879 60.529C270.845 58.7586 270.843 56.9882 270.86 55.218L271.18 55.5374C269.726 55.5438 268.265 55.4715 266.788 55.4356L262.237 55.24ZM262.193 55.1956L266.607 54.9999C268.118 54.964 269.646 54.8919 271.18 54.8982C271.264 54.899 271.345 54.9329 271.405 54.9927C271.465 55.0525 271.499 55.1334 271.499 55.2179C271.517 56.9882 271.515 58.7586 271.48 60.5289C271.464 62.2992 271.417 64.0695 271.352 65.8399L271.351 65.8519C271.35 65.8737 271.345 65.8951 271.336 65.9149C271.327 65.9348 271.315 65.9526 271.299 65.9675C271.283 65.9823 271.264 65.9939 271.244 66.0015C271.223 66.0091 271.201 66.0126 271.18 66.0118C269.686 65.9621 268.192 65.9276 266.697 65.9425C265.203 65.9493 263.709 66.0237 262.215 66.0738C262.185 66.0748 262.156 66.07 262.128 66.0595C262.1 66.0491 262.075 66.0333 262.053 66.013C262.031 65.9927 262.014 65.9684 262.002 65.9414C261.99 65.9144 261.983 65.8852 261.982 65.8556L261.981 65.8399C261.915 64.0395 261.942 62.2224 261.987 60.4344C262.027 58.6439 262.105 56.8825 262.193 55.1955V55.1956Z" fill="#113E71"/>
<path d="M266.66 61.1412C266.877 61.14 267.09 61.0776 267.273 60.9612C267.457 60.8447 267.604 60.6789 267.697 60.4827C267.85 60.1407 267.954 59.7788 268.007 59.4078C268.054 59.2094 268.06 59.0033 268.024 58.8025C267.987 58.6018 267.91 58.4107 267.796 58.2414C267.658 58.0834 267.479 57.9658 267.279 57.9012C267.078 57.8366 266.865 57.8273 266.66 57.8743C266.294 57.9482 265.964 58.1435 265.724 58.4285C265.522 58.7155 265.415 59.0581 265.417 59.4088C265.408 59.7755 265.481 60.1395 265.631 60.4741C265.723 60.6708 265.867 60.8377 266.049 60.9557C266.231 61.0737 266.443 61.138 266.66 61.1412ZM266.66 61.2301C266.149 61.2617 265.641 61.137 265.203 60.8728C264.973 60.7046 264.787 60.484 264.659 60.2294C264.531 59.9748 264.466 59.6934 264.469 59.4085C264.465 59.1201 264.519 58.8338 264.63 58.5673C264.74 58.3009 264.904 58.0599 265.112 57.8592C265.314 57.664 265.56 57.5195 265.829 57.4376C266.098 57.3556 266.383 57.3386 266.66 57.3878C267.165 57.466 267.635 57.6951 268.007 58.045C268.407 58.3975 268.669 58.8805 268.746 59.408C268.778 59.6855 268.736 59.9665 268.623 60.2221C268.51 60.4777 268.332 60.6988 268.106 60.8627C267.672 61.128 267.168 61.2561 266.66 61.2301Z" fill="#113E71"/>
<path d="M269.534 65.871C268.606 66.0266 267.67 66.1309 266.731 66.1835C266.227 66.2056 265.718 66.2318 265.203 66.2185C264.688 66.2066 264.173 66.1391 263.674 66.0923L263.623 66.0875C263.594 66.0847 263.565 66.0763 263.539 66.0626C263.513 66.0489 263.49 66.0302 263.471 66.0076C263.453 65.9849 263.439 65.9588 263.43 65.9308C263.421 65.9027 263.418 65.8732 263.421 65.8439L263.421 65.8399C263.493 65.2985 263.532 64.7534 263.54 64.2074C263.505 63.6373 263.586 63.0661 263.778 62.5282C264.004 61.9487 264.398 61.4498 264.909 61.0952C265.42 60.7406 266.025 60.5464 266.647 60.5373C267.269 60.5282 267.88 60.7047 268.401 61.0442C268.923 61.3838 269.331 61.871 269.574 62.4436C269.809 63.0117 269.878 63.6346 269.773 64.2403C269.712 64.8381 269.612 65.3949 269.534 65.871ZM269.472 65.8089L269.233 64.1745C269.208 63.6921 269.075 63.2212 268.846 62.7959C268.612 62.3975 268.284 62.0626 267.89 61.8204C267.496 61.5781 267.05 61.4359 266.588 61.4061C266.104 61.3939 265.626 61.5077 265.199 61.7365C264.773 61.9653 264.413 62.3011 264.155 62.711C263.886 63.1611 263.764 63.6845 263.807 64.2074C263.815 64.7534 263.855 65.2985 263.926 65.8399L263.674 65.5876C264.146 65.5409 264.602 65.4734 265.059 65.4615C265.515 65.4482 265.978 65.4743 266.446 65.4964C267.386 65.5532 268.366 65.6666 269.472 65.8089Z" fill="#113E71"/>
<path d="M198.268 90.7526L198.096 91.737L199.081 91.9099L199.253 90.9254L198.268 90.7526Z" fill="#113E71"/>
<path d="M234.377 98.0825L232.416 97.7397L232.588 96.7553L234.549 97.0981L234.377 98.0825ZM230.455 97.3969L228.494 97.0542L228.666 96.0698L230.626 96.4126L230.455 97.3969ZM226.533 96.7114L224.572 96.3686L224.744 95.3842L226.705 95.727L226.533 96.7114ZM222.61 96.0258L220.649 95.6821L220.822 94.6977L222.783 95.0414L222.61 96.0258ZM218.689 95.3393L216.728 94.9965L216.9 94.0122L218.861 94.3549L218.689 95.3393ZM214.767 94.6538L212.806 94.311L212.978 93.3266L214.939 93.6694L214.767 94.6538ZM210.845 93.9682L208.884 93.6254L209.056 92.6411L211.017 92.9838L210.845 93.9682ZM206.923 93.2817L204.962 92.9389L205.134 91.9545L207.095 92.2973L206.923 93.2817ZM203.001 92.5961L201.04 92.2534L201.212 91.269L203.173 91.6118L203.001 92.5961Z" fill="#113E71"/>
<path d="M236.513 97.44L236.34 98.4243L237.325 98.5972L237.497 97.6128L236.513 97.44Z" fill="#113E71"/>
<path d="M195.044 94.186L194.835 95.1645L195.813 95.3734L196.022 94.395L195.044 94.186Z" fill="#113E71"/>
<path d="M230.112 102.68L228.207 102.274L228.416 101.295L230.321 101.702L230.112 102.68ZM226.302 101.869L224.396 101.462L224.604 100.484L226.51 100.89L226.302 101.869ZM222.491 101.056L220.586 100.651L220.794 99.6723L222.699 100.078L222.491 101.056ZM218.68 100.245L216.774 99.8383L216.983 98.8598L218.889 99.2661L218.68 100.245ZM214.869 99.4321L212.964 99.0268L213.172 98.0483L215.077 98.4536L214.869 99.4321ZM211.059 98.6206L209.153 98.2143L209.361 97.2358L211.267 97.642L211.059 98.6206ZM207.247 97.809L205.342 97.4028L205.551 96.4243L207.456 96.8305L207.247 97.809ZM203.436 96.9965L201.531 96.5903L201.74 95.6118L203.645 96.018L203.436 96.9965ZM199.625 96.185L197.72 95.7788L197.929 94.8002L199.834 95.2065L199.625 96.185Z" fill="#113E71"/>
<path d="M232.227 102.107L232.018 103.085L232.996 103.294L233.205 102.316L232.227 102.107Z" fill="#113E71"/>
<path d="M198.125 99.9498C199.833 100.047 201.526 100.332 203.171 100.8C204.829 101.226 206.433 101.834 207.956 102.615C206.247 102.52 204.555 102.235 202.91 101.765C201.253 101.337 199.648 100.729 198.125 99.9498Z" fill="#113E71"/>
</svg>
