<svg width="159" height="28" viewBox="0 0 159 28" fill="none" xmlns="http://www.w3.org/2000/svg">
<path d="M3 0.5H156C157.381 0.5 158.5 1.61929 158.5 3V25C158.5 26.3807 157.381 27.5 156 27.5H3C1.61929 27.5 0.5 26.3807 0.5 25V3C0.5 1.61929 1.61929 0.5 3 0.5Z" stroke="#113E71"/>
<path d="M24.6056 22.2499V21.9999V7.45448V7.20448H24.8556H31.1341C32.244 7.20448 33.2272 7.40658 34.077 7.81906C34.928 8.23211 35.5948 8.83004 36.0706 9.61138C36.5485 10.3962 36.7818 11.3285 36.7818 12.3977C36.7818 13.4765 36.5412 14.4045 36.0459 15.168M24.6056 22.2499L35.8358 15.0326M24.6056 22.2499H24.8556H28.8045H29.0545V21.9999V17.4488M24.6056 22.2499L29.0545 17.1988M36.0459 15.168C36.0458 15.1682 36.0456 15.1685 36.0455 15.1687L35.8358 15.0326M36.0459 15.168C36.046 15.1679 36.046 15.1678 36.0461 15.1677L35.8358 15.0326M36.0459 15.168C35.6363 15.8056 35.0868 16.3103 34.4031 16.6824M35.8358 15.0326C35.4502 15.6329 34.9328 16.1096 34.2835 16.4629L34.4031 16.6824M34.4031 16.6824C34.3304 16.722 34.2563 16.76 34.1806 16.7966L36.8786 21.7499H37.0147V21.9999L36.7952 22.1195L36.7301 21.9999H32.725L30.3041 17.4488H30.021M34.4031 16.6824L37.2343 21.8804L37.4356 22.2499H37.0147H32.725H32.5748L32.5042 22.1173L30.021 17.4488M30.021 17.4488L29.888 17.1988H29.0545M30.021 17.4488H29.0545M28.8045 17.4488V21.7499V21.9999H28.5545H25.1056H24.8556V21.7499V7.70448V7.45448H25.1056L28.8045 17.4488ZM28.8045 17.4488H29.0545M28.8045 17.4488L29.0545 17.1988M29.0545 17.4488V17.1988M31.3826 13.9602C31.0559 14.0738 30.6606 14.1306 30.1966 14.1306H29.0545V13.8806M31.3826 13.9602C31.7141 13.8418 31.9674 13.6548 32.1426 13.3991C32.3225 13.1434 32.4125 12.8096 32.4125 12.3977C32.4125 11.981 32.3225 11.6425 32.1426 11.382C31.9674 11.1169 31.7141 10.9228 31.3826 10.7996C31.0559 10.6718 30.6606 10.6079 30.1966 10.6079H29.0545V10.8579M31.3826 13.9602L31.3005 13.724C31.3002 13.7241 31.2999 13.7243 31.2995 13.7244M31.3826 13.9602L31.2986 13.7247C31.2989 13.7246 31.2992 13.7245 31.2995 13.7244M29.0545 10.8579H28.8045V13.8806H29.0545M29.0545 10.8579V13.8806M29.0545 10.8579H30.1966C30.6389 10.8579 31.0016 10.919 31.2915 11.0325L31.2915 11.0325L31.2956 11.034C31.5832 11.1408 31.7913 11.3039 31.934 11.5199L31.9339 11.5199L31.9369 11.5241C32.0801 11.7314 32.1625 12.0159 32.1625 12.3977C32.1625 12.7743 32.0803 13.0532 31.9381 13.2552L31.9363 13.2578C31.795 13.464 31.5878 13.6212 31.2995 13.7244M29.0545 13.8806H30.1966C30.6411 13.8806 31.0067 13.8261 31.2995 13.7244M22.3013 18.9488L22.3016 18.9484C22.9575 17.7894 23.2786 16.3784 23.2786 14.7272C23.2786 13.0761 22.9575 11.6672 22.3013 10.5128C21.6496 9.36136 20.7661 8.48609 19.6519 7.89439C18.5426 7.30056 17.3085 7.00562 15.9547 7.00562C14.5918 7.00562 13.3528 7.30046 12.2431 7.8945C11.1335 8.48636 10.2524 9.36177 9.60079 10.5132L9.60061 10.5135C8.94945 11.6678 8.63086 13.0764 8.63086 14.7272C8.63086 16.3689 8.94958 17.7748 9.60039 18.9334L9.60101 18.9345C10.2526 20.0809 11.1332 20.9581 12.2418 21.5592L12.243 21.5598C13.3526 22.1539 14.5917 22.4488 15.9547 22.4488C17.3083 22.4488 18.5423 22.1563 19.6515 21.5673L19.6523 21.5669C20.7661 20.9706 21.6495 20.0956 22.3013 18.9488ZM18.3842 12.6139L18.3842 12.6139L18.3851 12.6161C18.6026 13.1754 18.7161 13.8765 18.7161 14.7272C18.7161 15.5778 18.6026 16.2816 18.3848 16.846L18.3845 16.847C18.1721 17.4045 17.8619 17.815 17.46 18.0942C17.0648 18.3674 16.5679 18.5113 15.9547 18.5113C15.3421 18.5113 14.8427 18.3677 14.4423 18.0942C14.0452 17.815 13.7348 17.4043 13.5177 16.8465C13.3044 16.2817 13.1934 15.5777 13.1934 14.7272C13.1934 13.8763 13.3045 13.1747 13.5177 12.6149C13.7352 12.0516 14.0458 11.6415 14.4421 11.3675L14.4425 11.3672C14.8429 11.089 15.3423 10.9431 15.9547 10.9431C16.5673 10.9431 17.0637 11.0891 17.4588 11.3665L17.4588 11.3665L17.4613 11.3682C17.8617 11.6422 18.1717 12.0516 18.3842 12.6139ZM51.5787 18.9488L51.5789 18.9484C52.2348 17.7894 52.5559 16.3784 52.5559 14.7272C52.5559 13.0761 52.2349 11.6672 51.5787 10.5128C50.9269 9.36135 50.0434 8.48609 48.9292 7.89439C47.8199 7.30056 46.5858 7.00562 45.2321 7.00562C43.8691 7.00562 42.6301 7.30046 41.5205 7.8945C40.4108 8.48636 39.5298 9.36177 38.8781 10.5132L38.878 10.5135C38.2268 11.6678 37.9082 13.0764 37.9082 14.7272C37.9082 16.3689 38.2269 17.7748 38.8777 18.9334L38.8784 18.9345C39.5299 20.0809 40.4106 20.9581 41.5191 21.5592L41.5203 21.5598C42.63 22.1539 43.869 22.4488 45.2321 22.4488C46.5856 22.4488 47.8196 22.1563 48.9289 21.5673L48.9296 21.5669C50.0434 20.9706 50.9268 20.0956 51.5787 18.9488ZM46.7361 11.3665L46.7386 11.3682C47.139 11.6422 47.4491 12.0516 47.6616 12.6139L47.6624 12.6161C47.8799 13.1754 47.9934 13.8765 47.9934 14.7272C47.9934 15.5778 47.88 16.2816 47.6622 16.846L47.6618 16.847C47.4494 17.4045 47.1392 17.815 46.7373 18.0942C46.3421 18.3674 45.8453 18.5113 45.2321 18.5113C44.6195 18.5113 44.12 18.3677 43.7197 18.0942C43.3226 17.815 43.0122 17.4044 42.7951 16.8466C42.5818 16.2818 42.4707 15.5778 42.4707 14.7272C42.4707 13.8762 42.5819 13.1746 42.7951 12.6148C43.0126 12.0515 43.3232 11.6415 43.7194 11.3675L43.7199 11.3672C44.1203 11.089 44.6196 10.9431 45.2321 10.9431C45.8446 10.9431 46.341 11.0891 46.7361 11.3665Z" fill="#113E71" stroke="#113E71" stroke-width="0.5"/>
<mask id="path-3-outside-1_164_18" maskUnits="userSpaceOnUse" x="58.0166" y="6.54541" width="92" height="14" fill="black">
<rect fill="white" x="58.0166" y="6.54541" width="92" height="14"/>
<path d="M59.0166 19L60.4655 10.2727H66.6018L66.278 12.1818H62.5109L62.2723 13.6818H65.6643L65.3405 15.5909H61.9484L61.3859 19H59.0166Z"/>
<path d="M67.2016 19H64.6448L68.9743 10.2727H72.213L73.6448 19H71.088L70.2357 12.6761H70.1675L67.2016 19ZM67.3039 15.5568H72.1107L71.8039 17.3295H66.9971L67.3039 15.5568Z"/>
<path d="M83.1178 13.5454H80.7485C80.7655 13.3437 80.7542 13.1619 80.7144 13C80.6746 12.838 80.6064 12.6988 80.5099 12.5823C80.4133 12.463 80.2868 12.3721 80.1306 12.3096C79.9743 12.2471 79.7883 12.2159 79.5724 12.2159C79.1576 12.2159 78.7868 12.3196 78.4601 12.5269C78.1334 12.7315 77.8621 13.0255 77.6462 13.409C77.4303 13.7897 77.2769 14.2443 77.186 14.7727C77.1064 15.284 77.1036 15.7088 77.1775 16.0468C77.2542 16.3849 77.4033 16.6377 77.6249 16.8054C77.8493 16.973 78.1405 17.0568 78.4985 17.0568C78.7371 17.0568 78.9559 17.0284 79.1547 16.9715C79.3564 16.9147 79.5354 16.8338 79.6917 16.7286C79.8508 16.6207 79.9857 16.4929 80.0965 16.3451C80.2101 16.1946 80.2968 16.0284 80.3564 15.8465H82.7428C82.6519 16.2159 82.49 16.5937 82.257 16.9801C82.0241 17.3636 81.7229 17.7173 81.3536 18.0411C80.9843 18.3622 80.5496 18.6221 80.0496 18.821C79.5496 19.0198 78.9871 19.1193 78.3621 19.1193C77.5439 19.1193 76.838 18.9403 76.2442 18.5823C75.6533 18.2244 75.2243 17.7017 74.9573 17.0142C74.6931 16.3267 74.6405 15.4886 74.7996 14.5C74.9587 13.5454 75.2726 12.7457 75.7414 12.1008C76.2101 11.4559 76.7797 10.9701 77.4502 10.6434C78.1206 10.3167 78.8337 10.1534 79.5894 10.1534C80.1604 10.1534 80.6718 10.2286 81.1235 10.3792C81.578 10.5298 81.9601 10.75 82.2698 11.0397C82.5823 11.3267 82.8124 11.6804 82.9601 12.1008C83.1079 12.5213 83.1604 13.0028 83.1178 13.5454Z"/>
<path d="M84.1842 12.1818L84.5081 10.2727H92.0933L91.7694 12.1818H89.1444L88.0194 19H85.6842L86.8092 12.1818H84.1842Z"/>
<path d="M98.1498 10.2727H100.519L99.5901 15.8636C99.4822 16.5284 99.2293 17.1036 98.8316 17.5894C98.4367 18.0724 97.9339 18.446 97.3231 18.7102C96.7123 18.9715 96.0333 19.1022 95.2861 19.1022C94.5333 19.1022 93.8969 18.9715 93.377 18.7102C92.8572 18.446 92.4793 18.0724 92.2435 17.5894C92.0106 17.1036 91.9481 16.5284 92.056 15.8636L92.985 10.2727H95.3543L94.4594 15.659C94.4168 15.9289 94.4381 16.169 94.5233 16.3792C94.6086 16.5894 94.7464 16.7556 94.9367 16.8778C95.127 16.9971 95.3572 17.0568 95.627 17.0568C95.8998 17.0568 96.1512 16.9971 96.3813 16.8778C96.6143 16.7556 96.8074 16.5894 96.9608 16.3792C97.1143 16.169 97.2123 15.9289 97.2549 15.659L98.1498 10.2727Z"/>
<path d="M100.196 19L101.645 10.2727H105.412C106.06 10.2727 106.607 10.3906 107.053 10.6264C107.499 10.8622 107.82 11.2017 108.016 11.6448C108.212 12.088 108.259 12.6193 108.157 13.2386C108.054 13.8636 107.828 14.3906 107.479 14.8196C107.132 15.2457 106.691 15.5696 106.154 15.7911C105.62 16.0099 105.02 16.1193 104.355 16.1193H102.105L102.412 14.2784H104.185C104.463 14.2784 104.708 14.2443 104.918 14.1761C105.128 14.1051 105.299 13.9943 105.429 13.8437C105.56 13.6903 105.645 13.4886 105.685 13.2386C105.725 12.9886 105.705 12.7855 105.625 12.6292C105.546 12.4701 105.414 12.3536 105.229 12.2798C105.044 12.2031 104.816 12.1647 104.543 12.1647H103.708L102.566 19H100.196ZM105.975 14.9943L107.492 19H104.918L103.452 14.9943H105.975Z"/>
<path d="M110.596 19H108.039L112.369 10.2727H115.608L117.039 19H114.483L113.63 12.6761H113.562L110.596 19ZM110.698 15.5568H115.505L115.198 17.3295H110.392L110.698 15.5568Z"/>
<path d="M126.512 13.5454H124.143C124.16 13.3437 124.149 13.1619 124.109 13C124.069 12.838 124.001 12.6988 123.904 12.5823C123.808 12.463 123.681 12.3721 123.525 12.3096C123.369 12.2471 123.183 12.2159 122.967 12.2159C122.552 12.2159 122.181 12.3196 121.855 12.5269C121.528 12.7315 121.257 13.0255 121.041 13.409C120.825 13.7897 120.671 14.2443 120.581 14.7727C120.501 15.284 120.498 15.7088 120.572 16.0468C120.649 16.3849 120.798 16.6377 121.019 16.8054C121.244 16.973 121.535 17.0568 121.893 17.0568C122.132 17.0568 122.35 17.0284 122.549 16.9715C122.751 16.9147 122.93 16.8338 123.086 16.7286C123.245 16.6207 123.38 16.4929 123.491 16.3451C123.605 16.1946 123.691 16.0284 123.751 15.8465H126.137C126.046 16.2159 125.884 16.5937 125.652 16.9801C125.419 17.3636 125.117 17.7173 124.748 18.0411C124.379 18.3622 123.944 18.6221 123.444 18.821C122.944 19.0198 122.382 19.1193 121.757 19.1193C120.938 19.1193 120.233 18.9403 119.639 18.5823C119.048 18.2244 118.619 17.7017 118.352 17.0142C118.088 16.3267 118.035 15.4886 118.194 14.5C118.353 13.5454 118.667 12.7457 119.136 12.1008C119.605 11.4559 120.174 10.9701 120.845 10.6434C121.515 10.3167 122.228 10.1534 122.984 10.1534C123.555 10.1534 124.066 10.2286 124.518 10.3792C124.973 10.5298 125.355 10.75 125.664 11.0397C125.977 11.3267 126.207 11.6804 126.355 12.1008C126.502 12.5213 126.555 13.0028 126.512 13.5454Z"/>
<path d="M130.511 10.2727L129.062 19H126.692L128.141 10.2727H130.511Z"/>
<path d="M139.338 14.7897C139.179 15.7386 138.864 16.534 138.392 17.1761C137.92 17.8181 137.348 18.3025 136.675 18.6292C136.001 18.9559 135.281 19.1193 134.514 19.1193C133.696 19.1193 132.986 18.9417 132.383 18.5866C131.781 18.2315 131.342 17.7116 131.067 17.0269C130.791 16.3423 130.736 15.5056 130.9 14.517C131.054 13.5681 131.366 12.7698 131.838 12.1221C132.31 11.4744 132.885 10.9843 133.564 10.6519C134.243 10.3196 134.969 10.1534 135.741 10.1534C136.554 10.1534 137.26 10.3323 137.859 10.6903C138.462 11.0483 138.899 11.5724 139.172 12.2627C139.447 12.9531 139.503 13.7954 139.338 14.7897ZM136.952 14.517C137.031 14.017 137.037 13.5965 136.969 13.2556C136.9 12.9119 136.757 12.6534 136.538 12.4801C136.32 12.3039 136.025 12.2159 135.656 12.2159C135.236 12.2159 134.864 12.3181 134.54 12.5227C134.216 12.7272 133.947 13.0213 133.734 13.4048C133.521 13.7883 133.372 14.25 133.287 14.7897C133.196 15.2954 133.187 15.7159 133.261 16.0511C133.338 16.3863 133.489 16.6377 133.713 16.8054C133.94 16.973 134.236 17.0568 134.599 17.0568C135.014 17.0568 135.381 16.9573 135.699 16.7585C136.02 16.5596 136.285 16.2713 136.496 15.8934C136.709 15.5156 136.861 15.0568 136.952 14.517ZM135.196 9.4545L136.338 7.54541H138.349L136.747 9.4545H135.196Z"/>
<path d="M148.735 10.2727L147.286 19H145.309L142.923 14.4147H142.872L142.105 19H139.735L141.184 10.2727H143.196L145.548 14.8409H145.616L146.366 10.2727H148.735Z"/>
</mask>
<path d="M59.0166 19L60.4655 10.2727H66.6018L66.278 12.1818H62.5109L62.2723 13.6818H65.6643L65.3405 15.5909H61.9484L61.3859 19H59.0166Z" fill="#CFD8E3"/>
<path d="M67.2016 19H64.6448L68.9743 10.2727H72.213L73.6448 19H71.088L70.2357 12.6761H70.1675L67.2016 19ZM67.3039 15.5568H72.1107L71.8039 17.3295H66.9971L67.3039 15.5568Z" fill="#CFD8E3"/>
<path d="M83.1178 13.5454H80.7485C80.7655 13.3437 80.7542 13.1619 80.7144 13C80.6746 12.838 80.6064 12.6988 80.5099 12.5823C80.4133 12.463 80.2868 12.3721 80.1306 12.3096C79.9743 12.2471 79.7883 12.2159 79.5724 12.2159C79.1576 12.2159 78.7868 12.3196 78.4601 12.5269C78.1334 12.7315 77.8621 13.0255 77.6462 13.409C77.4303 13.7897 77.2769 14.2443 77.186 14.7727C77.1064 15.284 77.1036 15.7088 77.1775 16.0468C77.2542 16.3849 77.4033 16.6377 77.6249 16.8054C77.8493 16.973 78.1405 17.0568 78.4985 17.0568C78.7371 17.0568 78.9559 17.0284 79.1547 16.9715C79.3564 16.9147 79.5354 16.8338 79.6917 16.7286C79.8508 16.6207 79.9857 16.4929 80.0965 16.3451C80.2101 16.1946 80.2968 16.0284 80.3564 15.8465H82.7428C82.6519 16.2159 82.49 16.5937 82.257 16.9801C82.0241 17.3636 81.7229 17.7173 81.3536 18.0411C80.9843 18.3622 80.5496 18.6221 80.0496 18.821C79.5496 19.0198 78.9871 19.1193 78.3621 19.1193C77.5439 19.1193 76.838 18.9403 76.2442 18.5823C75.6533 18.2244 75.2243 17.7017 74.9573 17.0142C74.6931 16.3267 74.6405 15.4886 74.7996 14.5C74.9587 13.5454 75.2726 12.7457 75.7414 12.1008C76.2101 11.4559 76.7797 10.9701 77.4502 10.6434C78.1206 10.3167 78.8337 10.1534 79.5894 10.1534C80.1604 10.1534 80.6718 10.2286 81.1235 10.3792C81.578 10.5298 81.9601 10.75 82.2698 11.0397C82.5823 11.3267 82.8124 11.6804 82.9601 12.1008C83.1079 12.5213 83.1604 13.0028 83.1178 13.5454Z" fill="#CFD8E3"/>
<path d="M84.1842 12.1818L84.5081 10.2727H92.0933L91.7694 12.1818H89.1444L88.0194 19H85.6842L86.8092 12.1818H84.1842Z" fill="#CFD8E3"/>
<path d="M98.1498 10.2727H100.519L99.5901 15.8636C99.4822 16.5284 99.2293 17.1036 98.8316 17.5894C98.4367 18.0724 97.9339 18.446 97.3231 18.7102C96.7123 18.9715 96.0333 19.1022 95.2861 19.1022C94.5333 19.1022 93.8969 18.9715 93.377 18.7102C92.8572 18.446 92.4793 18.0724 92.2435 17.5894C92.0106 17.1036 91.9481 16.5284 92.056 15.8636L92.985 10.2727H95.3543L94.4594 15.659C94.4168 15.9289 94.4381 16.169 94.5233 16.3792C94.6086 16.5894 94.7464 16.7556 94.9367 16.8778C95.127 16.9971 95.3572 17.0568 95.627 17.0568C95.8998 17.0568 96.1512 16.9971 96.3813 16.8778C96.6143 16.7556 96.8074 16.5894 96.9608 16.3792C97.1143 16.169 97.2123 15.9289 97.2549 15.659L98.1498 10.2727Z" fill="#CFD8E3"/>
<path d="M100.196 19L101.645 10.2727H105.412C106.06 10.2727 106.607 10.3906 107.053 10.6264C107.499 10.8622 107.82 11.2017 108.016 11.6448C108.212 12.088 108.259 12.6193 108.157 13.2386C108.054 13.8636 107.828 14.3906 107.479 14.8196C107.132 15.2457 106.691 15.5696 106.154 15.7911C105.62 16.0099 105.02 16.1193 104.355 16.1193H102.105L102.412 14.2784H104.185C104.463 14.2784 104.708 14.2443 104.918 14.1761C105.128 14.1051 105.299 13.9943 105.429 13.8437C105.56 13.6903 105.645 13.4886 105.685 13.2386C105.725 12.9886 105.705 12.7855 105.625 12.6292C105.546 12.4701 105.414 12.3536 105.229 12.2798C105.044 12.2031 104.816 12.1647 104.543 12.1647H103.708L102.566 19H100.196ZM105.975 14.9943L107.492 19H104.918L103.452 14.9943H105.975Z" fill="#CFD8E3"/>
<path d="M110.596 19H108.039L112.369 10.2727H115.608L117.039 19H114.483L113.63 12.6761H113.562L110.596 19ZM110.698 15.5568H115.505L115.198 17.3295H110.392L110.698 15.5568Z" fill="#CFD8E3"/>
<path d="M126.512 13.5454H124.143C124.16 13.3437 124.149 13.1619 124.109 13C124.069 12.838 124.001 12.6988 123.904 12.5823C123.808 12.463 123.681 12.3721 123.525 12.3096C123.369 12.2471 123.183 12.2159 122.967 12.2159C122.552 12.2159 122.181 12.3196 121.855 12.5269C121.528 12.7315 121.257 13.0255 121.041 13.409C120.825 13.7897 120.671 14.2443 120.581 14.7727C120.501 15.284 120.498 15.7088 120.572 16.0468C120.649 16.3849 120.798 16.6377 121.019 16.8054C121.244 16.973 121.535 17.0568 121.893 17.0568C122.132 17.0568 122.35 17.0284 122.549 16.9715C122.751 16.9147 122.93 16.8338 123.086 16.7286C123.245 16.6207 123.38 16.4929 123.491 16.3451C123.605 16.1946 123.691 16.0284 123.751 15.8465H126.137C126.046 16.2159 125.884 16.5937 125.652 16.9801C125.419 17.3636 125.117 17.7173 124.748 18.0411C124.379 18.3622 123.944 18.6221 123.444 18.821C122.944 19.0198 122.382 19.1193 121.757 19.1193C120.938 19.1193 120.233 18.9403 119.639 18.5823C119.048 18.2244 118.619 17.7017 118.352 17.0142C118.088 16.3267 118.035 15.4886 118.194 14.5C118.353 13.5454 118.667 12.7457 119.136 12.1008C119.605 11.4559 120.174 10.9701 120.845 10.6434C121.515 10.3167 122.228 10.1534 122.984 10.1534C123.555 10.1534 124.066 10.2286 124.518 10.3792C124.973 10.5298 125.355 10.75 125.664 11.0397C125.977 11.3267 126.207 11.6804 126.355 12.1008C126.502 12.5213 126.555 13.0028 126.512 13.5454Z" fill="#CFD8E3"/>
<path d="M130.511 10.2727L129.062 19H126.692L128.141 10.2727H130.511Z" fill="#CFD8E3"/>
<path d="M139.338 14.7897C139.179 15.7386 138.864 16.534 138.392 17.1761C137.92 17.8181 137.348 18.3025 136.675 18.6292C136.001 18.9559 135.281 19.1193 134.514 19.1193C133.696 19.1193 132.986 18.9417 132.383 18.5866C131.781 18.2315 131.342 17.7116 131.067 17.0269C130.791 16.3423 130.736 15.5056 130.9 14.517C131.054 13.5681 131.366 12.7698 131.838 12.1221C132.31 11.4744 132.885 10.9843 133.564 10.6519C134.243 10.3196 134.969 10.1534 135.741 10.1534C136.554 10.1534 137.26 10.3323 137.859 10.6903C138.462 11.0483 138.899 11.5724 139.172 12.2627C139.447 12.9531 139.503 13.7954 139.338 14.7897ZM136.952 14.517C137.031 14.017 137.037 13.5965 136.969 13.2556C136.9 12.9119 136.757 12.6534 136.538 12.4801C136.32 12.3039 136.025 12.2159 135.656 12.2159C135.236 12.2159 134.864 12.3181 134.54 12.5227C134.216 12.7272 133.947 13.0213 133.734 13.4048C133.521 13.7883 133.372 14.25 133.287 14.7897C133.196 15.2954 133.187 15.7159 133.261 16.0511C133.338 16.3863 133.489 16.6377 133.713 16.8054C133.94 16.973 134.236 17.0568 134.599 17.0568C135.014 17.0568 135.381 16.9573 135.699 16.7585C136.02 16.5596 136.285 16.2713 136.496 15.8934C136.709 15.5156 136.861 15.0568 136.952 14.517ZM135.196 9.4545L136.338 7.54541H138.349L136.747 9.4545H135.196Z" fill="#CFD8E3"/>
<path d="M148.735 10.2727L147.286 19H145.309L142.923 14.4147H142.872L142.105 19H139.735L141.184 10.2727H143.196L145.548 14.8409H145.616L146.366 10.2727H148.735Z" fill="#CFD8E3"/>
<path d="M59.0166 19L60.4655 10.2727H66.6018L66.278 12.1818H62.5109L62.2723 13.6818H65.6643L65.3405 15.5909H61.9484L61.3859 19H59.0166Z" stroke="#113E71" mask="url(#path-3-outside-1_164_18)"/>
<path d="M67.2016 19H64.6448L68.9743 10.2727H72.213L73.6448 19H71.088L70.2357 12.6761H70.1675L67.2016 19ZM67.3039 15.5568H72.1107L71.8039 17.3295H66.9971L67.3039 15.5568Z" stroke="#113E71" mask="url(#path-3-outside-1_164_18)"/>
<path d="M83.1178 13.5454H80.7485C80.7655 13.3437 80.7542 13.1619 80.7144 13C80.6746 12.838 80.6064 12.6988 80.5099 12.5823C80.4133 12.463 80.2868 12.3721 80.1306 12.3096C79.9743 12.2471 79.7883 12.2159 79.5724 12.2159C79.1576 12.2159 78.7868 12.3196 78.4601 12.5269C78.1334 12.7315 77.8621 13.0255 77.6462 13.409C77.4303 13.7897 77.2769 14.2443 77.186 14.7727C77.1064 15.284 77.1036 15.7088 77.1775 16.0468C77.2542 16.3849 77.4033 16.6377 77.6249 16.8054C77.8493 16.973 78.1405 17.0568 78.4985 17.0568C78.7371 17.0568 78.9559 17.0284 79.1547 16.9715C79.3564 16.9147 79.5354 16.8338 79.6917 16.7286C79.8508 16.6207 79.9857 16.4929 80.0965 16.3451C80.2101 16.1946 80.2968 16.0284 80.3564 15.8465H82.7428C82.6519 16.2159 82.49 16.5937 82.257 16.9801C82.0241 17.3636 81.7229 17.7173 81.3536 18.0411C80.9843 18.3622 80.5496 18.6221 80.0496 18.821C79.5496 19.0198 78.9871 19.1193 78.3621 19.1193C77.5439 19.1193 76.838 18.9403 76.2442 18.5823C75.6533 18.2244 75.2243 17.7017 74.9573 17.0142C74.6931 16.3267 74.6405 15.4886 74.7996 14.5C74.9587 13.5454 75.2726 12.7457 75.7414 12.1008C76.2101 11.4559 76.7797 10.9701 77.4502 10.6434C78.1206 10.3167 78.8337 10.1534 79.5894 10.1534C80.1604 10.1534 80.6718 10.2286 81.1235 10.3792C81.578 10.5298 81.9601 10.75 82.2698 11.0397C82.5823 11.3267 82.8124 11.6804 82.9601 12.1008C83.1079 12.5213 83.1604 13.0028 83.1178 13.5454Z" stroke="#113E71" mask="url(#path-3-outside-1_164_18)"/>
<path d="M84.1842 12.1818L84.5081 10.2727H92.0933L91.7694 12.1818H89.1444L88.0194 19H85.6842L86.8092 12.1818H84.1842Z" stroke="#113E71" mask="url(#path-3-outside-1_164_18)"/>
<path d="M98.1498 10.2727H100.519L99.5901 15.8636C99.4822 16.5284 99.2293 17.1036 98.8316 17.5894C98.4367 18.0724 97.9339 18.446 97.3231 18.7102C96.7123 18.9715 96.0333 19.1022 95.2861 19.1022C94.5333 19.1022 93.8969 18.9715 93.377 18.7102C92.8572 18.446 92.4793 18.0724 92.2435 17.5894C92.0106 17.1036 91.9481 16.5284 92.056 15.8636L92.985 10.2727H95.3543L94.4594 15.659C94.4168 15.9289 94.4381 16.169 94.5233 16.3792C94.6086 16.5894 94.7464 16.7556 94.9367 16.8778C95.127 16.9971 95.3572 17.0568 95.627 17.0568C95.8998 17.0568 96.1512 16.9971 96.3813 16.8778C96.6143 16.7556 96.8074 16.5894 96.9608 16.3792C97.1143 16.169 97.2123 15.9289 97.2549 15.659L98.1498 10.2727Z" stroke="#113E71" mask="url(#path-3-outside-1_164_18)"/>
<path d="M100.196 19L101.645 10.2727H105.412C106.06 10.2727 106.607 10.3906 107.053 10.6264C107.499 10.8622 107.82 11.2017 108.016 11.6448C108.212 12.088 108.259 12.6193 108.157 13.2386C108.054 13.8636 107.828 14.3906 107.479 14.8196C107.132 15.2457 106.691 15.5696 106.154 15.7911C105.62 16.0099 105.02 16.1193 104.355 16.1193H102.105L102.412 14.2784H104.185C104.463 14.2784 104.708 14.2443 104.918 14.1761C105.128 14.1051 105.299 13.9943 105.429 13.8437C105.56 13.6903 105.645 13.4886 105.685 13.2386C105.725 12.9886 105.705 12.7855 105.625 12.6292C105.546 12.4701 105.414 12.3536 105.229 12.2798C105.044 12.2031 104.816 12.1647 104.543 12.1647H103.708L102.566 19H100.196ZM105.975 14.9943L107.492 19H104.918L103.452 14.9943H105.975Z" stroke="#113E71" mask="url(#path-3-outside-1_164_18)"/>
<path d="M110.596 19H108.039L112.369 10.2727H115.608L117.039 19H114.483L113.63 12.6761H113.562L110.596 19ZM110.698 15.5568H115.505L115.198 17.3295H110.392L110.698 15.5568Z" stroke="#113E71" mask="url(#path-3-outside-1_164_18)"/>
<path d="M126.512 13.5454H124.143C124.16 13.3437 124.149 13.1619 124.109 13C124.069 12.838 124.001 12.6988 123.904 12.5823C123.808 12.463 123.681 12.3721 123.525 12.3096C123.369 12.2471 123.183 12.2159 122.967 12.2159C122.552 12.2159 122.181 12.3196 121.855 12.5269C121.528 12.7315 121.257 13.0255 121.041 13.409C120.825 13.7897 120.671 14.2443 120.581 14.7727C120.501 15.284 120.498 15.7088 120.572 16.0468C120.649 16.3849 120.798 16.6377 121.019 16.8054C121.244 16.973 121.535 17.0568 121.893 17.0568C122.132 17.0568 122.35 17.0284 122.549 16.9715C122.751 16.9147 122.93 16.8338 123.086 16.7286C123.245 16.6207 123.38 16.4929 123.491 16.3451C123.605 16.1946 123.691 16.0284 123.751 15.8465H126.137C126.046 16.2159 125.884 16.5937 125.652 16.9801C125.419 17.3636 125.117 17.7173 124.748 18.0411C124.379 18.3622 123.944 18.6221 123.444 18.821C122.944 19.0198 122.382 19.1193 121.757 19.1193C120.938 19.1193 120.233 18.9403 119.639 18.5823C119.048 18.2244 118.619 17.7017 118.352 17.0142C118.088 16.3267 118.035 15.4886 118.194 14.5C118.353 13.5454 118.667 12.7457 119.136 12.1008C119.605 11.4559 120.174 10.9701 120.845 10.6434C121.515 10.3167 122.228 10.1534 122.984 10.1534C123.555 10.1534 124.066 10.2286 124.518 10.3792C124.973 10.5298 125.355 10.75 125.664 11.0397C125.977 11.3267 126.207 11.6804 126.355 12.1008C126.502 12.5213 126.555 13.0028 126.512 13.5454Z" stroke="#113E71" mask="url(#path-3-outside-1_164_18)"/>
<path d="M130.511 10.2727L129.062 19H126.692L128.141 10.2727H130.511Z" stroke="#113E71" mask="url(#path-3-outside-1_164_18)"/>
<path d="M139.338 14.7897C139.179 15.7386 138.864 16.534 138.392 17.1761C137.92 17.8181 137.348 18.3025 136.675 18.6292C136.001 18.9559 135.281 19.1193 134.514 19.1193C133.696 19.1193 132.986 18.9417 132.383 18.5866C131.781 18.2315 131.342 17.7116 131.067 17.0269C130.791 16.3423 130.736 15.5056 130.9 14.517C131.054 13.5681 131.366 12.7698 131.838 12.1221C132.31 11.4744 132.885 10.9843 133.564 10.6519C134.243 10.3196 134.969 10.1534 135.741 10.1534C136.554 10.1534 137.26 10.3323 137.859 10.6903C138.462 11.0483 138.899 11.5724 139.172 12.2627C139.447 12.9531 139.503 13.7954 139.338 14.7897ZM136.952 14.517C137.031 14.017 137.037 13.5965 136.969 13.2556C136.9 12.9119 136.757 12.6534 136.538 12.4801C136.32 12.3039 136.025 12.2159 135.656 12.2159C135.236 12.2159 134.864 12.3181 134.54 12.5227C134.216 12.7272 133.947 13.0213 133.734 13.4048C133.521 13.7883 133.372 14.25 133.287 14.7897C133.196 15.2954 133.187 15.7159 133.261 16.0511C133.338 16.3863 133.489 16.6377 133.713 16.8054C133.94 16.973 134.236 17.0568 134.599 17.0568C135.014 17.0568 135.381 16.9573 135.699 16.7585C136.02 16.5596 136.285 16.2713 136.496 15.8934C136.709 15.5156 136.861 15.0568 136.952 14.517ZM135.196 9.4545L136.338 7.54541H138.349L136.747 9.4545H135.196Z" stroke="#113E71" mask="url(#path-3-outside-1_164_18)"/>
<path d="M148.735 10.2727L147.286 19H145.309L142.923 14.4147H142.872L142.105 19H139.735L141.184 10.2727H143.196L145.548 14.8409H145.616L146.366 10.2727H148.735Z" stroke="#113E71" mask="url(#path-3-outside-1_164_18)"/>
<path d="M24 4.5C24 3.67157 24.6716 3 25.5 3C26.3284 3 27 3.67157 27 4.5C27 5.32843 26.3284 6 25.5 6C24.6716 6 24 5.32843 24 4.5Z" fill="#113E71"/>
<path d="M28 4.5C28 3.67157 28.6716 3 29.5 3C30.3284 3 31 3.67157 31 4.5C31 5.32843 30.3284 6 29.5 6C28.6716 6 28 5.32843 28 4.5Z" fill="#113E71"/>
<path d="M32 4.5C32 3.67157 32.6716 3 33.5 3C34.3284 3 35 3.67157 35 4.5C35 5.32843 34.3284 6 33.5 6C32.6716 6 32 5.32843 32 4.5Z" fill="#113E71"/>
</svg>
